<?xml version="1.0" encoding="utf-8"?>
<!-- Generator: Adobe Illustrator 19.2.1, SVG Export Plug-In . SVG Version: 6.00 Build 0)  -->
<svg version="1.1" id="landscape-svg" xmlns="http://www.w3.org/2000/svg" xmlns:xlink="http://www.w3.org/1999/xlink" x="0px"
	 y="0px" viewBox="0 0 886.3 885.5" style="enable-background:new 0 0 886.3 885.5;" xml:space="preserve">
<style type="text/css">
	.st0{fill:none;stroke:#565656;stroke-width:0.65;stroke-miterlimit:10;}
	.st1{fill:none;stroke:#565656;stroke-width:0.75;stroke-miterlimit:10;}
	.st2{fill:#565656;stroke:#565656;stroke-width:0.1;stroke-miterlimit:10;}
	.st3{fill:#565656;stroke:#000000;stroke-width:0.1;stroke-miterlimit:10;}
</style>
<title>landscape-2-01</title>
<g id="designer">
	<path class="st0" d="M738,113.6c134.5,120.6,186.3,316.9,115,494.2c-91.1,226.6-348.6,336.4-575.1,245.3
		c-14.9-6-29.6-12.8-43.8-20.4"/>
	<path class="st1" d="M142.7,767.7C11.8,646.8-37.8,453.1,32.6,278c91-226.6,348.5-336.4,575.1-245.3c13.3,5.3,26.2,11.2,38.6,17.7"
		/>
	
		<ellipse transform="matrix(0.3788 -0.9255 0.9255 0.3788 -626.2615 714.5803)" class="st0" cx="219.2" cy="823.8" rx="9.5" ry="9.5"/>
	<path class="st2" d="M199.5,809.3c1.3-0.5,2.8-0.4,3.9,0.4c2.2,1.4,2.5,4,0.8,6.6s-4.2,3.3-6.4,1.9c-1.2-0.8-1.9-2.1-1.9-3.5
		l-2.9,4.5l-0.5-0.3l7.3-11.1l0.5,0.3L199.5,809.3z M196.3,814.2c0,1.4,0.7,2.7,1.8,3.6c2,1.3,4.2,0.3,5.6-1.8s1.4-4.5-0.6-5.8
		c-1.2-0.8-2.7-0.9-4-0.3L196.3,814.2z"/>
	<path class="st2" d="M188.2,811.6c-2.4-1.7-2.3-4.5-0.8-6.7l0.1-0.2l6.9,4.8c1.3-2,1.2-4.5-0.9-5.9c-1-0.8-2.3-1-3.6-0.7l-0.1-0.5
		c1.4-0.3,2.8-0.1,4,0.8c2.3,1.6,2.7,4.5,1,6.9S190.3,813.1,188.2,811.6z M194,809.9l-6.3-4.4c-1.3,1.8-1,4.3,0.7,5.6l0,0l0,0
		C190.4,812.5,192.9,811.4,194,809.9L194,809.9L194,809.9z"/>
	<path class="st2" d="M187.1,800.8c0-1.2-0.6-2.3-1.6-3c-1.4-1-2.9-0.9-3.6,0.1s0.1,2.3,1.1,3.5s2.1,2.6,1.1,4
		c-0.8,1.2-2.5,1.4-4.2,0.1c-1.1-0.7-1.8-1.9-1.8-3.1l0.6-0.1c0,1.1,0.6,2.2,1.5,2.8c1.4,1,2.7,0.9,3.4,0s-0.1-2.1-1.1-3.2
		c-1.1-1.3-2.3-2.7-1.1-4.3c0.9-1.2,2.5-1.6,4.4-0.2c1.2,0.7,1.9,2,2,3.3L187.1,800.8z"/>
	<path class="st2" d="M173.7,803.6c-0.2,0.3-0.6,0.3-0.8,0.1c-0.3-0.2-0.3-0.6-0.1-0.8s0.6-0.3,0.8-0.1l0,0l0,0
		C173.8,803,173.8,803.3,173.7,803.6z M174.8,801.6l-0.5-0.4l5.8-7.7l0.5,0.4L174.8,801.6z"/>
	<path class="st2" d="M178.2,789.6c0-1.3-0.6-2.4-1.7-3.1c-1.5-1.2-3.4-1.4-4.8,0.5l-1,1.3c1.3-0.4,2.8-0.2,3.9,0.7
		c2,1.6,2.2,4.2,0.3,6.7s-4.5,3-6.5,1.4c-1.1-0.9-1.7-2.2-1.6-3.6l-1,1.3l-0.5-0.4l6-7.7c1.7-2.2,3.8-2,5.6-0.5c1.2,0.8,1.9,2,2,3.4
		L178.2,789.6z M167.1,792.8c-0.1,1.4,0.4,2.8,1.5,3.7c1.9,1.4,4.1,0.7,5.7-1.3s1.8-4.4-0.1-5.8c-1.1-0.9-2.7-1.1-4-0.6L167.1,792.8
		z"/>
	<path class="st2" d="M159.3,785.7c-1.3,1.6-0.9,2.7,0.3,3.6c1.1,0.8,2.5,1.1,3.8,0.7l4.7-5.9l0.5,0.4l-6.1,7.5l-0.5-0.4l1-1.2
		c-1.3,0.2-2.7-0.1-3.8-0.9c-1.5-1.2-1.8-2.6-0.4-4.4l4.2-5.2l0.5,0.4L159.3,785.7z"/>
	<path class="st2" d="M151,782.8c-2.2-1.9-1.8-4.7-0.1-6.8l0.1-0.2l6.3,5.4c1.5-1.8,1.6-4.3-0.2-5.9c-1-0.9-2.2-1.3-3.5-1.1v-0.5
		c1.4-0.2,2.8,0.2,3.9,1.2c2.1,1.8,2.2,4.7,0.3,7S153,784.4,151,782.8z M157,781.7l-5.8-5c-1.5,1.6-1.4,4.1,0.2,5.7l0,0
		C153.2,783.9,155.7,783.1,157,781.7L157,781.7L157,781.7z"/>
	<path class="st2" d="M145.5,777.6l-0.5-0.4l1.2-1.3c-1.3,0.4-2.7,0.1-3.8-0.8l0.5-0.5c0.1,0.1,0.2,0.2,0.3,0.3
		c1,0.7,2.2,0.9,3.4,0.5l4.8-5.4l0.5,0.4L145.5,777.6z"/>
	<ellipse transform="matrix(0.3684 -0.9297 0.9297 0.3684 363.7944 650.314)" class="st0" cx="660.5" cy="57.4" rx="9.5" ry="9.5"/>
	<path class="st3" d="M680.2,71.8c-1.3,0.5-2.8,0.4-3.9-0.3c-2.2-1.4-2.5-4-0.9-6.6s4.2-3.3,6.4-1.9c1.2,0.8,1.9,2.1,1.9,3.5
		l2.9-4.5l0.5,0.3l-7.2,11.2l-0.5-0.3L680.2,71.8z M683.3,67c0-1.4-0.7-2.7-1.9-3.5c-2-1.3-4.2-0.3-5.5,1.8s-1.3,4.5,0.6,5.8
		c1.2,0.8,2.7,0.9,4,0.3L683.3,67z"/>
	<path class="st3" d="M691.5,69.4c2.5,1.7,2.4,4.5,0.9,6.7l-0.1,0.2l-7-4.7c-1.3,2-1.1,4.5,0.9,5.9c1,0.7,2.4,1,3.6,0.7l0.1,0.5
		c-1.4,0.4-2.8,0.1-4-0.8c-2.3-1.6-2.7-4.4-1.1-6.9S689.3,68,691.5,69.4z M685.7,71.2l6.4,4.3c1.3-1.8,1-4.3-0.8-5.6l0,0l0,0
		C689.2,68.5,686.8,69.6,685.7,71.2L685.7,71.2L685.7,71.2z"/>
	<path class="st3" d="M692.7,80.1c0,1.2,0.7,2.3,1.7,3c1.5,1,2.9,0.9,3.6-0.2s-0.1-2.3-1.1-3.5s-2.2-2.6-1.2-4
		c0.8-1.2,2.5-1.4,4.2-0.2c1.1,0.7,1.8,1.8,1.8,3.1l-0.6,0.1c0-1.1-0.6-2.1-1.6-2.8c-1.4-1-2.7-0.8-3.3,0.1s0.2,2.1,1.1,3.2
		c1.1,1.3,2.3,2.7,1.2,4.3c-0.9,1.2-2.5,1.6-4.4,0.2c-1.2-0.7-1.9-2-2-3.3L692.7,80.1z"/>
	<path class="st3" d="M705,79.3l0.5,0.4l-5.7,7.8l-0.5-0.4L705,79.3z M706.1,77.3c0.2-0.3,0.6-0.3,0.8-0.1c0.2,0.2,0.3,0.6,0.1,0.8
		c-0.2,0.2-0.5,0.3-0.8,0.1C706,77.9,705.9,77.6,706.1,77.3L706.1,77.3L706.1,77.3z"/>
	<path class="st3" d="M701.7,91.3c0,1.3,0.7,2.4,1.7,3.1c1.5,1.2,3.4,1.3,4.8-0.5l1-1.3c-1.3,0.5-2.8,0.2-3.9-0.6
		c-2.1-1.6-2.2-4.2-0.3-6.7s4.5-3,6.5-1.4c1.1,0.9,1.7,2.2,1.6,3.6l1-1.3l0.5,0.4l-5.9,7.7c-1.7,2.2-3.7,2-5.6,0.6
		c-1.2-0.7-2-2-2.1-3.4L701.7,91.3z M712.7,87.9c0.1-1.4-0.5-2.8-1.6-3.7c-1.9-1.4-4.1-0.6-5.7,1.4s-1.7,4.4,0.2,5.8
		c1.2,0.8,2.7,1.1,4,0.5L712.7,87.9z"/>
	<path class="st3" d="M720.7,95c1.2-1.6,0.8-2.7-0.3-3.6c-1.1-0.8-2.5-1-3.8-0.7l-4.7,5.9l-0.5-0.4l6-7.6l0.5,0.4l-0.9,1.2
		c1.3-0.3,2.7,0,3.8,0.8c1.5,1.2,1.8,2.6,0.4,4.4l-4.2,5.3l-0.5-0.4L720.7,95z"/>
	<path class="st3" d="M729,97.8c2.3,1.9,1.9,4.7,0.2,6.8l-0.1,0.1l-6.4-5.4c-1.5,1.9-1.6,4.4,0.3,5.9c1,0.8,2.3,1.2,3.5,1v0.5
		c-1.4,0.2-2.8-0.2-3.9-1.2c-2.1-1.8-2.2-4.7-0.4-6.9S727,96.2,729,97.8z M723,99l5.9,5c1.5-1.6,1.4-4.2-0.2-5.6l0,0
		C726.8,96.7,724.3,97.6,723,99L723,99L723,99z"/>
	<path class="st3" d="M734.5,102.9l0.5,0.4l-1.2,1.3c1.3-0.4,2.7-0.1,3.8,0.7l-0.5,0.5c-0.1-0.1-0.2-0.2-0.3-0.3
		c-1-0.7-2.3-0.8-3.4-0.4l-4.8,5.5l-0.5-0.4L734.5,102.9z"/>
</g>
</svg>
