<?xml version="1.0" encoding="utf-8"?>
<!-- Generator: Adobe Illustrator 19.2.1, SVG Export Plug-In . SVG Version: 6.00 Build 0)  -->
<svg version="1.1" id="landscape-svg" xmlns="http://www.w3.org/2000/svg" xmlns:xlink="http://www.w3.org/1999/xlink" x="0px"
	 y="0px" viewBox="0 0 820.6 820.6" style="enable-background:new 0 0 820.6 820.6;" xml:space="preserve">
<style type="text/css">
	.st0{fill:#7C7C7B;stroke:#000000;stroke-miterlimit:10;}
	.st1{fill:none;stroke:#565656;stroke-width:0.75;stroke-miterlimit:10;}
	.st2{stroke:#565656;stroke-width:0.1;stroke-miterlimit:10;}
	.st3{fill:none;stroke:#565656;stroke-width:0.6461;stroke-miterlimit:10;}
	.st4{fill:#565656;stroke:#565656;stroke-width:0.1;stroke-miterlimit:10;}
</style>
<title>landscape-2-01</title>
<path class="st0" d="M1200.2,412.8L1200.2,412.8l-0.1,0.3L1200.2,412.8z"/>
<g id="developer">
	<path class="st1" d="M737.2,657.5C640,785.9,471.5,850,306.1,806.5C87.3,748.9-43.3,524.9,14.2,306.1c2.8-10.6,6-20.9,9.5-31.1"/>
	<path class="st1" d="M80.4,167.5c96.7-131.3,267-197.3,434.3-153.2C733.5,71.9,864.1,296,806.6,514.7c-3.1,11.6-6.7,23-10.5,34.1"
		/>
	<path class="st2" d="M42.6,238.5c0.7,1.2,0.8,2.6,0.2,3.8c-1,2.3-3.5,3-6.2,1.7s-3.8-3.6-2.8-5.8c0.6-1.2,1.7-2.1,3-2.3l-4.7-2.1
		l0.2-0.5l11.8,5.3l-0.2,0.5L42.6,238.5z M37.5,236.1c-1.3,0.2-2.5,1.1-3.1,2.2c-0.9,2.1,0.3,4,2.5,5.1c2.2,1,4.5,0.6,5.5-1.4
		c0.5-1.3,0.4-2.7-0.2-3.8L37.5,236.1z"/>
	<path class="st2" d="M38.8,228c1.2-2.6,4-2.8,6.3-1.7l0.2,0.1l-3.5,7.2c1.9,1.1,4.4,0.3,5.4-1.6l0,0v-0.1c0.6-1,0.6-2.4,0.1-3.5
		l0.5-0.2c0.5,1.3,0.5,2.7-0.2,3.9c-1.4,2.3-4.5,3-6.8,1.6C39,232.4,38.1,230.1,38.8,228z M41.2,233.3l3.2-6.6
		c-1.8-1-4.2-0.4-5.2,1.5v0.1C38.3,230.4,39.7,232.5,41.2,233.3L41.2,233.3L41.2,233.3z"/>
	<path class="st2" d="M41.6,222.8l0.3-0.6l9.4,0.7l-6-7.2l0.3-0.6l6.4,7.8l-0.3,0.6L41.6,222.8z"/>
	<path class="st2" d="M48.1,210c1.3-2.5,4.1-2.6,6.4-1.4l0.2,0.1l-3.9,7.1c1.9,1.2,4.4,0.5,5.4-1.3v-0.1c0.6-1,0.7-2.3,0.3-3.5
		l0.5-0.2c0.5,1.3,0.3,2.7-0.4,3.9c-1.5,2.3-4.6,2.8-6.8,1.3C48,214.5,47.3,212.1,48.1,210z M50.3,215.4l3.5-6.5
		c-1.8-1.1-4.2-0.6-5.2,1.2l0,0v0.1C47.7,212.1,48.5,214.4,50.3,215.4L50.3,215.4L50.3,215.4z"/>
	<path class="st2" d="M48.9,202l0.2-0.5l11.2,6.4l-0.2,0.5L48.9,202z"/>
	<path class="st2" d="M57.6,203.1c-2.4-1.4-3.3-3.9-1.9-6.2s4.1-2.6,6.3-1.2c2.3,1.4,3.4,3.9,2,6.2
		C62.7,204.2,59.9,204.4,57.6,203.1z M61.7,196.1c-1.9-1.2-4.4-1.1-5.6,1s-0.1,4.2,1.8,5.4c1.9,1.2,4.4,1.1,5.6-1
		C64.7,199.4,63.7,197.3,61.7,196.1L61.7,196.1z"/>
	<path class="st2" d="M70.5,197.6l-10.8-6.8l0.3-0.5l1.3,0.8c-0.5-1.3-0.5-2.7,0.3-3.8c1.3-2.1,3.8-2.5,6.3-0.9
		c2.5,1.5,3.2,4,1.9,6.1c-0.7,1.1-2,1.8-3.3,1.9l4.4,2.7L70.5,197.6z M62,187.5c-0.7,1.1-0.8,2.5-0.3,3.8l4.2,2.7
		c1.4,0,2.7-0.7,3.4-1.8c1.2-1.9,0.3-4-1.8-5.3C65.3,185.6,63.1,185.6,62,187.5L62,187.5L62,187.5z"/>
	<path class="st2" d="M67.6,178c1.6-2.4,4.3-2.3,6.4-0.9l0.2,0.1l-4.4,6.6c1.8,1.3,4.2,0.9,5.6-0.9v-0.1c0.7-1,0.9-2.3,0.6-3.5
		l0.5-0.1c0.4,1.3,0,2.7-0.7,3.9c-1.8,2-4.8,2.3-6.9,0.5C67.2,182.4,66.6,180,67.6,178z M69.2,183.7l4.1-6.1c-1.7-1.3-4-1-5.3,0.7
		l0,0l-0.1,0.1C66.6,180.3,67.7,182.6,69.2,183.7L69.2,183.7L69.2,183.7z"/>
	<path class="st2" d="M71.8,172.2l0.3-0.5l1.4,0.9c-0.5-1.3-0.4-2.5,0.3-3.7l0.6,0.4c-0.1,0.1-0.2,0.3-0.2,0.4
		c-0.5,1.1-0.6,2.3-0.1,3.3l5.6,4l-0.3,0.5L71.8,172.2z"/>
	<ellipse transform="matrix(0.2545 -0.9671 0.9671 0.2545 -229.2301 222.03)" class="st3" cx="29.4" cy="259.7" rx="9.4" ry="9.4"/>
	<path class="st4" d="M776.5,586.3c-0.7-1.2-0.8-2.6-0.2-3.8c1-2.3,3.5-3,6.2-1.7s3.8,3.6,2.8,5.8c-0.6,1.2-1.7,2.1-3,2.3l4.6,2.1
		l-0.2,0.5l-11.7-5.3l0.2-0.5L776.5,586.3z M781.5,588.6c1.3-0.2,2.5-1.1,3.1-2.2c0.9-2.1-0.3-4-2.5-5.1c-2.2-1-4.5-0.6-5.5,1.4
		c-0.5,1.3-0.4,2.7,0.3,3.8L781.5,588.6z"/>
	<path class="st4" d="M780.3,596.8c-1.2,2.6-4,2.8-6.3,1.7l-0.2-0.1l3.5-7.2c-1.9-1.1-4.4-0.3-5.4,1.6l0,0v0.1
		c-0.6,1-0.6,2.4-0.1,3.5l-0.5,0.2c-0.5-1.3-0.5-2.7,0.2-3.9c1.4-2.3,4.5-3,6.8-1.6C780.1,592.4,781,594.7,780.3,596.8z
		 M777.9,591.4l-3.2,6.6c1.8,1,4.2,0.4,5.2-1.5v-0.1C780.8,594.3,779.4,592.3,777.9,591.4z"/>
	<path class="st4" d="M777.5,602l-0.3,0.6l-9.3-0.7l6,7.2l-0.3,0.6l-6.4-7.8l0.3-0.6L777.5,602z"/>
	<path class="st4" d="M771,614.8c-1.3,2.5-4.1,2.6-6.4,1.4l-0.2-0.1l3.9-7.1c-1.9-1.2-4.4-0.5-5.4,1.3l0,0v0.1
		c-0.6,1-0.7,2.3-0.3,3.5l-0.5,0.2c-0.5-1.3-0.3-2.7,0.4-3.9c1.4-2.3,4.5-2.9,6.8-1.5C771.1,610.1,771.9,612.7,771,614.8z
		 M768.8,609.4l-3.5,6.5c1.8,1.1,4.2,0.6,5.2-1.2l0,0v-0.1C771.6,612.5,770.3,610.3,768.8,609.4L768.8,609.4L768.8,609.4z"/>
	<path class="st4" d="M770.2,622.9l-0.2,0.5l-11.2-6.4l0.2-0.5L770.2,622.9z"/>
	<path class="st4" d="M761.5,621.8c2.4,1.4,3.4,3.9,1.9,6.2c-1.4,2.3-4.1,2.6-6.3,1.2c-2.3-1.4-3.4-3.9-1.9-6.2
		C756.6,620.7,759.1,620.3,761.5,621.8z M757.4,628.6c1.9,1.2,4.4,1.1,5.6-1s0.1-4.2-1.8-5.4s-4.4-1.1-5.6,1
		S755.5,627.4,757.4,628.6z"/>
	<path class="st4" d="M748.7,627.1l10.8,6.8l-0.3,0.5l-1.3-0.8c0.5,1.3,0.5,2.7-0.3,3.8c-1.3,2.1-3.8,2.5-6.3,0.9
		c-2.5-1.5-3.2-4-1.9-6.1c0.7-1.1,2-1.8,3.4-1.9l-4.4-2.7L748.7,627.1z M757.2,637.2c0.7-1.1,0.8-2.5,0.3-3.8l-4.3-2.6
		c-1.4,0-2.7,0.7-3.4,1.8c-1.2,1.9-0.3,4,1.8,5.3C753.7,639.2,756,639.1,757.2,637.2L757.2,637.2L757.2,637.2z"/>
	<path class="st4" d="M751.6,646.7c-1.6,2.4-4.3,2.3-6.4,0.9l-0.2-0.1l4.4-6.6c-1.8-1.3-4.2-0.9-5.6,0.9v0.1c-0.7,1-0.9,2.3-0.6,3.5
		l-0.5,0.1c-0.4-1.3,0-2.7,0.7-3.9c1.8-2,4.8-2.3,6.9-0.5C752,642.4,752.4,644.7,751.6,646.7z M749.9,641.1l-4.1,6.1
		c1.7,1.3,4,1,5.3-0.7l0,0l0.1-0.1C752.5,644.4,751.4,642.1,749.9,641.1L749.9,641.1L749.9,641.1z"/>
	<path class="st4" d="M747.3,652.6l-0.3,0.5l-1.4-0.9c0.5,1.3,0.4,2.5-0.3,3.7l-0.6-0.4c0.1-0.1,0.2-0.3,0.2-0.4
		c0.5-1.1,0.6-2.3,0.1-3.3l-5.6-4l0.3-0.5L747.3,652.6z"/>
	<ellipse transform="matrix(0.2545 -0.9671 0.9671 0.2545 42.3632 1184.8737)" class="st3" cx="789.7" cy="565" rx="9.4" ry="9.4"/>
</g>
</svg>
