
<svg version="1.1" id="Layer_1" xmlns="http://www.w3.org/2000/svg" xmlns:xlink="http://www.w3.org/1999/xlink" x="0px" y="0px"
	 viewBox="0 0 187 118.7" style="enable-background:new 0 0 187 118.7;" xml:space="preserve">
<style type="text/css">
	.st0{fill:none;stroke:#4A6DB5;stroke-width:2.8643;stroke-miterlimit:10;}
</style>
<title>PortfolioIcons</title>
<path class="st0" d="M100.1,90.8c0,0-1.9-1.6-1.9-2.5c0-0.9-0.1-12.3-0.1-12.3s0.1-1.6-2-3.3c0,0,23.7-1.1,12.1-25.7
	c0,0,1.6-3.6-0.5-8.8c-3.4,0.1-6.6,1.3-9.2,3.4c0,0-10.6-3.6-16.8,0c0,0-5.5-4.4-8.9-3.4c0,0-2.2,3.5-0.5,9c0,0-3.3,3.4-3.6,6.7
	c0,0-2.5,18.1,15.1,18.7c0,0-2.1,2.7-2,4.2c0,0-5.5,3.8-9.5-1.8c-0.8-2.3-2.9-4-5.4-4.1c0,0-3.3-0.2,0,2c0,0,3.2,2.6,3.7,5.2
	c0,0,1.8,6.6,11.4,4.3v6.4c0,0-1.8,1.7-2.5,1.5"/>
<circle class="st0" cx="89.4" cy="58.9" r="33.4"/>
</svg>
