<?xml version="1.0" encoding="utf-8"?>
<!-- Generator: Adobe Illustrator 19.2.1, SVG Export Plug-In . SVG Version: 6.00 Build 0)  -->
<svg version="1.1" id="landscape-svg" xmlns="http://www.w3.org/2000/svg" xmlns:xlink="http://www.w3.org/1999/xlink" x="0px"
	 y="0px" viewBox="0 0 1367.9 1272.1" style="enable-background:new 0 0 1367.9 1272.1;" xml:space="preserve">
<style type="text/css">
	.st0{fill:#7C7C7B;stroke:#000000;stroke-miterlimit:10;}
	.st1{fill:#565656;stroke:#000000;stroke-miterlimit:10;}
	.st2{fill:#FFFFFF;}
	.st3{fill:none;}
</style>
<title>landscape-2-01</title>
<path class="st0" d="M1366.1,746.2L1366.1,746.2l-0.1,0.3L1366.1,746.2z"/>
<path class="st0" d="M1366.1,749.9c0.7-0.3,1.1-0.9,1.2-1.5c-0.4,0.1-0.9,0.1-1.3,0v1.6L1366.1,749.9z"/>
<path class="st1" d="M3,754.8c0.7,0,1.2-0.5,1.4-1.2c0-0.8-1-0.7-1.6-0.7S1.3,753,0.5,753v2.2C1.4,755,2.2,754.9,3,754.8z"/>
<g>
	<path class="st2" d="M0.5,0v1271.6h1350.9L1366,0H0.5z M197.9,797.4c-2.2-16.6-3.3-33.6-3.3-50.9c0-211.7,171.6-383.3,383.3-383.3
		s383.3,171.6,383.3,383.3c0,21.3-1.7,42.2-5.1,62.6"/>
	<path class="st3" d="M197.9,797.4l758.2,11.7L197.9,797.4z"/>
</g>
</svg>
