<?xml version="1.0" encoding="utf-8"?>
<!-- Generator: Adobe Illustrator 19.2.1, SVG Export Plug-In . SVG Version: 6.00 Build 0)  -->
<svg version="1.1" id="Layer_1" xmlns="http://www.w3.org/2000/svg" xmlns:xlink="http://www.w3.org/1999/xlink" x="0px" y="0px"
	 viewBox="0 0 154 114" style="enable-background:new 0 0 154 114;" xml:space="preserve">
<style type="text/css">
	.st0{fill:none;stroke:#4A6DB5;stroke-width:2.5;stroke-miterlimit:10;}
</style>
<title>PortfolioIcons</title>
<circle class="st0" cx="60" cy="39.4" r="6.1"/>
<path class="st0" d="M83.5,52.8c2.4-1.7,12.8-7.6,20.1,2.8c1.8,2.6,2.7,5.6,2.7,8.7c0,16.9,0,19,0,19l0,0c0,0.8-0.6,1.4-1.4,1.4
	c0,0,0,0,0,0h-7.2c-0.7,0-1.3-0.6-1.3-1.3l-0.2-20.1c0,0,0.2-6.3-6.3-6.5c0,0-6.3,0.2-6.8,5.8v20.3c0,0.8-0.6,1.4-1.4,1.4l-7,0.1
	c-0.7,0-1.3-0.6-1.3-1.3c0,0,0,0,0,0V50.1c0-0.7,0.5-1.2,1.2-1.2l7-0.1c0.7,0,1.3,0.5,1.4,1.3c0,0,0,0,0,0.1v2.4
	c0,0.2,0.1,0.3,0.3,0.3C83.4,52.8,83.5,52.8,83.5,52.8z"/>
<path class="st0" d="M56.7,48.7h7.1c0.8,0,1.4,0.6,1.4,1.4v0v32.5c0,0.8-0.6,1.4-1.4,1.4h-7c-0.8,0-1.4-0.6-1.4-1.4V50.1
	C55.3,49.3,55.9,48.7,56.7,48.7z"/>
</svg>
