<?xml version="1.0" encoding="utf-8"?>
<!-- Generator: Adobe Illustrator 19.2.1, SVG Export Plug-In . SVG Version: 6.00 Build 0)  -->
<svg version="1.1" id="mountain-svg" xmlns="http://www.w3.org/2000/svg" xmlns:xlink="http://www.w3.org/1999/xlink" x="0px"
	 y="0px" viewBox="0 0 1366 211.8" style="enable-background:new 0 0 1366 211.8;" xml:space="preserve">
<style type="text/css">
	.st0{fill:#D3D3D3;stroke:#444443;stroke-width:0.65;stroke-miterlimit:10;}
	.st1{fill:#7C7C7B;stroke:#444443;stroke-width:0.75;stroke-miterlimit:10;}
	.st2{fill:#565656;stroke:#000000;stroke-miterlimit:10;}
</style>
<polygon class="st0" points="1073.6,187.3 1106.9,186.1 1099.7,138.6 1017.6,162.9 1026.8,186.4 "/>
<title>mountain</title>
<path class="st1" d="M1365.6,134.3L1365.6,134.3l-0.1,0.3L1365.6,134.3z"/>
<path class="st1" d="M1365.6,138.1c0.7-0.3,1.1-0.9,1.2-1.6c-0.4,0.1-0.9,0.1-1.3,0v1.6H1365.6z"/>
<path class="st2" d="M2.5,142.9c0.7,0,1.2-0.5,1.4-1.2c0-0.8-1-0.7-1.6-0.7s-1.5,0.1-2.2,0.1v2.2C1,143.2,1.7,143,2.5,142.9z"/>
<path class="st0" d="M1298.6,158.1l-7.1,4.1l-1-2l3.2-1.9l-7.7-0.8l-0.3,0.8l7.1,0.3l-3.9,4l7,1.4l-1.5,2.2l2.7,2.2
	c-1.3,0.2-2.5,0.4-3.8,0.6c-0.7,0-1.3,0.3-1.9,0.6c-0.5,0.7-0.9,1.4-1.2,2.2l-0.9-1.1c-17.9-4.6-35.1-7.2-49.8-17.2
	c-2.1-0.5-4.2-1-6.3-1.6c-0.9-0.2-2.5-0.4-2.6-0.8c-0.2-1.2,0-2.5,0.6-3.6c0.4-0.6,1.9-0.8,2.8-0.6c2.9,0.5,5.8,1.3,8.7,2l0.5-1.2
	l8.4,2.1c-2.3-2.6-5.2-3.5-8-4.5c-0.4-0.3-0.6-0.8-0.8-1.2l24.3,3.2l-3.7,1.2c6.4,0,11.7-0.2,16.8,0.1c1.9,0.1,3.8,1.4,5.7,2.1
	c4.2,1.6,8.4,3.2,12.6,4.8C1298.7,156.4,1298.6,157.2,1298.6,158.1z"/>
<path class="st0" d="M836.3,24.7c3.5-0.3,7.1-1,10.6-0.8c1.6,0.1,3.1,1.7,4.7,2.6l6.3,5.2l1.2,0.1c4.6,7.6-3.1,3.9-5,5.5
	c-0.6-0.2-1.2-0.4-1.8-0.4c-8.9-0.3-18.4,5-26.4-3c-0.9,0.5-1.8,1.2-2.6,1.9c3.9,6.3,2.7,16.3,13,18c2.5,0.4,5.1,0.9,7.6,1.4
	l1.9,0.9l5.4,17.5l1.7-4.8l1.8,1.5c-2.5,2.7,6.8,10.8-4.3,9.4c-2.7-3.1-5.5-6.1-8.2-9.1H829c0.1,0.8,0.1,1.6,0,2.4
	c-0.4,1.4-0.9,2.8-1.5,4.1c-0.5-1.2-1-2.5-1.3-3.8c-0.3-1.8-0.3-3.6-0.6-6.9c-1.5,4.9-2.3,7.9-3.2,10.9c-1,3.3-1.6,7-3.4,9.8
	c-1.1,1.6-4.2,1.9-6.7,2.9l-2,4.4l-4.9-3.5l-5,7l-3.2-1.3l3.8-9.5c-0.1,2.1-0.3,4.2-0.4,6.7c1.8-2.1,3.7-3.7,4.7-5.6
	c0.7-1.2,0.4-3,0.2-4.5c-0.6-0.6-1.5-0.8-2.3-0.7c-0.9,1.1-1.6,2.2-2.2,3.5c-1.9,0.2-4.4-0.2-5.7,0.8c-2,1.6-3.1,4.1-4.6,6.2
	c0-1.5,0-3,0.1-4.5c-1.5-6.2-2.9-12.5-4.9-18.6c-0.2-0.5-4.3,0.2-7.2,0.5c-0.5-0.6-1.2-1.2-1.9-1.6v-11c-3,0.7-6,1.3-8.9,2
	c-0.7-0.4-1.4-0.8-2.2-1c-7.6-0.8-13.1-6.3-11.7-11.8l7.6-10.5l-2.4-1.5l-6,8.9l-12,14l-2.4-1.4l1.2-0.6c1.7-5.2,3.4-10.3,4.8-15.6
	c0-0.2-4-1.4-6.1-2.1l5-1.1l-4.7-2.2l6.3-11l-10.9,8.4h-4c3.4-4.4,6.8-8.8,10.3-13c1.4,0.8,2.8,1.8,4.1,2.8l4-7.1l-2.7-1.3l2.2-2.8
	l20.1-3l-3.5-5.6l5.7-0.3l1.8,2L773,5l6.5,6.8l0.5,1.4l4.2,6.9l-6.5,3.2l-0.1-0.9l-5.3,4.6c0.1,1.6,0.1,3.3,0.2,4.9l1.8-2.3
	c2.5-1,5-1.9,7.4-2.9c1.4-0.6,2.7-1.3,4.2-1.8c1.1-0.4,2.5-1,3.5-0.7c6.3,2.2,12.5,4.9,18.8,6.9c1.1,0.4,3-1.7,4.5-2.6l9.7-0.2
	l1.7,3l6.6-6.2L836.3,24.7z M789.3,62.1l3.6-4.7l-1.6-1.8l-4.6,3.4l2.6,6.2l1.6-1L789.3,62.1z M798.2,74.2c-0.8-0.8-1.7-1.6-2.4-2.5
	c-0.9-1.1-1.8-2.3-2.8-3.3c-0.1-0.1-1.9,0.9-1.8,1.2c0.2,2,0.1,4.7,1.3,5.9s3.8,0.8,5.8,1.2c1.4-0.4,2.7-0.8,4.1-1.3
	c0.6-0.2,1.2-1.5,1.4-1.4c0.8,0.4,1.5,1,2.1,1.7c2.9,2.9,5.7,5.9,9.8,10c-0.5-8.8-1-15.4-1.2-20.1l-16.8-4c-0.9,1.3-1.4,2.9-1.5,4.5
	C796,68.8,797.4,71.5,798.2,74.2z M810.8,38.1l-3.1-2.3c-4.9,0.6-9.8,0.9-14.5,2.2c-1.4,0.4-2.1,3.8-2.7,5.9c-0.2,0.8,0.7,2,1.1,3
	c0.8-0.5,1.9-0.8,2.4-1.5c1.1-1.7,2.1-3.4,3-5.1l1.2,0.5l-0.8,4.6l3.1,3.1L810.8,38.1z M814.2,60.4l3.2,0.5l5.9-11.4l-3.1,1.2
	l-4.8-7.1C814.9,50,814.6,55.2,814.2,60.4L814.2,60.4z M767,54.8l1.3,0.6l6.4-6c1.9-0.9,2.7-3.1,3.2-5.3c0-0.9-0.5-1.7-1.1-2.3
	c-0.6-0.3-1.3-0.3-1.8,0.1C772.3,46.2,769.7,50.5,767,54.8z M805.3,50.5l13.6-10.7l-2.4-2.2L805.3,50.5z M758.5,13.4l-1.2-0.9
	c-1.4,0.8-3.1,1.4-4.1,2.5c-1,1.3-1.7,2.8-2.2,4.4c0.5,0.5,1.1,0.8,1.7,1.1C754.7,18.2,756.6,15.8,758.5,13.4z M805.7,42.7l-1.3-0.4
	l-2,6.1l1.7,0.5L805.7,42.7z M796.2,49.6l-0.9-0.7l-3.7,4l1.1,0.9L796.2,49.6z"/>
<path class="st0" d="M539.1,184.8c-0.7,5.9-1.3,11.8-1.9,17.7l-2.3-0.4c0.7,1.8,2.3,4.9,2,5.1c-2.4,1.4-4.9,2.5-7.5,3.5
	c-0.1,0-0.2,0-0.3,0c-3.1-0.5-7.3-11.6-6-14.6c0.5-1.2,0-2.6-1.3-3.1c-0.4-0.2-0.8-0.2-1.2-0.2l-6.9-8.4l-1.3-9.1l-2.9-9.4
	c-1.2-2.2,0.8-4.9,1.9-8c0.9-2.5,0.7-5.4,1-8.1l11.9-5.1c0.2,2,0.1,4.2,0.8,6.1c0.6,1.7,2,3.2,3.1,4.8l3.3,3.2c0,0.7,0,1.3,0.1,2
	l-7.6,6.6c6.7,0,13.3-1.1,19.6-3.3c4.1-1.4,7.6-4.3,11.4-6.4c5.3-2.9,13.2,1.1,16.7-7.1c0.9-2.1,5.2-2.7,8-3.9l12.9-4.5l-2.7-2.1
	c0.5-0.4,0.9-1,1.4-1c13.4,0.6,22.6-7.7,32.2-15.2c1.3-1.1,2.6-2.1,3.8-3.2c3-2.7,6.7-5.1,8.8-8.4c1-1.5-1.1-4.9-1.8-7.5
	c12.9-1.3,8.8-13.2,13.1-22c0.3,4.4,0.4,7.1,0.6,9.7c-1.2,1.3-1.8,3.1-1.7,4.9c0.1,1,0.9,2,1.3,3l7-3.9l5,3.1c-0.3,2,0,4.8-1.2,6
	c-2.9,3-6.6,5.2-9.8,8c-0.8,0.6-0.8,2.1-1.2,3.2c1.5,0.1,3.2,0.7,4.5,0.1c2.4-1.1,4.8-2.5,7-3.9c-0.6,1.3-0.8,3-1.8,4
	c-3.3,3.1-6.8,6-10.3,9c-2.7,0.6-5.4,1.2-8,1.8c-2.3,0.6-4.6,1.2-6.9,1.8c1.3,1.5,2.6,3,3.8,4.6c1.9,2.7,3.4,5.6,4.7,8.6
	c1,2.5,1,5.4,1.4,8.1l2.8-0.2l-2.8,5.9l19-8.9c0,1,0.5,2.2,0.1,2.9c-5.5,10.9-13.5,13-23.8,6.4l2.2-2.6l-3.4,0.3
	c1.5-11.2-0.9-13.4-11.4-10.3l0.4-5.8l-6.1,5.8l-2.6,0.7c0.6-1.6,0.7-3.8,1.8-4.9c4.1-3.8,8.5-7.1,12.8-10.7l-3-2.8l-15.4,17.9
	l-2.5,1.2l-1.3,1.8l-13,2.2l4.7,6.8l1.9,2l-3.2,0.1l-1.3,11.2l-0.3,1.1l2.2-0.6l1.2,3.9c-3.1,0.6-5.3,0.8-7,1.6
	c-3.9,2.1-7.6,4.5-11.1,7.3h-8.5c-0.1-1-0.7-1.4-1.3-2.3c-0.4-1.8-0.8-3.6-1.2-5.6c-2.5,2.2-4.3,3.6-5,4.3c1.1,2.1,2.1,3.8,3,5.5
	l-3,1.3c0.6-0.7,1.7-1.4,1.6-2.1c-0.1-1-1.1-2.7-1.5-2.6C557.8,182.7,548.4,183.7,539.1,184.8z M642.8,111.2l1.6,1.8l7-6.3l-1.4-1.6
	L642.8,111.2z"/>
<path class="st0" d="M1242.8,144.1c0.2,0.5,0.4,0.9,0.8,1.2c2.8,1,5.7,1.9,8,4.5l-8.4-2.1l-0.5,1.2c-2.9-0.7-5.8-1.5-8.7-2
	c-0.9-0.2-2.4,0-2.8,0.6c-0.6,1.1-0.8,2.4-0.6,3.6c0.1,0.4,1.7,0.6,2.6,0.8c2.1,0.5,4.2,1.1,6.3,1.6c-3.7-0.1-7.5,0.4-10.9-0.6
	c-5-1.6-9.6-4.6-14.6-6.3c-3.3-1.1-7.1-1-10.7-1.4c-4.4-1.9-8.7-4.6-13.4-5.6c-4.9-1-10.3,0.3-15.2-0.7c-5.7-1.2-11-4-16.6-6
	c-1-0.4-2.3,0-3.4,0.1c0.7,1.1,1.5,2.1,2.4,2.9c4.4,3.5,8.9,6.8,13.3,10.2l-0.8,1c-8.3-6-16.9-11.2-27.9-10.1l-6.1-2.3l0.6-1.7
	l7.5,1.7l-2.8-3.6l2.7-0.4l4.5,2.2l0.5-1.9l-5.1-0.3c-2.6-0.4-5.3-1.2-7.9-1.1s-5.3,1.1-8,1.7c-0.3-0.5-0.7-1.5-1-1.5
	c-6.7,0.2-13.3,0.5-19.9,0.8c-2.4-1.1-4.9-2.1-7.5-2.9c-3.8-1.1-7.8-1.7-11.7-2.7c-5.2-1.4-10.3-3.2-15.6-4.2
	c-1.4-0.3-3.3,1.8-5,2.9c0.9,0.9,1.6,2,2.2,3.1c0.4,1.5,0.6,3,0.7,4.6c-0.8-1.3-1.3-3.3-2.5-3.8c-4.8-2.1-9.7-3.8-14.6-5.7
	c0.8-0.1,1.7-0.3,2.5-0.6c1.4-0.6,2.7-1.3,4.1-2c-1.4-0.5-2.7-0.9-4.2-1.2c-3.8-0.7-7.7-1.4-11.5-2c-2-0.3-4-0.3-6-0.5
	c1.3,1.1,2.6,2.1,3.8,3.2c0.5,0.5,0.9,1.1,1.2,1.8c-4.8-1.3-9.6-2.3-14.3-3.9c-2.6-0.8-4.9-2.5-7.3-3.7l4.1,1.3l11.9-1.5
	c-3.6-0.6-6-1.1-8.5-1.5s-5-0.6-7.5-0.9l-6.3-2.5l-39.1-15.8l5.1-1.7l-6.8-2.1l4.9-1.2l-7.8-2.5l15.9-0.1l6.5,3.1
	c8.7,2.6,17.5,5,26.2,7.8c5.5,1.8,10.8,4,16.1,6.2c0.7,0.3,1,1.7,1.5,2.5l-6.6,0.9l19.1,5.3l5.2-4.3c12.5,2.6,24.9,5,37.4,7.7
	c10,2.2,20,4.6,30,6.9c-0.2,0.1-0.4,0.1-0.6,0.2c0,0.1-0.1,0.2-0.1,0.3l9.3,0.9l12.8,3l24,4.6c16.7,3.1,33.3,6.2,50,9.4
	C1226.1,140.6,1234.5,142.4,1242.8,144.1z M1089.6,123.4l-0.2,1.3l8.8,0.8c0-0.4,0.1-0.8,0.1-1.2L1089.6,123.4z"/>
<path class="st0" d="M531.5,160.8c0-0.7,0-1.3-0.1-2l4.8-11.6l-2.4-1.3l-5.7,9.7c-1-1.6-2.5-3-3.1-4.8c-0.7-1.9-0.5-4.1-0.8-6.1
	c14.3-2.8,21.4-15.9,32.8-22.6c3.8-2.2,8.7-4.4,12.9-4.1c13.9,1.1,24.7-5.5,35.8-12l7.6-4.5l2.3,8.9l0.8-1.6c4.1-1.5,6-2.2,7.9-3
	c0.8-0.3,1.5-0.8,2.2-1.1l0.2,2.6c-1.6,1.6-3.1,3.2-4.5,5c-0.7,1-0.6,2.6-0.8,3.9l2.7,2l4.4-7.1l4.5-6.3h1.2c0.7,2.6,2.7,6,1.8,7.5
	c-2.1,3.3-5.7,5.7-8.8,8.4c-1.2,1.1-2.5,2.2-3.8,3.2l-1.1-2.7l-17.7,13.6c0.2-2,0.6-3.2,0.2-3.6c-0.9-0.9-2.7-2.2-3.2-1.9
	c-4.6,2.9-8.9,6.5-13.7,9.1s-10.2,4.3-15.4,6.4c-7.5,2.6-15,5-22.4,7.8C544,155,537.8,158,531.5,160.8z"/>
<path class="st0" d="M573.3,181.1c0.6,1,1.2,1.3,1.3,2.3h8.5c4.5,3,8.5,4.9,10.6-2.7c0.3-1.1,3.6-1.4,5.5-2c2.5-0.7,5.1-1.4,7.6-2.1
	c0.6-0.3,1.1-0.8,1.5-1.2l1,3.8c0.7-3.8,1.1-6.5,1.6-9.3l-2.3,1.2c1.4-2.2,3.1-2.4,4.8-2.5s3.2-0.1,5.5-0.2
	c-2.9-1.4-4.5-2.4-6.1-3.2c0.3-0.5,0.5-1.1,0.6-1.6h4.2c-5.5-3-10.8-5.8-16.2-8.8c0.7-1.3,1.6-2.5,2.6-3.6c1.6-1.2,3.3-2.3,5-3.3
	c0.4-0.6,0.9-1.2,1.3-1.8l5.1,1.3c3.9,6.9,13.1,12.3,6,22.3c-0.5,0.8,1.5,3.3,2.1,5c0.5,1.6,1.3,3.6,0.8,4.9
	c-2.8,6.3-6.1,12.4-8.8,18.6c-0.8,1.7-0.4,3.9-0.6,7.5l-2.8-5.6l-1,6.3l0,0l-2.3,1.9l3,5.3c-2.8,0.7-5.5,1.4-8.3,2.2
	c-0.9,0.3-1.8,0.8-2.3,1.6c-0.4,0.6-0.2,1.6-0.4,3.8l-8.6-4.7l-1,7.1c-1.5-0.2-4.8,0.1-5.5-1.1c-1.5-2.6-1.7-5.9-2.2-8.9
	c-0.9-4.5-1.7-9-2.4-13.6c-0.4-2.6-1-5.3-0.5-7.8c1.4-7.4-1.1-7.7-6.4-4c-0.7,0.5-1.8,0.6-4.6,1.4C571,186,572.1,183.6,573.3,181.1z
	"/>
<path class="st0" d="M634.5,104.7h-1v-7.1c-2,3.4-2.9,6.5-4.1,9.6c0.4-6.5,0.7-13.1,1.2-19.6c1.3-1.3,2.6-2.6,3.9-3.8
	c-0.6,1.7-1.6,3.3-1.8,5c-0.2,1.5,0.4,3.1,0.6,4.7c1.1-0.7,2.8-1.1,3.3-2.1c1.6-3.7,2.8-7.5,4.2-11.3c12.3-8.6,24.5-17.3,36.8-25.8
	c5.8-3.9,11.9-7.3,17.9-11l3.4,3.7l3-0.2c-0.8,1.5-1.4,2.5-1.9,3.5s-0.9,2-1.2,3c-0.3,1.3-0.4,2.5-0.5,3.8c-0.2,1.9-0.2,3.8-0.3,5.6
	l-2.3,5.4l-4-0.7l-2.1,7l-3,0.9c-0.2-0.8-0.8-2.1-0.6-2.2c1.5-0.8,3-1.5,4.6-2.1c-2.7-0.5-5.5-1.3-5.7-1c-1.1,2.3-1.8,4.8-1.9,7.3
	c0.1,3.3,1,6.5,1.6,9.8l-1.4-0.2L680,77l-1.3,11.8l0,0l-0.8,0.7l-5.5,1.9L675,85l-3.8-2.5l8.5-7.2c-3.7,0.9-5.5,0.9-6.5,1.7
	c-6.6,5.3-13.1,10.8-19.4,16.4c-2.3,2-4.1,4.6-6.1,6.9c-0.5-1-1.3-2-1.3-3c-0.1-1.8,0.5-3.5,1.6-4.8c-0.2-2.7-0.2-5.3-0.5-9.7
	C643.2,91.5,647.5,103.4,634.5,104.7z"/>
<path class="st0" d="M854.1,37.3c2-1.6,9.6,2.1,5-5.5c10.4-1.3,20.7-3.2,31.1-3.8c14-0.8,26.9,2.4,38.5,10.8
	c1.2,0.8,2.8,1.2,3.8,1.8v1.2c0,3.7-1.5,7.3-2.4,11c-0.5-0.7-0.8-1.3-1.3-2l-8.7,4.2c-1.2-1.5-2.5-3-3.7-4.6c-1-0.5-2.3-1.7-2.9-1.4
	c-6.1,3-5.2-1.1-7-5c-1.8-4.1-7.5-9.3-11.3-9.1c-6.6,0.3-13,4.5-19.5,7c-2.4,1.1-5.3,3.7-7.1,3C863.5,43,858.9,39.9,854.1,37.3z"/>
<path class="st0" d="M512.4,149.7c-0.3,2.7-0.1,5.6-1,8.1c-1.1,3-3.1,5.7-1.9,8l2.9,9.4l-3.9-5.5l-5.5,11.8l-3-1.9l-1.9,3.3l4.2,2.4
	c-3,1.7-5.9,3.5-9,4.9c-1.3,0.6-3,0.2-4.6,0.2c0.3-1.3,0.7-2.6,1.1-3.8c0.6-1.3,1.3-2.5,2-3.7l5.3-6.6l4.4-6c0-0.1-1.2-1.8-0.7-2.4
	c2.1-3.1,4.7-5.9,7.1-8.9c0.5-0.6,0.8-1.3,1.1-2c-0.2-0.5-0.5-0.8-1-1c-0.8,0.2-1.5,0.6-2.1,1.2c-2.7,2.9-6.3,5.4-7.7,8.9
	c-1.7,4.1-14.5,3.8-5.5,11.9l2.7-0.7l-3.8,5.6c-1.5-1.7-3-3.5-4.7-5.1c-0.7-0.6-1.6-1-2.6-1.1c-1,1.5-2.2,3.2-2.5,4.9
	c-0.1,0.9,1.8,1.9,2.3,3.1c0.9,1.9,2.5,5.2,2,5.6c-2,1.5-4.4,2.4-6.8,2.7c-4.3,0.5-9.2,5.2-12.6-1.2c-1.2-2.3-2.5-6.9-1.5-7.8
	c7-5.9,14.7-11.1,22-16.6s14.8-11.4,22.3-17C510.2,149.8,511.4,149.9,512.4,149.7z"/>
<path class="st0" d="M722.5,27.9c6.1-1.3,6.6-2.6,7.6,2.4c0.3,1.3,11.8,6.2,13.3,7.3c-0.6,4.5-23.3,9.2-23.6,13.7
	c-0.1,0.8,1.5,1.8,2.4,2.7c3.1,3.5,7,6.5,8.9,10.5c3.2,6.5,5.5,13.6,8.5,23.2v-7.8c0,4.8-1,9.6-1.6,14.8c-1.3-0.3-0.2-0.1,2.8,0.6
	l-6,0.6l-2.5-0.1l-0.7-0.5l2.7-1.5l-3.5-3.1c-1.1-4.3-2.2-8.7-3.4-13c-1.8-6.4-3.6-12.9-5.8-19.2c-0.3-1-2.5-1.4-3.9-2.1
	c0-0.3,0.3-0.5,0.3-0.8c-2-0.7-4.4-1.4-4.4-1.6v11.3c-5-1.1-9.1-2.2-13.6-3.3c2.4-3.5,4.7-7.1,6.5-9.7c-0.8-2.5-2.4-4.7-2-6.6
	C705.5,39.5,721,34.1,722.5,27.9z M708.5,50.4c7-6,7-13.5,0-17.6V50.4z"/>
<path class="st0" d="M779.8,13.3l-0.5-1.4L772.7,5L772,4.5l7.1-0.1l1.2-0.1L800.7,9c0.2,0,0.4,0,0.6,0l18,6.7
	c5.5,2.5,11,4.9,16.4,7.4c0.4,0.2,0.4,1.1,0.7,1.6l-5.7,0.6l-8.3,3.2l-9.7,0.2l-27.6-11.5l0.4-1.1L779.8,13.3z"/>
<path class="st0" d="M539.1,184.8c9.4-1,18.7-2.1,28.1-2.9c0.5,0,1.4,1.7,1.5,2.6c0.1,0.6-1,1.4-1.6,2.1c-1.7-0.6-3.4-1-6.5-2
	c2.2,3.3,3.9,5.9,6.3,9.9h-6.7c1.2,0.8,2.3,1.8,3.3,2.7c-1,0.6-1.9,1-1.2,0.6c-1.3,4.2-2.2,7-3.1,9.9l-4.8-2.6
	c-2.3,0.3-4.6,1.2-5.1,0.6c-2.2-2.6-4.2-5.3-6-8.1l4.3-2.5L539.1,184.8z"/>
<path class="st0" d="M610.9,206.4l1-6.3l2.8,5.6c0.2-3.6-0.1-5.8,0.6-7.5c2.8-6.3,6.1-12.3,8.8-18.6c0.6-1.3-0.3-3.3-0.8-4.9
	c-0.6-1.8-2.7-4.3-2.1-5c7.1-10-2-15.4-6-22.3l4.3-1.4l13.1,27.6c-1.1-0.9-2.9-2.6-4.9-4.1c-0.7-0.5-2-1.2-2.3-0.9
	c-0.7,0.9-1.3,1.8-1.8,2.9c0.8,0.3,1.6,0.6,2.4,1.1c1.4,1.1,3,2.2,3.9,3.8c0.4,0.7-0.6,2.5-1.4,3.4c-3.2,4-7,7.6-9.8,11.8
	c-1.2,1.8-0.5,4.9-0.7,7.4c1.7-0.8,3.3-1.8,4.8-3c0.8-0.8,0.8-2.5,1.5-3.5c0.9-1.1,1.9-2.2,3-3.1c0.8,1.1,2.1,2.1,2.2,3.3
	c0.4,3.4,0.1,6.8,0.4,10.2c0.3,1.2,0.7,2.4,1.3,3.5l-3.2,6.4l-12.6-3.4l-3.8,4.3l-3-5.3L610.9,206.4c0.2,0.9,0.6,1.8,1,2.6
	c0.6,0.1,1.1-0.1,1.6-0.4c0.2-0.9,0.3-1.9,0.2-2.9L610.9,206.4z"/>
<path class="st0" d="M739.5,79.9v7.8c-3-9.6-5.2-16.8-8.5-23.2c-2-4-5.9-7-9-10.5c-0.8-0.9-2.4-1.9-2.3-2.7
	c0.3-4.5,1.1-8.9,1.7-13.4l17,0.9c2.1,0.7,6.2,1.9,6.1,2.1c-1.3,5.2-3.1,10.4-4.8,15.6c1-7-2.8-11.7-8.6-15.4l3.5,5.8l-6.1-5.7
	l-0.6,0.5l6.7,8.4l-1.5,5.4c-1-2-1.9-4.2-3-6.2c-0.5-0.7-1.3-1.3-2.2-1.5c-0.6,0.2-1.1,0.7-1.3,1.3c0.2,2.3-0.1,5.6,1.2,6.7
	c3.8,3,8.3,5.1,12.5,7.6c0.4,3.8,0.8,7.7,1.2,11.5c-0.6-0.8-1.4-1.7-3.1-3.9C739,74,739.4,77,739.5,79.9z"/>
<path class="st0" d="M630.4,87.5c-0.4,6.5-0.8,13.1-1.3,19.6l-0.5,0.8l-1.8-0.7l-0.2-2.6c-0.8,0.4-1.5,0.8-2.2,1.1
	c-1.9,0.8-3.8,1.4-7.9,3l-0.8,1.6l-2.3-8.9L630.4,87.5z"/>
<path class="st0" d="M932.5,41.8v-1.2c4,1.7,7,3,9.9,5.2c9.6,7.3,19.2,14.9,28.5,22.6c7.5,6.2,14.9,12.7,22.3,19.1l-6.5-3.1
	l-13.3-8.9c-2.7-2.8-5.3-6-8.3-8.4C954.4,58.5,943.5,50.2,932.5,41.8z"/>
<path class="st0" d="M722.5,27.9c-1.5,6.1-17.1,11.5-18.2,17.7c-0.3,1.9,1.2,4.1,2,6.6l-6.7,9.7l-1.8,0.6c0.1-1.9,0.2-3.8,0.3-5.6
	c0.1-1.3,0.2-2.6,0.5-3.8c0.3-1,0.7-2,1.2-3s1.1-2,1.9-3.5l-3,0.2l-3.4-3.7L722.5,27.9z"/>
<path class="st0" d="M748,11.4l-2.1,2.8l2.7,1.3l-4,7.1c-1.3-1-2.7-1.9-4.1-2.8c-3.6,4.2-6.9,8.6-10.3,13l-3.1-2.4l6.1-9.2L722.5,28
	c3.2-2.6,6.2-5.5,9.6-7.8c4.7-3.1,9.7-5.9,14.5-8.7L748,11.4L748,11.4z"/>
<path class="st0" d="M748,11.4h-1.3c6.3-3.8,12.5-7.8,19-11.2c1.2-0.6,3.8,1.4,5.8,2.2l-1.3,0.1l-5.7,0.3l3.5,5.6L748,11.4z"/>
<path class="st0" d="M640.7,79.9c-1.4,3.8-2.6,7.7-4.2,11.3c-0.4,1-2.2,1.4-3.3,2.1c-0.2-1.6-0.8-3.2-0.6-4.7c0.4-1.7,1-3.4,1.8-5
	L640.7,79.9z"/>
<path class="st0" d="M1054.8,105.9l-5.2,4.3l-19.1-5.2l6.6-0.9l14.4,1.6C1052.6,105.8,1053.7,105.8,1054.8,105.9z"/>
<path class="st0" d="M734.2,32.8l10.8-8.4l-6.3,11L734.2,32.8z"/>
<path class="st0" d="M722.5,27.9l10.7-6.8l-6.1,9.2L722.5,27.9z"/>
<path class="st0" d="M1167.8,129.6l-24-4.6L1167.8,129.6z"/>
<path class="st0" d="M800.7,9l-20.3-4.7L800.7,9z"/>
<path class="st0" d="M502.3,185.2l-4.2-2.4l1.9-3.3l3,1.9L502.3,185.2z"/>
<path class="st0" d="M491.5,182.8l3.8-5.6l1.9-0.9l-5.3,6.6C491.7,182.9,491.6,182.9,491.5,182.8z"/>
<path class="st0" d="M770.2,2.5l1.3-0.1l7.6,2.1L772,4.6L770.2,2.5z"/>
<path class="st0" d="M1130.9,122l-9.3-0.9c0-0.1,0-0.2,0.1-0.3c0.2-0.1,0.4-0.2,0.6-0.2L1130.9,122z"/>
<path class="st0" d="M857.9,31.7l-6.3-5.2L857.9,31.7z"/>
<path class="st0" d="M1127.8,131.4c2.7-0.6,5.3-1.6,8-1.7s5.3,0.7,7.9,1.1l0,0l-2.7,0.4l2.8,3.6l-7.5-1.7l-0.6,1.7l6.1,2.3
	c0.2,1.3-0.2,3.2,0.5,3.7c5.4,3.7,10.9,7.3,16.6,10.6c3,1.7,6.3,2.7,9.5,4h0.5l-2.3,3.9c-9.6-3.3-10.4,4.3-12.7,10.2
	c0.2,2.1,0.4,4.2,0.6,6.2c0,0.6,0,1.2-0.1,1.9l-2.3,4c-11-1.9-22.1-3.5-33-6c-5.5-1.3-15,1.6-14.4-10.1l-3.6,1.7
	c-1.5-0.3-4-0.3-4.2-1c-1.4-5-2.3-10.2-3.4-15.3c2.2-5.9,8.8-7,13.2-2.4c1-0.6,2.3-1.9,3-1.7c6.5,2.4,14.9,3.2,18.8,7.9
	c7.9,9.3,15.6-0.4,22.8,3l1-2.4l-13.7-8.6c-0.3,1.5-0.1,3,0.7,4.3c0.4,0.7,0.6,1.5,0.7,2.2c-0.4,0.5-0.9,0.7-1.5,0.7
	c-3-1.8-6.1-3.5-8.9-5.6c-3.9-2.8-7.7-5.8-11.5-8.8l-1,1.2l3.2,3l-1,1.9l-18.9-8.3c-0.2,0.7,0,2.2-0.7,3c-4.3,4.2-7.2,3.6-9.2-2.5
	v6.1c-0.9,3.7-1.4,7.5-1.4,11.4c-0.1,3.6,0,6.8-5.2,5.8c-1.4-0.3-3,0.4-5.4,0.7c2,1.1,3,1.3,5.6,3.3h-9.6c3.2,2,5.9,4.6,9.6,7.5
	c-3.1,0.7-5.4,1.1-8.2,1.7c8.7,4.8,0.6,4.4,0.6,6.8l-2.9,8.2c-0.2-0.2,1.5,1.4,1.3,1.8c-1.9,2.8-4.1,5.3-6.2,8
	c-1.4-1.8-3.3-3.5-4.1-5.6c-1.7-4.6,3.9-11.7-4.9-13.9l0.7-1.7l-7.1-5.1l6.8-6.1c-3.9-2.1-3.9-2.1-1.4-3.9l-8.2-10.4l-3.6,4.5
	l3.4,2.4l-2.1,0.8l1.9,7.9l-16.2-2.9l-5.9,2.1c4.7,1.3,8.4,1.8,11.3,3.4c1.9,1,2.8,3.9,3.3,6.8c-0.1,4.9,1.3,9.4-6.2,6.4
	c-3.5-1.4-6.8-3.4-10.2-5.1c3.9,4.2,7.6,7.9,11.3,11.9c-0.8,0.6-1.5,1.6-2.3,1.6h8.7c0.1,2,0.1,3.4,0.2,4.9c-4.6,0.4-9.1,1-13.7,1.2
	c-0.2,0-0.5-1.9-1.2-4.8c-5.8,0.6-12.1,1.4-19.8,2.2c1.2-3,3-6,3.6-9.2c0.3-1.8-1.1-3.9-3.8-5.2c0,6.5,0,13,0,19.6
	c0,2.1-0.2,4.2-0.7,6.2c-0.2,0.9-1.5,1.6-2.4,2.3c-0.5-0.9-1.2-1.6-1.9-2.3c-1.6-0.9-3.3-1.7-5-2.4c-0.6-0.3-1.7,0.1-2-0.3
	c-2.1-2.5-4.7-4.9-5.9-7.9c-0.9-2.1,0.1-4.9,0.3-7.4l-5.1,7.8l-2.7-7.3l-1.2,3.4l-4.5-11c-0.9,2.9-1.4,5.5-2.5,7.8
	c-0.4,0.8-2.6,0.7-3.9,1.1c-0.9-7.2-6.6-4-10.5-5.3c-2.7-0.8-4.8-3.5-6.8-5.1c0,0.2-0.2,1.6-0.5,4.2l-5.7-5.3l-10.3,7.7l0.2,0.4
	l-1.2,1c-0.6-1.1-1.3-2.2-2.1-3.3c-1.1-1.3-2.4-2.4-3.8-3.2c-1.6-0.7-3.5-0.6-5.8-0.1c7.1,2.3,9.5,6.8,7.4,13.4
	c-0.7,2.1-2.2,3.9-3.4,6l1,3.4c-2.5-0.1-5-0.2-7.5-0.4c-0.9-0.1-2.4-0.8-2.7-0.5c-5.9,8-5.8-2.6-8.9-2.9l0.6-5.4l-1.6-0.8l1.6-1.7
	l-4.6-7.2c-0.8-0.1-2.1-0.2-3.4-0.2c-0.9-0.1-1.9-0.1-2.8-0.1c0.3,0.8,0.6,1.6,0.8,2.4c0.5,2,0.9,4,1.4,6c-1,0.2-2.8,0.7-2.8,0.5
	c-0.8-1.8-1.4-3.7-2-5.6l-3,1.2l-0.1,1.3l-10.3,1.2c0.4-2.6,0-5.6,1.3-7.5c1.6-2.5,4.5-4.2,8.4-7.6l-6.4,2.5l-0.7-4.8l3-2.1
	l-7.9-3.9l6.7-5l-5-1.2c-0.6-1.7-1.2-3.4-1.9-5c-0.6-0.1-1.3,0.1-1.8,0.5c-0.3,1.3-0.6,2.6-0.7,3.9l-6.2,3.4l6.2,3
	c-0.1,0.6,0,1.5-0.3,1.8c-3.6,2.5-7.3,4.9-10.1,6.8c1.3,1.9,3.4,3.7,4,6c0.3,1.2-1.8,3.1-2.6,4.4l4.6,4.3l-2.8,1.5l4.7,2.4
	c-1.6,2-3.2,4.1-4.9,6.1c-0.5,0.6-1.6,0.8-1.7,1.4c-0.2,0.9,0,1.8,0.5,2.5c0.6,0.6,1.4,1.1,2.2,1.4c-1.1,0.5-2.2,1.5-3.3,1.4
	c-1.8-0.4-3.6-0.9-5.2-1.7c0.5-0.8,1-1.6,1.6-2.3c0.4-0.6,0.9-1,0.5-0.6c-2.3-0.7-5.1-1.1-7.3-2.4c-0.8-0.5-0.4-3.2-0.6-6.2l-9.2-4
	c-0.8-5.2-1.3-9-2-12.8c-0.4-0.5-0.9-0.8-1.5-0.7c-0.8,0.4-1.5,1-2,1.9c-1.6,3.8-2,8.9-4.8,11c-3.1,2.3-8.3,1.8-12.8,2.6
	c-0.4,9.8-4.3,14.7-11.5,13.6l-1.2-4.6l-3.1,4.4l-3.3-0.4l4.6-6.4c1.9-2.6,6-6.4,5.4-7.5c-4.4-7.9-9.8-15.3-15-22.9l-0.8-0.8
	l-15.1-12.1l-7.5-1.1l3-3.7l15.8-26c-0.5-1.1-1.1-2.1-1.8-3.1c-1.7-1.7-3.5-3.2-5.3-4.8l-1-2.6l3.1-4.6l6.5-9.4l1.1-3.8l5-7l4.9,3.5
	l2-4.4c2.5-1,5.6-1.3,6.7-2.9c1.8-2.8,2.4-6.5,3.4-9.8c0.9-3,1.8-6,3.2-10.9c0.2,3.3,0.3,5.1,0.6,6.9c0.3,1.3,0.8,2.6,1.3,3.8
	c0.6-1.3,1.1-2.7,1.5-4.1c0.1-0.8,0.2-1.6,0-2.4H842c-0.5,0.7-1.1,1.4-1.8,2l-5.2,2.2c4.8,5.8,4.2,15.5,13,19.4
	c1.3,0.5,2.7,0.9,4.1,1.1l6.6,1.6l3.6,6.1l2.7,2.1c-0.1,4.3-13.5,8.3-0.3,13c0.2,0.3,0.3,0.6,0.2,0.9c-1.8,4.8-3.6,9.5-5.4,14
	l8.7,14.2l-0.5-5.4c5,6.3,17-2.8,19.4,7.6c2.5,1,5.1,1.9,7.7,2.6c2.4,0.4,4.9,0.7,7.3,0.8c3.3,0.3,6.6,0.2,9.8,0.9
	c3.3,0.8,6.5,1.8,9.7,3c0.2-2.4,0.4-4.8,0.6-7.2l-1.4-3.6l1.4-2.1l1.1-1.8l1.3-0.7l3.3-2.6c-1.5-2-2.9-4.3-4.8-5.9
	c-0.8-0.7-2.9-0.1-4.4,0l1.3,2.8c-0.1,0.4-0.1,0.8-0.2,1.2l-4.3-2.9l6.5-13.4l2.1,1.3l-4.8-13.9h0.3h0.3c1.8,5.5,3.4,11.1,5.5,16.6
	c0.6,1.7,2.4,2.9,3.7,4.3l3.2-4.6c-0.4,3.4-0.7,6-1,8.5c3.5-3.3,5-7.2,6.8-11.1c1-2.1,2.2-4.1,3.5-6.1c0.6-0.7,1.4-1.2,2.2-1.6
	l-2.8-1.4l0.6-1.2l5.2-2l0.6,1.3c-0.6,1.5-1.4,3-2.2,4.4c-1.1,1.4-2.2,2.7-3.4,4l7.5,1.1l0.6,2.5l8.9,7l-1.3,2.6l-4.4-5.4
	c-0.2,2.4,0.2,4.5-0.5,5.1c-1.5,1.2-3.6,1.5-5.5,2.1c-0.5-2.5-1-5-1.4-7.5c-0.1-1.1-0.1-2.2-0.1-3.4l-1.1,0.3l-3.7,9.1l3.7,9.1
	l-2.8,2.6c2,0.3,3.9,1.1,4.3,0.6c1.8-2.4,3.3-5.2,4.9-7.8c0.6-0.9,1.2-2.2,2.1-2.5c2.3-0.4,4.6-0.7,6.9-0.9c2.1-0.3,4.1-0.6,6.2-0.9
	l0.3,1.4l-7.3,4.2c3.7,0,7.4-0.9,10.7-2.6c2.1-1,3.9-2.7,6.1-3.5c1-0.3,2.7,0.7,3.7,1.5s1.4,2.2,2.1,3.3l0.5-2.3
	c3.2,1.1,6.7,2.8,10.2,3.2s7.5-0.4,11.3-0.6c-1.4-1.7-3.3-1.6-4-2.4s-0.1-2.6-0.1-3.9l2-0.1l-0.8-4.4l6.9-2.1
	c0.1,1.4-0.5,4.2,0.5,5.1s3.9,0.2,5.9,0.2l0.6-1.7c-1-0.4-2-0.9-3-1.3c0.3-0.5,0.4-1,0.5-1.5h8.3c5,2,10.1,3.3,15,5.3
	c1.9,0.8,3.2,2.9,4.8,4.3c-1.8,0.7-3.5,1.4-5.2,2c-1.4-0.3-2.8-0.4-4.3-0.4c-0.7,0.3-1.3,0.8-1.5,1.5c1.2,2.2,2.3,5.6,4,6
	c2.2,0.6,5-1.3,7.6-2.1c2.4-4.9,5.3-7.6,10.3-2.7c0.4,0.4,1.6,0.1,2.4,0.1l0,0l3.2,1.5l2.1,4l1.9-2l-4-2l13.2-9.7
	c-0.1-1.5-0.3-3.1-0.7-4.6c-0.6-1.1-1.3-2.2-2.2-3.1c1.7-1,3.5-3.1,5-2.9c5.3,1,10.4,2.8,15.6,4.2c3.9,1,7.9,1.6,11.7,2.7
	c2.6,0.8,5.1,1.8,7.5,2.9c0.8,0.8,1.7,1.5,2.7,2c7.3,3,14.6,5.9,22,8.7c1.9,0.5,3.9,0.9,5.8,1.1c-1.6-1.3-2.9-3-4.7-3.8
	c-3.8-1.6-7.7-2.8-12.8-4.6L1127.8,131.4z M827.3,140.9l-0.5-3.8c1.7-0.4,3.4-0.8,5-1.3c1-0.3,1.8-0.8,2.6-1.4
	c0.2-0.2-0.3-1.3-0.6-1.9c-1.5-3.1-3.1-6.1-4.9-9.8c-2.6,1.4-5.2,3-7.6,4.7h4.9c0.3,0.7,0.6,1.5,0.9,2.1c-5.6,2.9-11.1,5.7-16.6,8.5
	c1.9,1.1,3.8,3,5.9,3.2C819.9,141.7,823.6,141.1,827.3,140.9L827.3,140.9z M976.3,153.1c-0.4,2-1.5,4.1-1.2,6.1
	c0.4,3.9,1.5,7.7,2.2,11.5c0.2,1.2,0.4,2.5,0.6,3.8c1.7-1.2,3.9-2,5.1-3.6c0.8-1.2,0.6-3.4,0.2-5s-1.5-3.2-2.3-4.8l-0.7,0.1
	L976.3,153.1z M923.2,156.6l-0.5,2l13.2,4.9c-0.3-2.2-0.2-5.5-0.8-5.6C931.2,157.2,927.2,156.8,923.2,156.6L923.2,156.6z
	 M1041.2,146.6c0,1.2,0,2.4,0.1,3.6c3.1-0.2,6.2-0.4,9.3-0.8c0.2-0.7,0.2-1.5,0.2-2.2L1041.2,146.6z M807,157.1l2.3,2.6
	c1.4-1.4,2.7-2.9,3.9-4.5c0.2-0.3-1.5-1.7-2.3-2.7L807,157.1z M839,145.8l-2.3-0.6c-0.7,1.5-1.2,3.1-1.4,4.7c0,0.4,2.1,1,3.2,1.4
	C838.7,149.6,838.8,147.7,839,145.8L839,145.8z M1064.5,167.6l-0.6,1.6l10,4.3l0.7-1.7L1064.5,167.6z M793.3,143.4l0.8,1.9l5.1-1.9
	c-0.3-0.7-0.8-2-0.8-2C796.6,142,794.9,142.7,793.3,143.4z M956.6,161.6c-0.7,2-1.3,3-1.3,4.1c0,0.7,0.9,1.5,1.4,2.2
	c0.7-1,1.4-2.1,1.8-3.3C958.7,164,957.7,163.2,956.6,161.6z M926.9,132.6l1.1-1.2l-4.8-4.4l-1.2,1.4L926.9,132.6z M1011.9,162.4
	l-3-3.5c-0.5,0.6-1.6,1.4-1.5,1.8c0.4,1.2,1.1,2.2,2,3.1C1009.5,164,1010.8,163,1011.9,162.4L1011.9,162.4z M969.6,160.9
	c-1.1,1.6-2,3.3-2.9,5.1c-0.1,0.2,0.8,0.9,1.2,1.3c1-0.8,2-1.7,2.8-2.8C970.9,164.1,970.2,163,969.6,160.9L969.6,160.9z
	 M1017.7,166.8c0-0.7,0-1.3-0.1-2c-1.7,0.3-3.4,0.5-5.1,0.8c0,0.4,0,0.7,0,1.1C1014.2,166.9,1015.9,166.9,1017.7,166.8L1017.7,166.8
	z M794.7,155.2l-1.1,1.5l4,2.4l0.9-1.4L794.7,155.2z M798.6,117.2l1.1-1.3c-0.9-0.8-1.9-1.6-3-2.3c-0.2-0.1-1,0.6-1.5,1L798.6,117.2
	z"/>
<path class="st0" d="M631.2,206.3c-0.6-1.1-1-2.3-1.3-3.5c-0.2-3.4,0-6.8-0.4-10.2c-0.1-1.2-1.5-2.2-2.2-3.3c-1.1,1-2.1,2-3,3.1
	c-0.7,1-0.6,2.7-1.5,3.5c-1.5,1.2-3.1,2.2-4.8,3c0.2-2.5-0.5-5.5,0.7-7.4c2.8-4.2,6.6-7.8,9.8-11.8c0.8-1,1.8-2.8,1.4-3.4
	c-0.9-1.5-2.5-2.6-3.9-3.8c-0.8-0.5-1.6-0.8-2.4-1.1c0.4-1.1,1-2,1.8-2.9c0.3-0.3,1.7,0.4,2.3,0.9c2,1.5,3.8,3.1,4.9,4.1l-13-27.5
	l-0.5-1.4l6.1-5.8l-0.4,5.8c10.5-3.1,12.9-0.9,11.4,10.3l3.4-0.3l-2.2,2.6c10.3,6.7,18.2,4.5,23.8-6.4c0.4-0.8,0-1.9-0.1-2.9
	c0-0.4,0-0.9,0-1.3c-0.1-0.6,0-1.5-0.4-1.8c-1.7-1.2-4.5-2-4.9-3.4c-0.6-2.2,0.6-4.9,1-7.4l-4.7-3.2l20.4-5.8c2.2,2,6.2,3.9,6.4,6.1
	c1.2,12,5.7,5.5,9.9,2.2c0.1-0.1,0.3-0.1,0.5-0.1l-2.2,5.2l-5.6,4.2l1,1.4l7.8-5l2.5-0.7l-1.6,3.4l17.1,2.4c0-0.7-0.1-1.3-0.1-2
	l6,4.1c0,0,13.3-2,2.8,4.7l-1.5,4.2l4.1-0.3c-0.2,1.9-1.2,5.1-0.5,5.6c3,1.7,6.2,3.1,9.5,3.9c2.2,0.6,4.6,0.5,6.9,0.7l5-0.1
	c9.9-3.3,6.8,6.6,9.2,10.8l2.9-15.3c2.1-1,4.2-2.1,6.3-3.2c1.2-0.5,2.4-1.2,3.5-2h-9.8c4.6-3,7.8-4.5,10.4-6.1
	c-0.2-1.4-0.3-0.4,0.1,0.4c1,1.9,1.8,4.5,3.4,5.3c2.2,1.1,5.1,0.8,7.8,1.1l11.4,12.1c1.6,4.8,3.3,9.5,4.8,14.2
	c0.6,1.9,0.5,4.6,1.7,5.7c0.8,0.8,3.5-0.6,6.8-1.2c0.8,2.1,1.8,5.1,3,8c-1.1-0.7-2.3-1.4-3.3-2v7c0,0.6,0.2,1.2,0.1,1.8
	c-4.2-1.9-8.2-3.9-12.4-5.8c0.4-0.7,0.8-1.5,1.2-2.2c-0.7-0.9-1.4-1.8-2.1-2.6c4.7-4.2,1.6-8.1-0.9-11.6c-0.9-1.2-2.8-1.8-4.2-2.6
	c-1,1.6-1.8,3.2-2.6,4.9c-0.5,1.6-1,3.2-1.3,4.8c-1.5-0.9-3-1.9-4.3-3c-0.9-1.2-1.7-2.4-2.3-3.8c-0.6,2.3-1.2,4.6-1.9,6.9l-1.5,3.5
	l-1.5,0.1l0.7,9.8l-9.9-7.9l-7.7,5c-0.1-2.7-0.2-4-0.3-6.1l-7,13.6c-6.5,2-13,4.1-19.5,5.8c-1.2,0.3-3-0.7-4.1-1.6
	c-0.4-0.4,0.5-2.2,0.6-2.3l-5-7.4l6.2-3.5l-0.4-0.8l-4,1.6c2-6.9,0.2-10.5-7.1-8.4c-1.6,0.5-4.2,2.5-4,3.1c0.6,1.9,2.5,3.3,3.4,5.1
	c1,2.3,1.8,4.8,2.5,7.2c-1.5,0.1-2.9,0-4.4-0.2c-4.2-1-8.4-2.1-12.6-3.2l-2.9-0.8l1.3-3.1c-5.5,1.3-11.5,0.8-12.3,9.3
	c-0.2,2.4-5.9,4.5-9.2,6.3c-0.6,0.4-3.2-1-3.1-1.3c0.5-3.5,1.3-6.9,1.9-10.1l-7.6-2.4l-2.8,1.1l-2.9-7.6l-1.7,0.8
	c0.3,3.6,0.6,7.3,0.5,10.9c0,0.3-2.9,0.5-4.9,0.8v-4.6c-3,3.7-6.1,7.2-9.5,10.5c-1,1-3.6,2.2-4.2,1.7
	C633.2,210.3,632.4,208.1,631.2,206.3z M736.6,174c-1.6-0.4-3.8-1.5-4.8-0.9c-2.4,1.8-4.6,3.8-6.5,6.2c-0.3,0.3,0.8,2.5,1,2.4
	c3.2-0.5,6.5-0.9,9.3-2.2C736.6,179,736.3,175.9,736.6,174l4.2-2.4l-2.1-2L736.6,174z M672,160.4c0.9-5.1,1.6-8.9,2.5-13.9
	l-18.1,14.3l1.1,2.3l13.1-5.7L672,160.4z M643.3,192.1l0.7,1.8c2-1,3.9-2,5.8-3.1c-0.1-0.4-0.2-0.9-0.4-1.3L643.3,192.1z"/>
<path class="st0" d="M1170.4,146.2c-4.5-3.4-8.9-6.7-13.3-10.2c-0.9-0.9-1.7-1.9-2.4-3c1.1,0,2.4-0.4,3.4-0.1c5.5,2,10.9,4.8,16.6,6
	c4.9,1.1,10.3-0.3,15.2,0.7c4.6,1,8.9,3.6,13.4,5.6c3,1.6,6.1,3.1,9.2,4.4c8.4,3.1,17,5.7,25.3,9.1c1.2,0.5,1,4.3,1.4,6.5
	c-1.7,0.2-3.4,0.9-5,0.6c-6.5-1.3-12.8-2.9-19.3-4.2c-4-0.8-8.1-1.3-12.2-1.9c-11.1-1.6-15.6,3.5-13.7,15.3c0.1,0.7-1.2,2.4-1.8,2.3
	c-4.9-0.2-9.7-0.7-14.6-1.1l-1.2-1l6-1.9l-4.2-12.9l13.7-3.8L1170.4,146.2z"/>
<path class="st0" d="M1144.9,194.9l-1.1,1.4c-3-0.8-5.9-1.7-8.9-2.4c-0.7,0.6-1.2,1.5-1.2,2.4c0.7,2.3,1.5,4.5,2.4,6.7
	c-9.8-4.9-19.6-9.7-29.2-14.9c-2.1-1.1-3.4-3.5-5.1-5.4c0.6-0.5,1.1-1,1.6-1.6c-1.3-1.8-2.7-3.6-4.1-5.3c0-0.7,0-1.3-0.1-2l19,4.3
	l-9.1,1.8c2.7,1.6,4.9,2.6,6.7,4.1c4.2,3.6,11.4,1.8,11.9-3.5C1134.2,184.7,1145,183,1144.9,194.9z"/>
<path class="st0" d="M1090.5,144.2v-6.1c2,6.1,5,6.7,9.2,2.5c0.8-0.7,0.6-2.3,0.8-3l18.9,8.3c0.3-0.6,0.6-1.2,1-1.9l-3.2-3l1-1.2
	c3.8,2.9,7.6,6,11.5,8.8c2.8,2,5.9,3.8,8.9,5.6c0.6,0,1.1-0.3,1.5-0.7c-0.1-0.8-0.3-1.6-0.7-2.2c-0.8-1.3-1.1-2.8-0.7-4.3l13.7,8.6
	l-1,2.4c-7.2-3.4-14.9,6.2-22.8-3c-3.9-4.6-12.3-5.5-18.8-7.9c-0.7-0.2-1.9,1-3,1.7c-4.4-4.6-10.8-3.5-13,2.4
	C1092.6,148.8,1091.5,146.5,1090.5,144.2z"/>
<path class="st0" d="M1144.9,194.9c0.1-11.9-10.7-10.1-17.2-14.2c-0.5,5.3-7.6,7.1-11.9,3.5c-1.8-1.5-4-2.5-6.7-4.1l9.1-1.8l-19-4.3
	l1.9-6.6l3.6-1.7c-0.6,11.7,9,8.8,14.4,10.1c10.9,2.5,22,4,33,6l-2.1,3.7l0.6,0.4L1144.9,194.9z"/>
<path class="st0" d="M802,195l-3.2-8c-3.2,0.7-6,2-6.8,1.2c-1.2-1.2-1.1-3.8-1.7-5.7c-1.6-4.8-3.2-9.5-4.8-14.2l1.3-0.6l4.3,4
	c-1.4,0.1-2,0.1-0.2,0c4.8,8.3,9.9,17.5,15.2,26.4c0.5,0.9,2.7,0.9,4.1,1.3l1.4,0.7l-4.5,6.4l-8.1-4.6c0-0.6,0-1.2,0.1-1.8l5.1,0.7
	L802,195z"/>
<path class="st0" d="M767.8,186.8l1.9-6.9c0.6,1.4,1.4,2.6,2.3,3.8c1.3,1.1,2.8,2.1,4.3,3c0.3-1.6,0.8-3.2,1.3-4.8
	c0.8-1.7,1.7-3.3,2.6-4.9c1.4,0.8,3.4,1.4,4.2,2.6c2.5,3.6,5.6,7.4,0.9,11.6L767.8,186.8z"/>
<path class="st0" d="M1171.6,175.3l1.2,1l-18.4,1.3c0-0.6,0-1.2,0.1-1.9c2.9-5.5,6.5-6.2,11.5-2.3
	C1167.4,174.7,1169.7,174.8,1171.6,175.3z"/>
<path class="st0" d="M1136.1,203.1c-0.9-2.2-1.7-4.5-2.4-6.7c0.1-0.9,0.5-1.8,1.2-2.4c3,0.6,6,1.5,8.9,2.4L1136.1,203.1z"/>
<path class="st0" d="M879.4,168.8l-6.2-3l6.2-3.4c0.1-1.3,0.4-2.6,0.7-3.9c0.5-0.4,1.2-0.5,1.8-0.5c0.7,1.6,1.3,3.3,1.9,5
	L879.4,168.8z"/>
<path class="st0" d="M1099.3,175.9c1.4,1.8,2.8,3.5,4.1,5.3c-0.5,0.6-1.1,1.1-1.6,1.6L1099.3,175.9z"/>
<path class="st0" d="M810.3,206.9l3.1-4.4l1.2,4.6L810.3,206.9z"/>
<path class="st0" d="M858.7,96.6l-6.6-1.6l8-3.3L845.8,91l-4.4-16.1c2,1.1,4,2.2,5.9,3.4c1,0.8,2,1.8,2.9,2.8c0-0.5,0-1.1,0.1-1.6
	c11.1,1.3,1.8-6.7,4.3-9.4l-1.8-1.5c0.7-0.5,1.4-1,0.3-0.2c-1.1-2.8-1.5-4.5-2.4-6c-1.5-2.3-3.3-4.4-4.9-6.5l-1.9-0.9
	c-0.9-0.6-1.8-1.8-2.6-1.8c-6.5,0.3-15.7-9.3-15-15.3c3.8,0.6,7.6,1.2,11.4,1.7c8.8,1.1,18.5,0.3,26.2,3.8c5.8,2.7,8.5,5.4,11.8-1.6
	c6.5-2.5,12.9-6.6,19.5-7c3.7-0.2,9.4,5,11.3,9.1c1.8,4,1,8,7,5c0.6-0.3,2,0.9,3,1.4l5.8,16.2l-31-14.9l-0.8,1.8l5,2.4l-6.5-0.6
	l2.2,2.6L880,52.2l1.5,2.4l-8.9,6.3c3.6,3.8,8.8,7.8-0.6,10.8c0,1.7,0,3.3,0.1,5l-1.7-0.5c-2.2,1.3-3.3,1.8-4.2,2.5
	c-1.3,0.9-2.5,2-3.8,3c0.5,0.8,1,1.6,1.4,2.4c1.4,2.9,3.2,5.7,4.1,8.7c0.4,1.4-0.7,3.2-1.1,4.9l-2.2-0.2l-0.2,2.4l17.8,1
	c2.1,3.9,4.4,7.7,6.3,11.8c1,2.2,1.4,4.8,2,7.3c0.4,0.9,0.6,2.2,1.3,2.7c2,1.2,4.1,2.3,6.2,3.2c-1.6,0.8-3.2,1.6-4.8,2.5
	c0.1,0.4,0.2,0.8,0.3,1.1c-5,0.9-10.1,1.7-15.1,2.7c-2.4,0.5-4.8,1.4-7.2,1.7c-1.5,0.2-4.5-0.4-4.5-0.8c-0.3-4.1-0.2-8.2-0.2-13.5
	l4.9,6.3c-1.6-4.7-4.5-8.2-7.4-11.8c-0.4-0.5-0.6-1.3-0.4-1.9c0.5-1.1,1.7-1.6,2.8-1.1c0.5,0.2,0.9,0.6,1.1,1.1
	c0.5,1,0.9,2.1,1.2,3.3l1.5-0.6l-5.1-9.9l-2.7-2.1L858.7,96.6z M846.8,84.8c0,0.4,0.1,0.8,0.1,1.2l5.5-1.2l-0.2-1L846.8,84.8z"/>
<path class="st0" d="M740.9,58.4l12.1-14l0.7,3.2c-1.4,5.5,4.1,11,11.8,11.8c0.8,0.2,1.6,0.6,2.2,1l1.7,2.7c-1.4,0.7-3.8,1.2-4,2.2
	c-0.5,2.1,0,4.6,0.1,6.9c1.4-0.8,3.3-1.3,4.2-2.6s0.5-3.2,0.7-4.8c0.9,5.7,0.7,12.3,9.7,10.7c0.7-0.1,1.8,1.8,2.5,2.9
	c4.3,6.7-1.8,8.7-5.3,11.9c-7.5-3-15.1,1.5-20.5,11.8l2.1,2.8l-12.2,2.6l-7-3.2l13.2-0.6v-0.9l-2.9-0.5l-2.5-6.2L759,73.3l-2.1-1.7
	c-2.2,2-5.2,3.7-6.3,6.2c-2.2,4.6-3.3,9.6-4.7,14.5c-0.3,1.6-0.4,3.3-0.3,5c0,1.1-0.1,2.2-0.1,3.3c-1.3-0.2-2.7-0.4-5.2-0.8
	c0.8-0.3,1.6-0.7,2.3-1.2V81c1,0.6,1.9,1.4,2.7,2.3c1.3-2.5,2.6-4.8,4.8-9.1c-3.9,2.2-5.7,3.2-8,4.5c0.1-0.8,0.2-1.7,0.2-2.5
	C741.8,70.3,741.4,64.4,740.9,58.4z M762,88.4h-3.7c0.4,2,0.8,3.8,1.6,8.1C761,92.3,761.5,91.4,762,88.4L762,88.4z"/>
<path class="st0" d="M758.9,104.6c-0.7-0.9-1.3-1.7-2.1-2.7c5.3-10.3,13-14.8,20.5-11.8l13.3-1.3c0,1.5,0,3-0.1,4.5l0.7,1.8l-7,3.2
	l-9.8,1.9l0.5,2.5l8.2-0.7h1.2c3.5,3.4,6.8,5,9.7-0.6h5.1l-6.5,9.4c-3.6-2-7.1-4-10.7-6c-0.1,0.5-0.3,1-0.6,1.4h-18.5
	C761.4,106.4,760.1,105.2,758.9,104.6z"/>
<path class="st0" d="M790.5,88.9l-13.3,1.3c3.5-3.2,9.7-5.2,5.3-11.9c-0.7-1.1-1.8-3-2.5-2.9c-9.1,1.6-8.8-5.1-9.7-10.7l-0.9-1.7
	c-0.6-0.9-1.3-1.8-1.9-2.7c3-0.7,5.9-1.3,8.9-2v10.8c0.7,0.4,1.4,1,1.9,1.6c2.9-0.2,7-0.9,7.2-0.5C787.5,76.4,789,82.7,790.5,88.9z"
	/>
<path class="st0" d="M798.2,74.2c-0.8-2.7-2.1-5.4-2.2-8.1c0.1-1.6,0.6-3.1,1.5-4.5l16.8,4l1.2,20.1c-4-4.1-6.9-7.1-9.8-10
	c-0.6-0.7-1.3-1.2-2.1-1.7c-0.2-0.1-0.8,1.1-1.4,1.4c-1.3,0.5-2.7,0.9-4.1,1.3C798.2,75.9,798.2,75.1,798.2,74.2z"/>
<path class="st0" d="M779.8,13.3l5.8,2.9l-0.4,1.1l27.6,11.5c-1.5,0.9-3.4,2.9-4.5,2.6c-6.4-2-12.5-4.7-18.8-6.9
	c-1-0.4-2.4,0.3-3.5,0.7c-1.4,0.5-2.8,1.3-4.2,1.8c-2.5,1-5,1.9-7.4,2.9l-2-2.7l5.3-4.6l0.1,0.9l6.4-3.2L779.8,13.3z"/>
<path class="st0" d="M875.6,41.9c-3.3,7-6,4.3-11.8,1.6c-7.7-3.6-17.4-2.7-26.2-3.8c-3.8-0.5-7.6-1.2-11.4-1.7
	c-0.7,6,8.5,15.6,15,15.3c0.8,0,1.8,1.2,2.6,1.8c-2.5-0.5-5.1-1-7.6-1.4c-10.2-1.7-9-11.7-13-18c0.8-0.7,1.7-1.4,2.6-1.9
	c8,8,17.5,2.8,26.4,3c0.6,0.1,1.2,0.2,1.8,0.4c4.8,2.6,9.4,5.8,14.5,7.6C870.3,45.5,873.2,43,875.6,41.9z"/>
<path class="st0" d="M810.8,38.1l-10.4,10.3l-3.1-3.1l0.8-4.6l-1.1-0.5c-0.9,1.8-1.9,3.5-3,5.2c-0.5,0.7-1.6,1-2.4,1.5
	c-0.4-1-1.4-2.2-1.1-3c0.6-2.1,1.3-5.5,2.7-5.9c4.7-1.3,9.7-1.5,14.5-2.2L810.8,38.1z"/>
<path class="st0" d="M791.1,95.2l-0.7-1.8c1.5-2.1,2.6-4.7,4.6-6.2c1.3-1,3.7-0.6,5.7-0.8c0,0.2,0,0.4,0,0.6l-3.8,9.5L791.1,95.2z"
	/>
<path class="st0" d="M814.2,60.4l1.2-16.8l4.8,7.1l3.1-1.2l-5.9,11.4L814.2,60.4z"/>
<path class="st0" d="M740.9,58.4l1.3,17.9l-0.6-1.3c-0.4-3.8-0.8-7.7-1.2-11.5l-5.7-13.3l-6.7-8.4l0.6-0.5l6.1,5.7l3.9,10.1
	L740.9,58.4z"/>
<path class="st0" d="M791.1,95.2l5.8,1.3l3.2,1.3l-1.1,3.8h-5.1l-0.8-3.5l-8.9,4.2H783l1.2-3.8L791.1,95.2z"/>
<path class="st0" d="M767,54.8c2.7-4.3,5.3-8.7,8-13c0.5-0.3,1.2-0.4,1.8-0.1c0.7,0.6,1.1,1.4,1.1,2.3c-0.5,2.2-1.3,4.4-3.2,5.3
	l-6.4,6L767,54.8z"/>
<path class="st0" d="M798.2,74.2c0,0.8,0,1.7,0,2.5c-2-0.3-4.6,0-5.8-1.2s-1.1-3.9-1.3-5.9c0-0.4,1.7-1.4,1.8-1.2
	c1,1,1.8,2.2,2.8,3.3C796.5,72.6,797.4,73.4,798.2,74.2z"/>
<path class="st0" d="M845.7,55.9c1.7,2.2,3.5,4.2,4.9,6.5c0.9,1.4,1.3,3.2,2.4,6c1.2-0.8,0.5-0.3-0.3,0.2l-1.7,4.8L845.7,55.9z"/>
<path class="st0" d="M753.7,47.5l-0.7-3.2l6.1-8.9l2.4,1.6L753.7,47.5z"/>
<path class="st0" d="M800.7,86.9c0-0.2,0-0.4,0-0.6c0.6-1.2,1.3-2.4,2.2-3.5c0.8-0.1,1.7,0.1,2.3,0.7c0.2,1.5,0.5,3.3-0.2,4.5
	c-1.1,1.9-2.9,3.5-4.7,5.6C800.4,91.1,800.6,89,800.7,86.9z"/>
<path class="st0" d="M738.6,57l-3.9-10.1l-3.5-5.8c5.8,3.7,9.6,8.4,8.6,15.4L738.6,57z"/>
<path class="st0" d="M805.3,50.5l11.2-12.9l2.4,2.2L805.3,50.5z"/>
<path class="st0" d="M850.2,79.5c0,0.5,0,1.1-0.1,1.6c-0.9-1-1.8-1.9-2.9-2.8c-1.9-1.3-4-2.3-5.9-3.4l-1.2-2.5l1.8-2.1L850.2,79.5z"
	/>
<path class="st0" d="M758.5,13.4c-1.9,2.4-3.8,4.8-5.8,7.1c-0.6-0.3-1.2-0.6-1.7-1.1c0.5-1.6,1.2-3.1,2.2-4.4
	c1.1-1.1,2.7-1.7,4.1-2.5L758.5,13.4z"/>
<path class="st0" d="M786.7,59l4.6-3.5l1.6,1.8l-3.6,4.7L786.7,59z"/>
<path class="st0" d="M822.3,28.5l8.3-3.2l-6.6,6.2L822.3,28.5z"/>
<path class="st0" d="M805.7,42.7l-1.5,6.2l-1.7-0.5l2-6.1L805.7,42.7z"/>
<path class="st0" d="M772.7,5l6.5,6.8L772.7,5z"/>
<path class="st0" d="M796.2,49.6l-3.5,4.2l-1.1-0.9l3.7-4L796.2,49.6z"/>
<path class="st0" d="M786.7,59l2.6,3.1l1.5,2.1l-1.6,1L786.7,59z"/>
<path class="st0" d="M772.2,27.1l2,2.7l-1.8,2.3C772.3,30.4,772.3,28.7,772.2,27.1z"/>
<path class="st0" d="M672.5,125l-20.4,5.7l-0.6-1.3c-0.1-1-0.2-2-0.3-3l-2.3,3.7l1.3,3.8l-3.2-8.1c3.5-3,7-5.8,10.3-9
	c1-0.9,1.2-2.6,1.8-4l4.5-2c-1.4-8.5,3.8-14,8.9-19.5l5.5-1.9l7.6,15.8l-10.5-0.6c1.1,1.2,2.1,2.5,3.3,3.6c2.8,2.7,5.8,5.2,8.7,7.8
	l-6.4-1.6l-5.7,6.7l-5-0.9L672.5,125z"/>
<path class="st0" d="M531.5,160.8c6.2-2.8,12.4-5.8,18.8-8.2c7.4-2.9,14.9-5.2,22.4-7.8c1.7-0.3,3.5-0.5,5.3-0.6c1,0,2,0.9,2.9,1.4
	l-1.2,1.1c-2.8,1.3-7.1,1.9-8,3.9c-3.5,8.1-11.5,4.2-16.7,7.1c-3.8,2.1-7.4,5-11.4,6.4c-6.3,2.2-12.9,3.4-19.6,3.3L531.5,160.8z"/>
<path class="st0" d="M647,125.9l3.2,8l3.7,8.6l7.1,4c0,0.4,0,0.9,0,1.3l-19,8.9l2.7-6.1l-2.8,0.2c-0.4-2.7-0.4-5.6-1.4-8.1
	c-1.3-3-2.9-5.9-4.7-8.6c-1.2-1.6-2.4-3.2-3.8-4.6c2.3-0.6,4.6-1.3,6.9-1.8C641.6,127.1,644.3,126.5,647,125.9z"/>
<path class="st0" d="M601.3,154.6c5.3,3,10.7,5.8,16.2,8.8h-4.2c-0.1,0.6-0.3,1.1-0.6,1.6c1.6,0.8,3.2,1.7,6.1,3.1
	c-2.2,0.1-3.8,0.2-5.5,0.3s-3.4,0.3-4.8,2.5l2.3-1.1c-0.5,2.7-1,5.5-1.6,9.3l-1-3.8c-0.4,0.5-1,0.9-1.5,1.2c-2.5,0.7-5.1,1.3-7.6,2
	c-1.9,0.5-5.2,0.8-5.5,1.9c-2.2,7.6-6.1,5.9-10.6,2.5c3.7-2.4,7.4-4.9,11.3-7c1.7-0.9,4.1-0.8,7.2-1.4c-0.6-1.2-1-2.5-1-3.9v-4.9
	c-1,0-0.9,0-1.2,0c-0.3,1.5-0.8,2.9-1.1,4.4c0.4-3.7,0.8-7.5,1.2-11.2l3.2-0.1c-0.6-0.7-1.3-1.5-1.9-2.1
	C600.9,156,601.1,155.3,601.3,154.6z"/>
<path class="st0" d="M579.7,146.6l1.2-1.1c-1-0.5-1.9-1.4-2.9-1.4c-1.8,0-3.6,0.2-5.3,0.6c5.1-2.1,10.5-3.8,15.4-6.4s9-6.2,13.7-9.1
	c0.5-0.3,2.3,1,3.2,1.9c0.4,0.4-0.1,1.6-0.2,3.6l17.7-13.6l1.1,2.7c-9.6,7.5-18.8,15.9-32.2,15.2c-0.4,0-0.9,0.7-1.4,1l2.7,2.2
	L579.7,146.6z"/>
<path class="st0" d="M672.4,91.4c-5.1,5.5-10.3,11.1-8.9,19.5l-4.5,2c-2.2,1.5-4.6,2.8-7,3.9c-1.3,0.5-3-0.1-4.5-0.1
	c0.4-1.1,0.4-2.6,1.2-3.2c3.2-2.7,6.9-5,9.8-8c1.2-1.2,0.8-3.9,1.2-6l4.4-3.8c0-0.2,0-0.4,0.1-0.6L675,85L672.4,91.4z"/>
<path class="st0" d="M647.7,100.4c2-2.3,3.8-4.9,6.1-6.9c6.3-5.6,12.8-11,19.4-16.4c1-0.8,2.8-0.8,6.5-1.7l-8.5,7.2l-6.5,6.2
	l-1.8,1.3l-8.1,6.5L647.7,100.4z"/>
<path class="st0" d="M612.7,144.8l15.4-17.9l3,2.8c-4.3,3.5-8.7,6.9-12.8,10.7c-1.1,1-1.3,3.2-1.8,4.9L612.7,144.8z"/>
<path class="st0" d="M528.1,155.5l5.7-9.7l2.4,1.3l-4.8,11.6L528.1,155.5z"/>
<path class="st0" d="M601.3,154.9l-0.7,1.9l-4.7-6.8l13-2.2c-1.7,1-3.4,2.1-5,3.3C602.9,152.3,602,153.5,601.3,154.9z"/>
<path class="st0" d="M654.7,96.5l8.2-6.5l-0.9,6.1l2.2-0.3l-4.4,3.8L654.7,96.5z"/>
<path class="st0" d="M642.8,111.2l7.3-6.1l1.4,1.6l-7,6.3L642.8,111.2z"/>
<path class="st0" d="M612.7,144.8l3.8,0.5l2.6-0.7l0.5,1.4l-4.3,1.4l-5.1-1.3L612.7,144.8z"/>
<path class="st0" d="M598.1,170.1c0.3-1.5,0.9-2.9,1.2-4.4c0.3,0,0.2,0,1.2,0v4.9c-1,0.2-1.7,0.4-2.4,0.6
	C598.2,170.9,598,170.5,598.1,170.1z"/>
<path class="st0" d="M947.5,110.4l-0.6-1.3l-5.8,1.5l-5.7-2.6l-15.3-0.3h-0.3h-0.3l-11.9-4.4c-1.2-2-2.7-2-4.1-2.4
	c-3.8-1.2-7.6-2.5-11.4-3.8c0-0.4,0.1-0.8,0.1-1.2l22-5.8l-4.5-2.5l0.3-1l9.4,2.1l4.6-0.6c0-1,0-2-0.1-3.1c1.9,0.9,3.8,1.7,5.7,2.6
	c6.1,1.9,11.8,3.9,18.8,5.9v-5.4c1.2,0.1,2.3,0.3,3.5,0.6c3.7,1.4,7.4,2.9,11.8,4.7c-1.5-3.2-2.5-5.4-3.6-7.6l10.8-1.3l7.8,2.5
	l-4.9,1.2l6.8,2.2l-5.1,1.7l39.2,15.9l8.9,10.8l-8.9-1.3l-8.9-3.2l-5-0.1l-10.2-1.3l-12-0.7l-24-8.9c-0.5,3.5-0.7,5.3-0.9,7
	L947.5,110.4L947.5,110.4z M941.3,95.1l-0.8,2.9l18.5,4.6l0.4-1.6L941.3,95.1z"/>
<path class="st0" d="M1023.7,118.7l-8.9-10.8l6.3,2.5l-4.5-0.5l4.6,3.1c2.4,1.3,4.8,2.9,7.3,3.7c4.7,1.5,9.5,2.6,14.3,3.9l10.1,1.3
	c4.9,1.8,9.9,3.5,14.6,5.7c1.2,0.5,1.7,2.5,2.5,3.8l-13.2,9.7l0,0l-3.2-1.5l3.8-0.9l-0.3-1.4l-5.6-0.7l2.1,3c-0.8,0-2,0.3-2.4-0.1
	c-5-4.9-7.9-2.2-10.3,2.7c-1.6-0.7-3.2-1.4-4.8-2c-0.6-0.2-1.3-0.4-1.9-0.5l0.9-2.6l5.2-2c-1.6-1.4-2.9-3.5-4.8-4.2
	c-4.9-2-10-3.5-15-5.2l-4.9-3.6c1.7-0.1,3.6-0.5,5.2-0.2c3.5,0.8,6.8,2,10.2,3c-0.5-2.1-1.7-2.5-2.8-3.1
	C1026.7,120.9,1025.2,119.8,1023.7,118.7z"/>
<path class="st0" d="M1171.6,175.3c-1.9-0.6-4.2-0.6-5.6-1.8c-4.9-3.9-8.6-3.2-11.5,2.3l-0.6-6.2l12.7-10.2l2.3-3.9l1.4-5.6
	l-0.7-2.6l0.8-1l16.7,10.4l-13.7,3.8l4.2,12.9L1171.6,175.3z"/>
<path class="st0" d="M970.9,84.5l-10.8,1.3l-3.8-0.9l1.4-1.1l-10.2-0.6c0-0.2,0-0.4,0-0.7l1.8-1.8l7.3,3.4l-2.7-4.8l6.7-5.1
	c2.4,1.1,5.7,2.6,9,4c1.3,0.6,2.6,1.1,3.9,1.6c0-1.5,0-3,0-4.4l13.3,8.9L970.9,84.5z"/>
<path class="st0" d="M1169.7,147.3l0.7,2.6c-6.7-3.4-13.2-6.9-20-10c-1-0.5-2.8,0.8-4.3,1.3c1,1.3,1.7,3,3.1,3.8
	c6.4,3.7,12.9,7.1,19.3,10.6c-3.2-1.3-6.6-2.3-9.5-4c-5.7-3.3-11.2-6.9-16.6-10.6c-0.7-0.5-0.4-2.5-0.5-3.7
	C1152.7,136,1161.3,141.3,1169.7,147.3z"/>
<path class="st0" d="M1127.8,131.4l-8,2.8c5.1,1.8,9.1,2.9,12.8,4.6c1.8,0.8,3.2,2.5,4.7,3.8c-2-0.2-3.9-0.5-5.8-1.1
	c-7.4-2.8-14.7-5.8-22-8.7c-1-0.5-1.9-1.2-2.6-2c6.7-0.3,13.3-0.6,20-0.8C1127.1,129.9,1127.4,130.9,1127.8,131.4z"/>
<path class="st0" d="M1052.8,121.9l-10.1-1.3c-0.3-0.6-0.7-1.2-1.2-1.8c-1.2-1.1-2.5-2.1-3.8-3.2c2,0.2,4,0.2,6,0.5
	c3.8,0.6,7.7,1.3,11.5,2c1.4,0.3,2.8,0.8,4.2,1.2c-1.4,0.7-2.7,1.4-4.1,2C1054.5,121.6,1053.7,121.8,1052.8,121.9z"/>
<path class="st0" d="M1021.1,113l-4.6-3.1l4.5,0.5c2.5,0.3,5,0.6,7.5,0.9s4.9,0.8,8.5,1.5l-11.9,1.5L1021.1,113z"/>
<path class="st0" d="M1089.6,123.4l8.7,1c0,0.4-0.1,0.8-0.1,1.2l-8.8-0.8L1089.6,123.4z"/>
<path class="st0" d="M1143.7,130.8l5.1,0.3l-0.5,1.9L1143.7,130.8L1143.7,130.8L1143.7,130.8z"/>
<path class="st0" d="M626.8,107.2l1.8,0.7c0,1,0,2.1,0,3.1l-4.4,7.1l-2.7-2c0.2-1.3,0.1-2.9,0.8-3.9
	C623.7,110.5,625.2,108.8,626.8,107.2z"/>
<path class="st0" d="M628.8,111.1c0-1-0.1-2.1-0.1-3.1c0.2-0.3,0.5-0.5,0.7-0.8c1.3-3.1,2.1-6.2,4.1-9.6v7.2
	C631.8,106.7,630.2,108.8,628.8,111.1z"/>
<path class="st0" d="M675,121.2l5.7-6.7l6.4,1.6l7.2-0.6l-2.7-3.8l3.4-0.5l0.2-1.7l-4.5-0.4l1.2-1.3l-13.2-19.1v0.1l4.5-1.9l1.4,0.2
	l3.4-10.4c-1.5,0.4-0.5,0.4,0.1-0.1c0.6-0.7,1.1-1.5,1.5-2.4l2.1-7l4.1,0.8l2.2-5.4l1.8-0.6l13.3,3.3l6.1,2.1l0.7-3.1l10.9,26.4
	c1.2,1,2.3,2.1,3.5,3.1c-0.9,0.5-1.8,0.6-2.7,1.6H720c3.3,7,4.9,7.4,9.1,2.2c0.2-0.2,1.1,0.1,1.7,0.2c0.4,5.9-3.1,7.6-8.2,7.6
	c-1.7-2.3-3.3-4.9-5-7.2c-8.5-0.5-1.5,7.3-5.1,9.3h-10.9c-0.5,0,0.4,0.9,0.5,1c-1.9,2.7-3.3,4.8-4.8,6.7c1.5,0.6,3.1,1.3,3.6,1.5
	c-1,2.5-2.1,5.1-3.2,7.7c-2.6,1.7-5.2,3.5-7.8,5.1c-2.2,1.4-6.2,4.2-6.4,3.9C680.6,129.5,677.7,125.4,675,121.2z M699.7,84.5
	l-1.9,0.4l2,8.3l1.2-0.3L699.7,84.5z"/>
<path class="st0" d="M678.8,88.8l13.2,19.1l-1.2,1.3l-3.6-0.2l2.6,4.4l1.8-1.7l2.7,3.8l-7.2,0.6c-2.9-2.6-5.8-5.2-8.7-7.8
	c-1.2-1.1-2.2-2.4-3.3-3.6l10.5,0.6L678,89.5L678.8,88.8z"/>
<path class="st0" d="M664.7,88.7l6.5-6.2L675,85l-10.8,10.3C664.4,93.1,664.5,90.9,664.7,88.7z"/>
<path class="st0" d="M689.6,74.2c-0.4,0.9-0.9,1.7-1.5,2.4c-0.6,0.5-1.5,0.5-0.1,0.1l-3.4,10.4c-0.6-3.3-1.6-6.5-1.6-9.8
	c0.1-2.6,0.8-5.1,1.9-7.4c0.1-0.3,3,0.5,5.7,1c-1.6,0.6-3.1,1.3-4.6,2.1c-0.2,0.1,0.4,1.4,0.6,2.2L689.6,74.2z"/>
<path class="st0" d="M683.3,86.9l-4.5,1.9l1.3-11.8L683.3,86.9z"/>
<path class="st0" d="M973.5,75.5c0,1.5,0,3,0,4.4c-1.3-0.5-2.6-1.1-3.9-1.6c-3.3-1.5-6.6-3-9-4l-6.7,5.1L932.2,75l15.7-0.8
	c-9.3-6.8-24.5-4.2-27.8-19.2l8.8-4.2l1.4,2l2.6-11c10.8,8.4,21.7,16.8,32.4,25.3C968.3,69.5,970.8,72.7,973.5,75.5z"/>
<path class="st0" d="M920.1,55c3.2,15,18.4,12.3,27.8,19.1L932.2,75l-4.4-1.9l-12.7-6.6l-8.9-5.6l-10.8-5.1l-5-2.4l0.8-1.8l31,14.9
	l-5.8-16.2L920.1,55z"/>
<path class="st0" d="M497.1,176.3l-1.9,0.9l-2.7,0.7c-9-8.1,3.8-7.9,5.5-11.9c1.4-3.4,5-6,7.7-8.9c0.6-0.6,1.3-1,2.1-1.2
	c0.5,0.2,0.8,0.5,1,1c-0.2,0.7-0.6,1.4-1.1,2c-2.4,3-4.9,5.8-7.1,8.9c-0.4,0.6,0.7,2.4,0.7,2.4L497.1,176.3z"/>
<path class="st0" d="M722.7,105.3c5.1,0,8.6-1.7,8.2-7.6c0.4-0.6,0.8-1.3,1.2-1.9l2.4,0.1v5.3c0,0-1.8-0.1-3.1-0.2
	c-0.1,0.3-0.1,0.7-0.2,1.1l8.5,2l7,3.2l-8.2,0.6h-1.2l-8.3,1.3l-15,1.2l1.4,2.6l-5.7,4.4l2.8,2.6c-0.8,1.2-1.8,2.4-2.5,3.7
	c-0.4,0.6-0.3,1.9-0.8,2.1c-0.9,0.3-1.9,0.4-2.8,0.1c-0.8-0.2-1.9-1.2-2.4-1c-5,2.7-9.8,5.5-14.7,8.3c-0.2,0-0.3,0.1-0.5,0.1l9-8.9
	l3.2-7.7l-3.6-1.5c1.4-2,2.8-4.2,4.8-6.8c-0.1-0.2-1-1.1-0.5-1.1h10.9c2.1-0.1,4.2-0.5,6.2-1c0.7-0.6,1.4-1.2,2.1-1.8
	C721.4,104.8,722,105.1,722.7,105.3z"/>
<path class="st0" d="M739.8,104.1l-8.5-2c0.1-0.3,0.1-0.7,0.1-1.1c1.3,0.1,3.1,0.1,3.1,0.2v-5.3c2-0.1,2.8-0.3,6.1-0.6l-2.6-0.6
	c0.6-5.2,1.2-10,1.8-14.8c-0.3-2.4-0.6-4.9-1.1-8.9l2.9,3.9l0.6,1.3c-0.1,0.8-0.1,1.6-0.2,2.5l8-4.5c-2.2,4.3-3.5,6.5-4.9,9.1
	c-0.8-0.9-1.7-1.6-2.7-2.2v17.5c-0.8,0.4-1.5,0.9-2.3,1.2l5.1,0.8c0-1.1,0.1-2.2,0.1-3.3c-0.1-1.7,0.1-3.4,0.4-5
	c1.4-4.9,2.6-9.9,4.7-14.5c1.2-2.5,4.2-4.2,6.4-6.2l2.2,1.7l-11.5,22.6l2.5,6.2l2.9,0.5v0.9L739.8,104.1z"/>
<path class="st0" d="M730.7,90.7l-10.9-26.4c-0.2,0.9-0.2,2.2-0.4,3.1c-2.2-0.8-4.8-1.4-5.8-2.1V54c0,0.2,2.4,0.9,4.4,1.6
	c0,0.3-0.2,0.5-0.2,0.8c1.3,0.7,3.5,1.1,3.8,2.1c2.2,6.3,3.9,12.8,5.8,19.2C728.5,82,729.6,86.3,730.7,90.7z"/>
<path class="st0" d="M708.5,50.4V32.8C715.5,36.9,715.5,44.5,708.5,50.4z"/>
<path class="st0" d="M732.1,95.9l-1.3,1.9c-0.6-0.1-1.5-0.4-1.7-0.2c-4.2,5.2-5.9,4.8-9.1-2.2h11.4C731.7,95.5,732,95.7,732.1,95.9z
	"/>
<path class="st0" d="M610.9,206.4l2.8-0.8c0,1,0,1.9-0.2,2.9c-0.4,0.3-1,0.5-1.6,0.4C611.5,208.1,611.1,207.2,610.9,206.4
	L610.9,206.4z"/>
<path class="st0" d="M734.7,50.1l5.7,13.3c-4.2-2.5-8.7-4.6-12.5-7.6c-1.3-1.1-1-4.4-1.2-6.7c0.2-0.6,0.7-1.1,1.3-1.3
	c0.9,0.2,1.6,0.8,2.1,1.5c1.2,2,2.1,4.2,3,6.2L734.7,50.1z"/>
<path class="st0" d="M892.1,97c3.8,1.3,7.6,2.6,11.4,3.8c1.4,0.4,2.8,0.5,4.1,2.4l11.9,4.4l4.8,13.9l-2.1-1.3l-6.5,13.4l4.3,2.9
	l3.3,5.1l-1.1,1.9l-3.4-1.4l-7,0.8c0.1,0.9,0.2,1.9,0.2,2.8l6.2-0.8l2.6,0.6l1.4,3.6c-5.9-1.5-11.9-3.1-17.8-4.5
	c-7.8-1.8-9.7-7.9-10.8-14.6l8.8-3.6c-2.2-1.3-4.4-2.7-6.6-4c-1.7-1-3.5-1.8-5.3-2.7c-0.6-2.4-1-5-2-7.3c-1.9-4-4.2-7.8-6.3-11.8
	l-15.4-3.1c0.4-1.7,1.5-3.5,1.1-4.9c-1-3-2.7-5.8-4.1-8.7c-0.4-0.8-1-1.6-1.4-2.4l7.7-1.9l9,4.6l0.6,3.8l0,0L892.1,97z M908.1,134.5
	l-7.3-5.5c0.1,1.8,0.1,3.6,0,5.4c-0.2,1.4-1.4,3.3-0.9,4.1c0.9,1.5,2.8,2.4,4.3,3.5c0.2-1.4,0.6-2.7,1.1-4c0.3-0.7,1.3-1.1,2-1.6
	c0.7,1.5,1.2,3.9,2.3,4.1c1.7,0.4,3.8-0.5,8.6-1.3L908.1,134.5z"/>
<path class="st0" d="M1023.7,118.7c1.5,1.1,3,2.2,4.6,3.2c1.1,0.6,2.3,0.9,2.8,3.1c-3.4-1-6.8-2.2-10.2-3c-1.7-0.2-3.5-0.2-5.2,0
	c1.6,1.2,3.3,2.4,4.9,3.4h-8.3c-0.1,0.5-0.3,1-0.5,1.5c1,0.4,2,0.9,3,1.3l-0.6,1.7c-2,0-4.8,0.8-5.9-0.2s-0.5-3.8-0.5-5.1l-6.9,2.1
	l0.8,4.4l-2,0.1c0,1.4-0.5,3.2,0.1,3.9s2.6,0.6,4,2.4c-3.8,0.2-7.6,1-11.3,0.6s-7-2.1-10.2-3.2l-0.5,2.3c-0.7-1.1-1.2-2.5-2.1-3.3
	s-2.7-1.8-3.7-1.5c-2.2,0.8-4,2.5-6.1,3.5c-3.3,1.7-7,2.6-10.7,2.6l7.3-4.2l-0.3-1.4c-2.1,0.3-4.1,0.6-6.2,0.9
	c-2.3,0.2-4.6,0.5-6.9,0.9c-0.9,0.2-1.5,1.5-2.1,2.5c-1.6,2.6-3,5.3-4.9,7.8c-0.3,0.5-2.3-0.3-4.3-0.6l2.8-2.6l-3.7-9.1l3.7-9.1
	l1.1-0.3c-0.1,1.1,0,2.2,0.1,3.4c0.4,2.5,0.9,5,1.4,7.5c1.9-0.7,4-1,5.5-2.1c0.8-0.6,0.3-2.7,0.5-5.1l4.4,5.4l1.3-2.6l4.4-1.9
	l3.1,2.3l1.4-2.9c0-0.6,0-1.2,0-1.9l2.4-0.4c-0.2,0.8-0.4,1.7-0.6,2.6c1.1,0.4,2.3,1.1,3.3,1c2.4-0.4,4.9-0.9,7.2-1.6l-6-2.8
	l0.9-0.8c-2.4-1.9-4.9-3.7-7.2-5.6c-1.6-1.7-3.3-3.3-5.2-4.6v4.6c-3-0.4-5.9-0.8-8.9-1.3c-1.4-0.2-2.5-0.5-3.9-0.8
	c-0.1,1.6-0.2,3.1-0.2,4.6l0,0c-3-0.4-5.1-0.7-7.5-1.1c1.2-1.3,2.3-2.6,3.4-4c0.8-1.4,1.6-2.9,2.2-4.4h6.2l13.1,2.7l0.3-2.1
	l-13.4-0.6l0.9-7l24,8.9l12,0.7l10.2,1.3c0,0.7,0,1.3-0.1,2l7.2,5.6l0.8-1.3l-3.6-4.2l1.3-0.6l8.2,1.9L1023.7,118.7z M978.1,115.1
	c1.8,14.1,8.4,16.9,20.6,8.6l-8.9-7.8l1.7,5.1L978.1,115.1z"/>
<path class="st0" d="M893.5,130.1c1.2,6.7,3,12.8,10.8,14.6c6,1.4,11.9,3,17.8,4.5c-0.2,2.4-0.4,4.8-0.6,7.2c-3.2-1.2-6.4-2.2-9.7-3
	c-3.2-0.6-6.5-0.6-9.8-0.9c-2.5-0.1-4.9-0.4-7.3-0.8c-2.6-0.7-5.2-1.6-7.7-2.6c-2.4-10.4-14.3-1.4-19.4-7.6l0.5,5.4l-8.7-14.2
	c1.7-4.5,3.6-9.2,5.4-14c0.1-0.3,0-0.6-0.2-0.9c-13.1-4.7,0.2-8.7,0.3-13l5.1,9.9l-1.5,0.6c-0.3-1.1-0.7-2.2-1.2-3.3
	c-0.5-1.1-1.7-1.6-2.8-1.1c-0.5,0.2-0.9,0.6-1.1,1.1c-0.2,0.7,0,1.4,0.4,1.9c2.9,3.6,5.8,7.1,7.4,11.8l-4.9-6.3
	c0,5.3-0.1,9.5,0.2,13.5c0,0.4,3,1,4.5,0.8c2.4-0.3,4.8-1.2,7.2-1.7c5-1,10.1-1.8,15.1-2.7C893.4,129.7,893.4,129.9,893.5,130.1z
	 M892.8,139c-0.8-3.1-1-5.4-1.5-5.5c-1.3-0.2-2.8,0.5-4.2,0.9L892.8,139z M877.9,133.6l-0.6,1.1l3.4,2.1l0.8-1.4L877.9,133.6z"/>
<path class="st0" d="M752.5,160.5l-2.9,15.3c-2.4-4.2,0.7-14.1-9.2-10.8l2.5-5l2.7,0.2l0.2-1.4L741,158l-1.9-10.1c2-0.7,4-1.5,6-2.1
	s4-1.4,6.1-1.9c2.7-0.7,5.5-1.1,8.2-1.6l-0.2-1.6c4.7-1.4,9-2.5,13.1-3.9c0.3-0.1,0-2,0-0.1l16.4-21h0.6l1,2.6l-9.3,16.8
	c1.1,0.7,0.5,0.3-0.1-0.1l2,2.3l-5,1.9l-14.5,0.8c0.2,1.2,0.5,2.4,0.8,3.7c3.7-1,7.4-2.1,11.4-3.2v2.6c-2,1.3-3.7,2.6-5.5,4
	c0.4,0.8,0.8,1.6,1.2,2.4c-0.5,0.7-1,1.3-1.4,2c0.5,0.4,1,0.6,1.6,0.8c3.4,0,6.8,0,10.3-0.1l-3,3.7l7.5,1.1l-12.1-0.6
	c-2.6-0.3-5.5,0-7.8-1.1c-1.6-0.8-2.4-3.4-3.4-5.3c-0.4-0.7-0.3-1.8-0.1-0.4c-2.6,1.6-5.8,3.1-10.4,6.1h9.8c-1.1,0.8-2.2,1.5-3.5,2
	C756.7,158.4,754.6,159.5,752.5,160.5z"/>
<path class="st0" d="M810.2,199.3c-1.4-0.4-3.6-0.4-4.1-1.3c-5.4-9-10.5-18.1-15.2-26.4c-1.8,0.1-1.2,0.1,0.2,0l-4.3-4l-7.6-8.1
	c4.9-0.1,8.6,1.7,12.2,3.6c3.3,1.8,6.6,3.8,9.9,5.6l0.8,0.8c-0.2,0.8-0.9,2-0.5,2.5c3.3,4.7,7.8,8.9,9.7,14.1
	C812.6,189.9,810.7,194.9,810.2,199.3z"/>
<path class="st0" d="M777.9,139l5-1.9l-2-2.3c0.6,0.4,1.2,0.8,0.1,0.1l9.3-16.8c1.8,1.6,3.7,3,5.3,4.8c0.7,0.9,1.3,2,1.8,3.1
	l-15.8,26c-3.4,0-6.8,0.1-10.3,0c-0.6-0.1-1.1-0.4-1.6-0.8l1.4-2l-1.3-2.4l5.4-4L777.9,139z"/>
<path class="st0" d="M920,107.7l15.3,0.3l-1.4,3.2l7.1,1.2l2.8,1.3c-0.8,0.4-1.6,1-2.2,1.6c-1.3,1.9-2.5,4-3.5,6.1
	c-1.8,3.9-3.4,7.8-6.8,11.1c0.3-2.5,0.6-5.1,1-8.5l-3.2,4.6c-1.2-1.4-3-2.7-3.7-4.3C923.4,118.8,921.8,113.2,920,107.7z"/>
<path class="st0" d="M827.3,140.9c-3.7,0.2-7.4,0.8-11,0.4c-2.1-0.2-4-2.1-5.9-3.3c5.5-2.8,11-5.6,16.6-8.4
	c-0.3-0.7-0.6-1.4-0.9-2.2h-4.9c2.5-1.7,5-3.3,7.6-4.7c1.9,3.8,3.4,6.8,4.9,9.9c0.3,0.6,0.8,1.7,0.6,1.9c-0.8,0.6-1.7,1.1-2.6,1.4
	c-1.6,0.5-3.3,0.9-5,1.3L827.3,140.9z"/>
<path class="st0" d="M1168.4,155.5c-6.5-3.5-13-6.9-19.3-10.6c-1.3-0.8-2-2.5-3.1-3.8c1.5-0.5,3.3-1.8,4.3-1.3
	c6.8,3.1,13.4,6.6,20,10l-1.4,5.6L1168.4,155.5z"/>
<path class="st0" d="M789.3,115.5h-0.6c-8.7-2.6-17.2-5.1-26.2-7.6v-1.5h18.6c0.3-0.4,0.5-0.9,0.6-1.4c3.6,2,7.1,4,10.7,6
	C791.4,112.4,790.3,114,789.3,115.5z"/>
<path class="st0" d="M840.2,72.4l1.2,2.5l4.5,16.1l14.3,0.8l-8,3.3c-1.4-0.3-2.8-0.7-4.1-1.2c-8.8-3.9-8.3-13.6-13-19.4L840.2,72.4z
	"/>
<path class="st0" d="M976.3,153.1l3.8,8.2l0.7-0.1c0.8,1.6,1.9,3.1,2.3,4.8s0.6,3.8-0.2,5c-1.1,1.6-3.3,2.4-5.1,3.6
	c-0.2-1.2-0.4-2.5-0.6-3.8c-0.8-3.8-1.8-7.6-2.2-11.5C974.9,157.2,975.9,155.1,976.3,153.1z"/>
<path class="st0" d="M801.2,168.8c-3.3-1.9-6.6-3.9-9.9-5.6c-3.6-1.9-7.3-3.7-12.2-3.6l7.6,8.1l-1.3,0.6L774,156.1l12.1,0.5
	L801.2,168.8z"/>
<path class="st0" d="M810.2,199.3c0.5-4.4,2.4-9.4,1-13.1c-2-5.2-6.5-9.4-9.7-14.1c-0.3-0.5,0.3-1.6,0.5-2.5
	c5.1,7.6,10.5,14.9,15,22.9c0.6,1.1-3.5,4.9-5.4,7.5L810.2,199.3z"/>
<path class="st0" d="M967.8,125.1c0,0.6,0,1.2,0,1.9l-4.5,0.6l-4.4,2l-8.9-7l8.3-0.6L967.8,125.1z"/>
<path class="st0" d="M1035,137.1l-0.9,2.6c0.7,0.1,1.3,0.3,1.9,0.5c1.6,0.6,3.2,1.3,4.8,2c-2.6,0.8-5.4,2.7-7.6,2.1
	c-1.8-0.5-2.8-3.9-4-6c0.3-0.7,0.8-1.3,1.5-1.5C1032.2,136.7,1033.6,136.8,1035,137.1z"/>
<path class="st0" d="M923.2,156.6c4,0.2,8,0.6,11.9,1.2c0.6,0.1,0.5,3.4,0.8,5.6l-13.2-4.9L923.2,156.6z"/>
<path class="st0" d="M1166.6,159.4l-12.7,10.2C1156.2,163.7,1157,156.1,1166.6,159.4z"/>
<path class="st0" d="M920.1,135.3l-1.3-2.8c1.5,0,3.5-0.7,4.4,0c1.9,1.6,3.2,3.9,4.8,5.9l-3.3,2.6L920.1,135.3z"/>
<path class="st0" d="M1041.2,146.6l9.6,0.6c0,0.8-0.1,1.5-0.2,2.2c-3.1,0.4-6.2,0.6-9.3,0.8C1041.2,149,1041.2,147.8,1041.2,146.6z"
	/>
<path class="st0" d="M807,157.1l3.9-4.5c0.8,0.9,2.5,2.4,2.3,2.7c-1.2,1.6-2.5,3.1-3.9,4.5L807,157.1z"/>
<path class="st0" d="M941,112.3l-7.1-1.2l1.4-3.2l5.7,2.6l0.6,0.6L941,112.3z"/>
<path class="st0" d="M920.1,135.3l4.5,5.7l-1.3,0.7l-3.3-5.1L920.1,135.3z"/>
<path class="st0" d="M839,145.8l-0.4,5.6c-1.1-0.5-3.3-1-3.2-1.4c0.3-1.6,0.8-3.2,1.4-4.7L839,145.8z"/>
<path class="st0" d="M1064.4,167.6l10.2,4.2l-0.7,1.7l-10-4.3L1064.4,167.6z"/>
<path class="st0" d="M958.3,121.8l-8.2,0.6c-0.3-0.8-0.5-1.7-0.6-2.5l0,0C952.5,120.6,955.3,121.2,958.3,121.8z"/>
<path class="st0" d="M793.3,143.4c1.7-0.7,3.3-1.4,5-1.9c0,0,0.6,1.3,0.8,2l-5.1,1.9L793.3,143.4z"/>
<path class="st0" d="M956.6,161.6c1.1,1.6,2,2.4,1.9,3c-0.4,1.2-1.1,2.3-1.8,3.3c-0.5-0.7-1.4-1.5-1.4-2.2
	C955.3,164.6,956,163.6,956.6,161.6z"/>
<path class="st0" d="M926.9,132.6l-5-4.2l1.2-1.4l4.8,4.4L926.9,132.6z"/>
<path class="st0" d="M941.6,111.1l-0.6-0.6l5.8-1.5L941.6,111.1z"/>
<path class="st0" d="M1011.8,162.4c-1.1,0.6-2.4,1.6-2.6,1.4c-0.9-0.9-1.6-1.9-2-3.1c-0.1-0.4,1-1.2,1.5-1.8L1011.8,162.4z"/>
<path class="st0" d="M969.6,160.9c0.6,2.1,1.3,3.1,1,3.6c-0.8,1-1.7,2-2.8,2.8c-0.4-0.4-1.3-1.1-1.2-1.3
	C967.5,164.3,968.5,162.6,969.6,160.9z"/>
<path class="st0" d="M858.7,96.6l3.6,6.1L858.7,96.6z"/>
<path class="st0" d="M1056.8,141l4,2l-1.9,2L1056.8,141L1056.8,141L1056.8,141z"/>
<path class="st0" d="M918.8,142l3.4,1.4l-1.4,2.1l-2.6-0.6L918.8,142z"/>
<path class="st0" d="M1017.7,166.9c-1.7,0-3.4,0-5.2-0.1c0-0.4,0-0.7,0-1.1c1.7-0.3,3.4-0.6,5.1-0.8
	C1017.6,165.5,1017.6,166.2,1017.7,166.9z"/>
<path class="st0" d="M794.7,155.2l3.7,2.5l-0.9,1.3l-4-2.4L794.7,155.2z"/>
<path class="st0" d="M798.6,117.3l-3.4-2.6c0.5-0.4,1.3-1.1,1.5-1c1.1,0.7,2.1,1.5,3,2.3L798.6,117.3z"/>
<path class="st0" d="M739.1,147.9L741,158l-1.3,0.8l-4.3,6.4c-2.3-0.2-4.7,0-6.9-0.7c-3.3-0.9-6.5-2.2-9.5-3.9
	c-0.7-0.4,0.3-3.6,0.5-5.6l4.6-4.2c-1.6-0.1-3.1-0.2-4.7-0.1c-0.8,0.1-1.7,0.2-2.5,0.5c10.6-6.7-2.8-4.7-2.8-4.7l-6-4.1
	c0,0.7,0.1,1.3,0.1,2l-17.1-2.4c0.5-1.2,1.1-2.1,1.6-3.2c5.9-3.8,11.9-8.1,17.8-11.1h5.2c-1,1-1.7,1.7-4.5,4.9
	c5.4-0.7,8.1-1.4,10.9-1.4c4.6-0.2,9.3-0.2,13.9,0.2c1.8,0.1,3.6,1.5,6.1,2.7l-1.3,7l-1.7-0.3l0.6-2.8l-9.4,3.6L739.1,147.9z"/>
<path class="st0" d="M710.5,126.9l-17.8,11.4l-2.5,0.7l-3.1-0.6l2.2-5.2c4.9-2.8,9.7-5.7,14.7-8.3c0.5-0.3,1.5,0.8,2.4,1
	s1.9,0.2,2.8-0.1c0.5-0.2,0.4-1.4,0.8-2.1c0.8-1.3,1.7-2.4,2.5-3.7l3.2,3.2L710.5,126.9z"/>
<path class="st0" d="M672,160.4l-1.4-3l-13.1,5.6l-1.1-2.3l18.1-14.3L672,160.4z"/>
<path class="st0" d="M697.9,124.4l-9,8.9c-4.2,3.3-8.7,9.7-9.9-2.2c-0.2-2.2-4.2-4-6.4-6.1l-2.5-4.7l5,0.9c2.7,4.2,5.6,8.3,8.7,12.2
	c0.2,0.3,4.2-2.5,6.4-3.9C692.7,127.8,695.3,126.1,697.9,124.4z"/>
<path class="st0" d="M736.6,173.9c-0.2,1.9,0.1,5.1-0.8,5.5c-2.8,1.3-6.2,1.7-9.3,2.2c-0.2,0-1.3-2.1-1-2.4c1.9-2.3,4-4.4,6.5-6.2
	C732.9,172.4,735,173.6,736.6,173.9L736.6,173.9z"/>
<path class="st0" d="M661,146.6l-7.1-4l-3.7-8.6l-1.3-3.8l2.6-0.6l0.6,1.3l4.7,3.2c-0.4,2.6-1.6,5.2-1,7.4c0.4,1.4,3.2,2.2,4.9,3.4
	C661,145.1,660.9,146,661,146.6z"/>
<path class="st0" d="M735.3,165.1l4.3-6.4l3.2,1.3l-2.5,5L735.3,165.1z"/>
<path class="st0" d="M716.9,151.1c0.8-0.2,1.6-0.4,2.5-0.5c1.6,0,3.1,0.1,4.7,0.1l-4.6,4.2l-4.1,0.3L716.9,151.1z"/>
<path class="st0" d="M801.8,195c0.7,1.9,1.2,3.8,1.9,5.7c-1.7-0.2-3.2-0.4-5.2-0.7v-7C799.5,193.6,800.7,194.3,801.8,195z"/>
<path class="st0" d="M687.1,138.4l3.1,0.6l-7.8,5l-1-1.4L687.1,138.4z"/>
<path class="st0" d="M643.3,192.1l6.2-2.6c0.2,0.4,0.3,0.8,0.4,1.3c-1.9,1.1-3.9,2.1-5.8,3.1L643.3,192.1z"/>
<path class="st0" d="M736.6,174l2.2-4.4l2.1,2L736.6,174L736.6,174z"/>
<path class="st0" d="M752.5,160.5l6.3-3.1L752.5,160.5z"/>
<path class="st0" d="M878.9,84.5l-9-4.6l2-3.2c0-1.7,0-3.3-0.1-5l10.8-3.4l-7.1-6.1c6.1,2.9,12.3,5.7,18.3,8.7
	c6.8,3.4,13.6,6.9,20.3,10.4l-4.4,2L896.6,85h-10.1L878.9,84.5z"/>
<path class="st0" d="M914.3,81.3c-6.8-3.5-13.5-7-20.3-10.4c-6.1-3-12.2-5.8-18.3-8.7l-3.1-1.3l8.9-6.3l5.1,3.9l29.9,22L914.3,81.3z
	"/>
<path class="st0" d="M916.4,80.4l-29.9-22l4.5-0.7l-2.2-2.5l6.5,0.6l10.8,5.1l1.1,3.8l-10.9-4l25,19.9c0,1.2,0,2.3,0,3.5L916.4,80.4
	z"/>
<path class="st0" d="M893.5,130.1c0-0.2,0-0.4,0-0.6c-0.2-0.4-0.3-0.7-0.3-1.1c1.6-0.9,3.2-1.7,4.8-2.5c-2.1-1-4.2-2-6.2-3.2
	c-0.7-0.5-0.9-1.8-1.3-2.7c1.8,0.9,3.6,1.7,5.3,2.7c2.2,1.3,4.4,2.7,6.6,4L893.5,130.1z"/>
<path class="st0" d="M866.6,97.8l15.4,3.1l-17.8-1c0.1-0.8,0.1-1.6,0.2-2.4L866.6,97.8z"/>
<path class="st0" d="M872.5,60.9l3.1,1.3l7.1,6.1l-10.8,3.4C881.3,68.7,876.1,64.7,872.5,60.9z"/>
<path class="st0" d="M871.9,76.7l-2,3.2l-7.7,1.9c1.3-1,2.5-2.1,3.8-3c1-0.7,2-1.2,4.3-2.5L871.9,76.7z"/>
<path class="st0" d="M891,57.8l-4.5,0.7l-5.1-3.9l-1.5-2.4L891,57.8z"/>
<path class="st0" d="M846.8,84.8l5.5-0.9l0.2,1l-5.5,1.2C846.8,85.6,846.8,85.2,846.8,84.8z"/>
<path class="st0" d="M762.5,106.6v0.8h-9.6c6.7,3,11.3,4.2,16.8,6.1c-2.6,0.5-4.2,0.9-5.1,1c-0.3,1.8-0.6,3.2-0.8,4.5
	c-1.5-1.9-2.5-3.2-3.5-4.6c-0.6,1.1-1.3,2.2-2.1,3.2c-1,0.7-2.1,1.3-3.2,1.7l0.6-3.8c-0.6-0.5-1.2-1.5-1.8-1.6
	c-4.4-0.1-8.4-0.1-13.4-0.1v-1.4c2-0.4,4.5-0.9,8.4-1.6l-10.5-2.9l8.3-0.6l12.1-2.6C760.1,105.4,761.5,106,762.5,106.6z"/>
<path class="st0" d="M769.5,63l0.9,1.7c-0.2,1.7,0.1,3.6-0.7,4.8s-2.7,1.8-4.2,2.6c-0.1-2.3-0.7-4.7-0.1-6.9
	C765.7,64.2,768,63.7,769.5,63z"/>
<path class="st0" d="M762,88.4c-0.6,3-1,3.9-2,8.1c-0.9-4.3-1.2-6.1-1.6-8.1H762z"/>
<path class="st0" d="M784.2,102.2L793,98l0.8,3.5C791,107.3,787.6,105.7,784.2,102.2z"/>
<path class="st0" d="M784.2,98.4l-1.2,3.8l-8.2,0.7l-0.5-2.5L784.2,98.4z"/>
<path class="st0" d="M651.5,129.5l-2.6,0.6l2.3-3.7C651.3,127.5,651.4,128.5,651.5,129.5z"/>
<path class="st0" d="M664.7,88.7c-0.1,2.2-0.3,4.4-0.4,6.6c0,0.2,0,0.4-0.1,0.6l-2.2,0.3l0.9-6.1L664.7,88.7z"/>
<path class="st0" d="M886.5,85h10.1H915l4.5,3.7l-9.4-2.1l-0.3,1l4.5,2.5l-22,5.8l-12.8-7.6l0,0L886.5,85z"/>
<path class="st0" d="M919.5,88.7L915,85l-5.1-1.7l4.4-2l2.1-0.8l5,3.6c0-1.2,0-2.3,0-3.5l8.3-2l5.8,1.3c0.1,0.5,0.3,0.9,0.5,1.3
	c3.8,0.5,7.6,0.9,11.5,1.4c0,0.2,0,0.4,0,0.7c0,0.4,0,0.8,0,1.1l-2.1-1.1l-5.6,3.1l-10.2,1.4l-5.6-2.6c0,1,0,2,0.1,3.1L919.5,88.7z"
	/>
<path class="st0" d="M929.7,87.7l10.1-1.4l8.9-1.2l7.6-0.2l3.8,0.9l3.6,7.6c-4.4-1.8-8-3.3-11.7-4.7c-1.1-0.3-2.3-0.5-3.5-0.6v5.4
	C941.5,91.5,935.8,89.6,929.7,87.7z"/>
<path class="st0" d="M941.3,95.1l18.2,6l-0.4,1.6L940.5,98L941.3,95.1z"/>
<path class="st0" d="M879.5,88.2l12.8,7.6c0,0.4-0.1,0.8-0.1,1.2L879.5,88.2z"/>
<path class="st0" d="M990.7,112.9l-12-0.7L990.7,112.9z"/>
<path class="st0" d="M1014.7,117.5l-8.2-1.9l-0.7-1.2L1014.7,117.5z"/>
<path class="st0" d="M1005.8,114.3l0.7,1.2l-1.3,0.6h-4.4c0-0.7,0-1.3,0.1-2L1005.8,114.3z"/>
<path class="st0" d="M1053.6,139.6l-2.1-3l5.6,0.7l0.3,1.4L1053.6,139.6L1053.6,139.6z"/>
<path class="st0" d="M935.4,79.9l-5.8-1.3l-1.9-5.5l4.4,1.9l21.6,4.3l2.7,4.8l-7.3-3.4L935.4,79.9z"/>
<path class="st0" d="M935.4,79.9l13.8,0.8l-1.8,1.8c-3.8-0.4-7.7-0.8-11.5-1.4C935.7,80.8,935.5,80.4,935.4,79.9z"/>
<path class="st0" d="M956.3,84.9l-7.7,0.2l-1.2-0.8c0-0.4,0-0.8,0-1.1l10.2,0.6L956.3,84.9z"/>
<path class="st0" d="M718.8,106.6l-6.2,1.2c3.5-2.2-3.5-10,5.1-9.5l-1.4,1.8L718.8,106.6z"/>
<path class="st0" d="M691.6,111.7l-1.8,1.7l-2.6-4.4l3.6,0.2l4.5,0.4l-0.2,1.7L691.6,111.7z"/>
<path class="st0" d="M699.7,84.5l1.3,8.4l-1.2,0.3l-2-8.3L699.7,84.5z"/>
<path class="st0" d="M716.2,100.2l1.4-1.8l5,7l-1.8-0.6L716.2,100.2z"/>
<path class="st0" d="M927.8,73.1l1.9,5.5l-8.3,2l-25-19.9l10.9,4l9.2,6.5l0.9-1.4l-6.5-4.3l0.5-0.8l3.7,1.7L927.8,73.1z"/>
<path class="st0" d="M915.1,66.5l-3.7-1.7l-0.5,0.8l6.5,4.3l-0.9,1.3l-9.2-6.5l-1.1-3.8L915.1,66.5z"/>
<path class="st0" d="M738.5,107.9l10.5,2.9c-3.9,0.8-6.4,1.2-8.4,1.6v1.4c5,0,8.9-0.1,13.4,0.1c0.6,0,1.2,1,1.7,1.6l-19.3,6.5
	l4.4-8.2c-9.2,4.6-15,14.1-25,9.3l-3.2-3.2l-2.8-2.6l5.7-4.4l-1.4-2.6l15-1.2l8.3-1.3L738.5,107.9z"/>
<path class="st0" d="M737.2,107.9l-8.3,1.3L737.2,107.9z"/>
<path class="st0" d="M716.2,100.2l4.6,4.5l-2.1,1.9L716.2,100.2z"/>
<path class="st0" d="M907.3,136.5c-0.7,0.5-1.7,0.9-2,1.6c-0.5,1.3-0.9,2.6-1.1,4c-1.5-1.1-3.4-2-4.3-3.5c-0.5-0.9,0.7-2.7,0.9-4.1
	c0.1-1.8,0.1-3.6,0-5.4l7.2,5.5L907.3,136.5z"/>
<path class="st0" d="M907.3,136.5l0.8-2l10,4.8c-4.7,0.9-6.8,1.8-8.6,1.3C908.5,140.4,908,137.9,907.3,136.5z"/>
<path class="st0" d="M918.8,142l-0.6,2.9l-6.2,0.8c-0.1-0.9-0.2-1.9-0.2-2.8L918.8,142z"/>
<path class="st0" d="M886.5,85l-7,3.2l-0.6-3.8L886.5,85z"/>
<path class="st0" d="M978.1,115.2l13.3,5.8l-1.7-5.1l8.9,7.8C986.5,132.1,979.8,129.2,978.1,115.2z"/>
<path class="st0" d="M958.2,121.8l-8.9-1.8c0.1-1.5,0.3-3.1,0.4-4.6c1.4,0.3,2.7,0.6,4.1,0.8c3,0.5,6,0.9,9,1.3h5.1l7.1,5.6
	l-0.8,0.8l6,2.8c-2.4,0.7-4.8,1.2-7.2,1.6c-1.1,0.1-2.2-0.7-3.3-1l0.6-2.6l-2.4,0.4L958.2,121.8z"/>
<path class="st0" d="M953.7,110.4l13.4,0.6c-0.1,0.7-0.2,1.4-0.3,2.1L953.7,110.4L953.7,110.4L953.7,110.4z"/>
<path class="st0" d="M1000.8,116.2h4.4l3.6,4.2l-0.8,1.3L1000.8,116.2z"/>
<path class="st0" d="M967.6,117.4h-5.1v-4.6C965.5,114.9,966.2,116.2,967.6,117.4z"/>
<path class="st0" d="M963.3,127.5l4.5-0.6l-1.4,2.9L963.3,127.5z"/>
<path class="st0" d="M892.8,139l-5.8-4.6c1.4-0.4,2.9-1.1,4.2-0.9C891.8,133.6,892,135.9,892.8,139z"/>
<path class="st0" d="M877.9,133.6l3.5,1.8l-0.8,1.4l-3.4-2.1L877.9,133.6z"/>
<path class="st0" d="M715.6,123.4c10,4.7,15.8-4.9,25-9.4c-2.1,3.8-3,5.4-4.4,8.1c7.2-2.4,13.3-4.5,19.4-6.5l-0.6,3.8
	c0.5,0.9,0.9,2.1,1.6,2.5c3.8,1.9,7.7,3.5,11.5,5.2c-6,2-11.7,1.5-17.4,1.4c-1.1,0-2.2,1.2-3.3,1.8l3,2.5l2.7,4.2l-2.9,3.1l9.1,2.1
	c-2.7,0.5-5.5,1-8.2,1.6c-2.1,0.5-4,1.3-6.1,1.9s-4,1.4-6,2.1l-8.8-6.7l9.4-3.6l-0.6,2.8l1.7,0.3l1.3-7c-2.5-1.2-4.3-2.6-6.1-2.7
	c-4.6-0.3-9.3-0.4-13.9-0.2c-2.8,0.1-5.5,0.9-10.9,1.6c2.8-3.2,3.5-3.9,4.5-4.9h-5.2C712.2,125.4,713.9,124.6,715.6,123.4z"/>
<path class="st0" d="M759.4,142.2l-9.1-2.1l2.9-3.1l-2.7-4.2l-3-2.5c1.1-0.6,2.2-1.8,3.3-1.8c5.7,0.1,11.4,0.5,17.4-1.4
	c-3.8-1.7-7.7-3.3-11.5-5.2c-0.8-0.4-1.1-1.7-1.6-2.5c1.1-0.4,2.2-1,3.2-1.7c0.8-1,1.5-2,2.1-3.2l3.5,4.6l0.8-4.4
	c0.9-0.2,2.5-0.7,5.1-1.2c-5.5-1.9-10.1-3.1-16.8-6.1h9.7c8.7,3,17.4,5.3,26.1,7.9c-5,6.5-10.1,13.1-16.4,21.1c0-1.9,0.3,0,0,0.1
	c-4.2,1.4-8.4,2.6-13.1,4C759.1,140.2,759.3,141.2,759.4,142.2z"/>
<path class="st0" d="M778,139c-0.8,1.3-1.5,2.5-2.5,3.8v-2.6c-4,1.1-7.7,2.2-11.4,3.2l-0.7-3.7L778,139z"/>
<path class="st0" d="M742.8,160l-3.2-1.3l1.3-0.7l4.8,0.9l-0.2,1.4L742.8,160z"/>
<path class="st0" d="M909.9,83.3L915,85h-18.4L909.9,83.3z"/>
<path class="st0" d="M947.5,84.3l1.2,0.8l-8.9,1.2l5.6-3.1L947.5,84.3z"/>
</svg>
