<?xml version="1.0" encoding="utf-8"?>
<!-- Generator: Adobe Illustrator 19.2.1, SVG Export Plug-In . SVG Version: 6.00 Build 0)  -->
<svg version="1.1" id="tree-svg" xmlns="http://www.w3.org/2000/svg" xmlns:xlink="http://www.w3.org/1999/xlink" x="0px" y="0px"
	 viewBox="0 0 1310.3 704" style="enable-background:new 0 0 1310.3 704;" xml:space="preserve">
<style type="text/css">
	.st0{fill:#939392;stroke:#000000;stroke-miterlimit:10;}
	.st1{fill:#606060;stroke:#000000;stroke-miterlimit:10;}
	.st2{fill:#FFFFFF;stroke:#FFFFFF;stroke-miterlimit:10;}
</style>
<title>trees</title>
<path class="st0" d="M1313.4,28.5c-0.2,0.2-0.3,0.4-0.4,0.6c-0.1,0.5-0.6,0.9-1.1,0.9c-0.9-0.1-0.8-0.8-0.8-1.3
	c0.1-2-0.7-4.3,2.2-5.4v-1.6c-1-0.2-0.3-1.2,0-2v-0.3c-0.9-0.4-1.8,0.7-2.5-0.3c-0.5-0.9-0.3-2,0.5-2.6c1.3-1.3,0.1-2.2-0.4-3.3
	c0-0.5-0.5-1-1-1s-1,0.3-1.2,0.8c-0.8,1.3-1.2,2.9-3.1,3.5c-0.6,0.2-0.5,0.7,0,1.1s1.2,0.4,1.1,1.4c-1.8-0.9-1.1,1.3-2.1,1.3
	c-2.3-0.1-1.2,1.7-1.6,2.5s1.3,0.9,2.1,1.1c0.5,0,1,0,1.6-0.1c1.4-0.1,2,1,1.4,1.6c-1.4,1.5-1.2,3-0.7,4.6c0.1,0.7,0,1.4-0.1,2.1
	c-0.5-2-0.9-2.2-2.6-2.5c-1.9-0.2-2.6,1.2-3.1,2.1s1.1,1.1,2,1.4c0.8,0.1,1.6,0.5,2.3,1c-0.5,0.1-1,0.2-1.4,0.4
	c-1.5,1.4-2.2,0.7-3.6-0.4s0.6-3.6-2.4-3.4c0-0.3,0-0.5,0.2-0.8c1-1,0.2-1.8-0.7-2c-1.3-0.2-1.2-1.9-2.2-1.7
	c-1.4,0.3-1.9,1.8-2.8,2.7c-0.7,0.7,0.1,1,0.7,1.3s-0.2,0.4-0.3,0.5c-0.4,0.4-0.5,1,0,1.3c0.5,0.3,0.7,0.3,0,0.9
	c-0.7,0.7-1.6,1.2-2.6,1.1c-0.7-0.1-1.4,0.3-1.5,1c0,0.1,0,0.2,0,0.3c-0.4,3.3-2.6,4.8-6.3,4.5c-0.7,0-1.4-0.4-1.8-1
	c-0.4-0.8,0.5-0.9,0.9-1.2c1.4-0.9,0.4-2,0.1-2.9s-1.1-1.1-2.2-0.7c-1.1,0.3-2.3,0.4-3.5,0.2c0.9-1.1,2.1-2,3.5-2.4
	c0.5-0.1,0.8-0.5,0.7-1c0-0.1,0-0.1,0-0.2c-0.3-0.6-0.9-0.3-1.4-0.2c-0.8,0.2-1.4,0.8-2.6,0.4c0.5-0.2,0.9-0.4,1.3-0.5
	s1.3-0.3,1.2-1s-0.9-0.6-1.5-0.7s-1.5,0.1-2.1-0.4c0.9-0.8,2.7,0.4,2.9-1.4c0.2-1.6-1.5-1.2-2.1-1.9c0.5-0.9,1.4-1,2.2-1.3
	c0.8-0.2,1.5-0.7,2-1.3c0.7-0.9,0.8-1.5-0.7-1.5c-1.9,0-3-1.2-4-2.3c-1.6-1.6-3.7-2.2-5.9-2.7c-0.4-0.1-1,0.7-1.3,0s0.4-1,0.9-1.2
	c1.1-0.6,3.2-0.4,3.2-1.8s-2-1.6-3.1-2.3s-1.1-1.3-0.2-1.9c1.2-0.9,2.3-1.7,0.6-3.1c-0.6-0.4,0.5-0.4,0.6-0.7
	c0.6-1.1,1.4-2.2,0.2-3.3c-2.2-1.9-3.1-1.9-4.3-0.4c-1.7,2-2.6,2-3.9-0.1c-0.4-0.8-1.3-1.2-2.2-1c-2,0.4-4.1,0.5-6.2,0.2
	c-0.7-0.1-1.1,0.2-1,0.8c0.2,1.4-0.4,1.6-1.6,1.2c-0.4-0.2-0.9-0.1-1.1,0.3s-0.1,0.9,0.3,1.1c0.1,0,0.2,0.1,0.3,0.1
	c1.6,0.9,3,2,5.5,1.3c-0.9,1-0.4,1.8-0.4,2.8l-4.1-1.5c-0.6-0.3-1.4-0.1-1.9,0.4c-0.4,0.5,0.1,0.8,0.4,1.2c0.7,0.7,0.2,1.1-0.4,1.4
	s-1.5,0.8-2.3,1.2c1.3,1.2,2.1,2.8,4.2,2.8c0.4,0,0.8,0.4,0.8,0.8l0,0l0,0l0,0c0,0.4-0.4,0.8-0.8,0.8c-0.5,0-0.9,0.1-1.3,0.2
	c-1.1,0.3-3.1,0.2-1,1.9c0.3,0.1,0.4,0.5,0.3,0.8v0.1c-0.8,1.1-0.1,1.4,0.9,1.6c0.4,0,0.7,0.3,0.8,0.6c-0.1,0.4-0.4,0.6-0.8,0.6
	c-0.4,0.1-0.9,0.2-1.3,0.3c-0.4,0-0.9,0.3-0.9,0.7c0,0.4,0.4,0.8,0.8,0.8l0,0l0,0c1,0.2,1.1,0.8,0.5,1.3c-1.1,0.8-0.8,1.5-0.6,2.5
	c0.6,2-0.3,2.9-2.6,2.4c-0.7-0.2-1.5,0-1.9,0.6c-1.2,1.3-1.8,2.7-1.3,4.5c0.3,1.1,0.4,2.4-1.3,3c-1.2,0.4-1.6,1.2-0.6,2.2
	c-0.8,0.2-1.6-0.9-2.2,0s1.2,1.2,1.1,2.2c-0.3,0.1-0.6,0.2-0.9,0.2c-1.6,0-3.2,1.2-3.3,1.8c-0.2,1.1,1.6,1.5,2.8,1.9
	c0.2,0.1,0.5,0.2,0.7,0.3c-0.3,0.1-0.7,0.2-1,0.3c-2.4-0.4-4.1,0.2-5.1,2.3c-0.5,0.8-1.5,1.2-2.4,0.9c0-0.4,0.2-0.9,0.4-1.2
	c2.4-1.9,0.9-3.8,0-5.6c-0.2-0.3-0.3-0.6-0.4-0.9c-0.7-2.5-0.7-2.5-3-1.1c-0.3,0.2-0.6,0.4-1,0.7c0.1-0.9-0.1-1.8-0.5-2.6
	c-0.2-0.4-0.4-0.7-1-0.4c-1.9,1.2-3.2,2.5-2.4,4.8c0.2,0.5,0.5,1.1-0.5,1.3c-1.8,0.4-1.3,1.1-0.4,2.1s0.2,1.9-0.7,2.6
	s-1.6,0.3-2.1-0.6c-0.2-0.6-0.9-0.9-1.5-0.7c-0.1,0-0.1,0.1-0.2,0.1c-1,0.5-1.8,3.4-1.3,4.4c0.5,1.2,1.2,2.5,0.4,3.7
	c-0.8,1.1-1.2,2.4-1,3.8c-0.6-0.9-2.2-1.2-2.2-2.5c0-1.6-1.4-2.3-3.2-1.8c-0.6,0.2-1,0.1-1-0.3c0-2.5-1.8-4.5-2.5-6.8
	c-0.6-1.9-0.2-4.9-3.6-5.7c-0.5-0.1-0.3-0.6-0.1-0.8c1.9-2.3-1-3.5-1.6-5.2c-0.2-0.6-0.3-2.8-2.7-1.6c0.9-1.5,0.6-2.3-1.3-2.9
	c-1.5-0.5-1.6,0.9-2.1,1.5c-0.3,0.4,0.4,1.2-0.4,1.4c-2.5,0.5-2.8,2.5-3.8,4.1c-0.2,0.3-0.2,1.1-0.6,1c-1.8-0.3-3.3,0.7-5.4,0.9
	c1.4-1.4,2.9-1.5,4.1-2.2c0.8-0.4,1.3-1.3,1.2-2.2c-0.1-1-1.2-0.4-1.8-0.3c-0.9,0-1.7-0.5-2-1.4c-0.6-1,0.8-0.7,1.1-1
	c0.6-0.6,1.3-1,2.1-1.7c-1.2-0.2-2.2-0.3-3.2-0.5s-1.4-0.8-0.6-1.4c2.2-1.9-0.2-2.9-1-4.2c-0.2-0.3-1.1-0.2-0.9-0.8
	c0.6-0.7,3,0.2,1.8-1.5c-2-2.6-2.7-6-2-9.2c0.2-0.3,0.1-0.6-0.2-0.8c-0.3-0.2-0.6-0.1-0.8,0.2l0,0c-0.9,1.4-2.5,2.9-2.4,4.3
	c0.1,1.3-0.4,2.6-1.4,3.5c-0.3,0.4-1.2,0.9-0.4,1.3c1.7,0.8,0,2.4,1.1,3.3c-1.1,0.8-1.9,1.7-1.2,3c-0.3,0-0.6,0.1-0.8,0.2
	c-1.9,1.1-4.4,0.8-6.4,1.9c-0.4,0.2-1,0.6-1.4,0.2c-0.6-0.6,0.2-0.9,0.5-1.4c0.1-0.2,0.4-0.4,0.6-0.6c0.3-0.5,0.7-1,0.1-1.5
	c-0.5-0.3-1.2-0.2-1.5,0.3l0,0l0,0c-0.7,0.8-1.6,1.3-2.7,1.4c0.4-1.3-1.1-2.5-0.2-3.7c1.3-1.5,1.2-3.3,1.8-4.9
	c0.1-0.4,0.5-1-0.2-1.2c-0.5-0.2-1.1,0.1-1.3,0.5c-1.4,2.7-4,3.8-7,4.5c-0.5,0.3-1.1,0.3-1.7,0.1c-0.3-0.2-0.4-0.5-0.2-0.8l0,0l0,0
	l0.1-0.1c0.3-0.5,1-0.7,1.6-0.6c1.4,0.3,2.4-0.3,3.5-0.9c3.1-1.5,1.8-4.2,2.5-6.3c0.1-0.3-0.2-0.6-0.5-0.7h-0.1
	c-0.5,0-0.9,0.2-1.1,0.5c-0.9,1.3-2.2,2.2-3.6,2.8c0.5-1,1.1-2,1.8-3c0.9-1.1,2.5-1.7,0.3-3.4c-1.3-1-1.5-0.6-2.3-0.1
	c-0.4,0.2-0.5,0.9-1.4,0.7c0-1.3,1.1-2,1.9-2.8c1.1-1.1,0.2-2-0.2-3c-0.5-1.3-1.3,0.2-2.1-0.2c2.1-1.7,0.3-2.9-0.8-3.7
	c-1.6-1.2-1.9,0.3-2.7,1.4c-2.2,2.9-3.3,5.8-1.8,9.2c-0.1,0.1-0.2,0.2-0.3,0.2c-1.1-0.5-0.8-1.9-1.9-2.4c-0.3-0.2-0.7-0.2-1-0.2
	c-0.4,0.1-0.3,0.5-0.2,0.9c0.3,0.8,1.4,2-0.9,1.5c-0.4,0-0.7,0.2-0.8,0.6c0,0.1,0,0.3,0.1,0.4c0.7,2.2-0.2,4.8,1.7,6.8
	c-1.6,0.5-1.7-1.3-3.2-1.2c0.3,1.1-0.3,2.4,1.1,3.2c0.7,0.4,0,0.7,0.1,1c0.2,1.3-1.7,1.4-1.6,2.8c0.2,2.1,1.1,3.1,3.5,3.6
	c-1.3,0.8-2.2,1-3,0c-0.3-0.5-0.8-0.9-1.4-0.8c-1,0.3-0.2,1-0.3,1.6c-0.1,0.6-0.1,1.8-1,1.4c-1.7-0.7-3.4-0.1-5.1-0.3
	c-0.6-0.1-1.3-0.6-1.8,0.2c-0.5,0.7-0.3,1.6,0.3,2.1c0.4,0.3,1.2,0.7,0.7,1.3c-1.8,1.8-0.8,3.3,0.2,5c0.3,0.5,0.5,1.1-0.4,1.3
	c-0.6,0.1-1.5,0-1.5,0.6s0.8,1.2,1.4,1.7c0.4,0.2,0.8,0.3,1.2,0.4c0.4,0.1,0.6,0.4,0.5,0.8l0,0c-0.2,0.3-0.6,0.5-0.9,0.3l0,0
	c-1.6-0.6-3.2-1.3-3.8-2.9c-0.6-1.8-1.7-3.3-3.3-4.3c-0.8-0.5-2.2-1.3-0.7-2.6c0.6-0.5,0.3-1-0.1-1.4s-0.8-0.7-0.4-1.2
	c1-1.3,0.4-2.6,0-3.9c-0.3-1-0.7-1.5-1.8-0.6c-1.3,1.1-1.4,0.1-1.5-0.8c0-0.9-0.1-1.9-0.2-2.8c-0.2-0.9-0.7-2.2-1.7-2.1
	c-1.1,0.2-1.9,1.1-2,2.2c-0.1,1.2-0.5,2.4-1.2,3.4c-0.6,0.8,0.2,3.3,1.1,3.5c2.3,0.4,1.6,1.3,0.5,2.3c-1.5,1.3-2.5,3-2.9,4.9
	c-0.5,2.7-1,5.2-3.7,6.9c-0.2,0.1-0.4,0.3-0.5,0.6c0.4,1.5-0.9,2-1.8,2.8c-1.2,1-2.5,1.9-2.2,3.7c0,0.8-0.5,1.5-1.3,1.8
	c-0.7,0.3-1.2,1-1.3,1.7c-0.2,1.1-0.9,2.1-1.9,2.6c-2,1.3-2,1.7-0.2,3.2c0.4,0.3,1.1,0.5,1.1,1.2c-0.5,0.6-1.4,0-1.8,0.7
	c0,0.6,1.3,1.3,0.6,1.7c-1.7,0.7-1.7,3-4.1,3c-1.4,0-2.2,0.8-0.7,1.8c1.7,1.2,0,1.6-0.7,2.2c-0.5,0.4-1.3-0.3-1.9,0.4
	c1.3,1.6,3.3,2.5,5.4,2.4c-1.3,1-2.4,1.2-3.6,0.7c-0.9-0.4-1.7-0.8-2.5-1.3c-0.5-0.4-1.2-0.4-1.6-0.1c-0.6,0.6,0.1,1,0.6,1.3
	c0.8,0.5,1.7,0.8,2.6,1.1c1,0.3,1.6,0.9,0.7,1.6c-1.2,1-2.8,1.5-2.6,3.5c0.1,0.5-0.8,1.6-1.1,2.5c-0.3,0.6,0.7,4.5-2.2,1
	c-0.1-0.1-0.1-0.1-0.2-0.1c-2.5,0.3-3.1-1.8-5-2.8l1.1-0.3c0.6-0.2,1.6-0.1,1.5-0.9c0-0.6-0.8-0.7-1.4-0.9c-0.9-0.4-1.8-0.7-2.9-1.1
	c1.5-0.5,1.5-1.5,1.4-2.6c-0.2-1.7-1-3.4-0.9-5.2c0-1-0.8-1.2-1.6-1.4c-3.1-0.8-3.5-1.5-2.6-4.1c0.4-1-0.3-1.7-0.9-2.3
	c-0.2-0.3-0.7-0.4-1-0.2c-0.6,0.6-1.4,1.5-1.1,2.1c1,1.6,0.1,3.2,0.6,4.8c0.4,1.2,0,2.6-1,3.3c-0.9,0.7-1.2,1.8,0.3,2.5
	c0.6,0.3,1.1,0.9,0.7,1.3c-1,1.1-2.1,1.9-1.6,3.6c0.2,0.5-0.8,0.5-1.3,0.4c-1.7-0.1-3.3-0.3-4.9-0.5c-0.7,0-1.3-0.5-1.4-1.2
	c0.4,0.1,0.7,0.1,1.1,0.2c1.3,0,2.6-0.4,2.8-1.6s-1.3-0.8-2-1.1c-0.5-0.2-0.9-0.4-1.4-0.6c-1.1-0.4-0.9-1.3-0.2-1.5
	c1.7-0.4,2-1.4,2.8-2.7c1.3-2.2,1.6-2.1-0.9-2.9c0.5-0.1,1-0.3,1.3-0.7c0.5-0.9,2.6-1.1,2-2.1c-0.4-0.9-2.2-0.3-3.4-0.6
	c-0.7-0.2-2.3,0.6-2-0.6c0.3-1-0.9-3.2,2-3.1c1.4,0,2.5-0.9,3.7-1.5c0.4-0.2,1-0.6,0.6-1.1c-0.3-0.4-0.8-0.4-1.2-0.2
	c-1.1,0.3-2.1,0.4-2.8-0.5c0.6-0.8,2.2-1.4,1.8-2.3c-0.5-1-1.8,0.1-2.8,0s-3.3,0.7-1.7-1.7c0.1-0.2,0.1-0.4-0.1-0.6
	c-0.1,0-0.1-0.1-0.2-0.1c-1.6-0.2-2.3-1.4-3.3-2.5c2.4,0.4,1.1-2.3,2.9-2.6c0.6-0.2,0.9-0.7,0.8-1.3c-0.2-0.5-0.9-0.3-1.4-0.5
	c-0.8-0.2-1.6-0.2-2.4,0c-1.6,0.2-3.1,0.3-4.5-1.1c1,0.4,2.2,0,2.8-0.9c0.6-0.9,1.5-1.4,2.6-1.5c1.2-0.2,2.4-0.6,3.5-1.3
	c0.6-0.2,1.2-0.5,0.9-1.2s-1-0.2-1.4,0c-1.9,0.5-3.8,0.9-5.7,1c-2.2,0.3-3.7-1.1-3-2.8c0.4-1,1-1.8-0.3-2.6
	c-0.1-0.2-0.1-0.4-0.1-0.5c1.7-1.4,0.1-1.9-0.9-2.5s-1.4-1.4-0.7-2.4c0.6-0.8,1.9,0,2.4-0.8s-1.9-0.9-0.6-2c0.5-0.5,0-1-0.6-1
	c-2.2,0.3-1.7-1.1-1.7-2c0-1.7,0.2-3.4,0.3-5.1c0-0.6,0.4-1.5-0.4-1.6c-0.6,0-1.2,0.5-1.2,1.1c0,0.1,0,0.2,0,0.3
	c0.1,2.5-0.7,4.9-0.7,7.4s0.3,4.7-2.5,6.2c-0.9,0.5-0.5,1,0.4,1.2c0.5,0.1,1-0.2,1.5,0.2c-0.2,0.9-1.8,1.1-1.7,2s0.2,1.8-0.9,1.8
	s-0.7-1.3-0.8-2c-0.3-6.5-0.7-13.1-1-19.6c0.1-0.8-0.4-1.6-1.1-1.9c-0.3,3.6,0.2,7,0.2,10.5c0.2,6.6,0.1,13.1-0.3,19.7
	c0.1,0.5-0.2,0.9-0.7,1c-0.1,0-0.2,0-0.3,0c-1,0.1-2,0-2.9-0.5c-2.5-1.7-5.3-1.8-8.3-1.7c-0.8,0-3,1.2-2-1.3c0.1-0.3-0.5-0.6-1-0.6
	s-1.2-0.2-0.8-0.8c0.5-0.9-0.2-1.4-0.7-1.9c-1-1-0.8-2.4-1.1-3.6c-0.1-0.3,1.6-0.3,0.9-1.2c-0.6-0.8-1.6-1.1-2.6-0.8
	c-1.2,0.4-2.5,0.5-3.7,0.3c0.5-0.3,1-0.5,1.6-0.6c1.8-0.2,2.1-0.7,1.1-2.2c-0.6-0.9-1.8-1-2.1-2c-0.3-1.3,0-2.7,1-3.6
	c0.8-0.5,1-1.6,0.4-2.4c-0.2-0.3-0.5-0.5-0.8-0.6c-1.2-0.7-2.4-0.8-3.3,0.6c-0.3,0.4-0.7,0.7-1.2,0.9c-1.3,0.5-1.2,1.2-0.4,2.1
	c1.4,1.5,1.1,2.6-0.9,3.3c-1.6,0.5-3.7,0.3-4.3,2.3c-0.3,0.3-0.6,0.4-1,0.3c-1.2-0.4-2.1,0.3-3.1,1c-0.6-1.9,0.5-3.3,0.9-4.7
	c0.3-1.3,0.2-2.1-1.2-2.6c-1-0.4-0.9-1.1-1-2c-0.1-1.9-0.4-3.7-0.8-5.6c0-0.5-0.5-0.8-0.9-0.7c-0.4,0-0.8,0.3-0.8,0.7
	c0,0.1,0,0.2,0,0.3c0.4,0.9-0.5,1.5-0.7,2.2c-0.3,1.3-2.2,2.5-1.2,3.8c1.2,1.7,0.1,2.4-1,3c-3.5,1.9-3.5,1.9-1.2,4.5
	c0,0.1,0,0.1,0,0.2c-2.6,0.5-4.7-0.2-4.4-1.5c0.2-1.1-0.1-2.3-0.8-3.2c-0.3-0.6-0.3-1.6-1.5-1.6c-0.9,0.1-1.7,0.5-2.2,1.3
	c-0.5,0.7-0.7,1.5-0.8,2.3c-0.2,0.9-0.4,1.8-1.5,2.1c-1.5,0.3-1.5,1.1-1.1,2.1c0.4,1.2,1.1,2.5-1,3.2c-0.7,0.2-0.5,0.9-0.2,1.4
	c0.9,1.4,0.1,2-1.4,2.2c-0.4,0-0.9,0.2-1.2,0.4c-0.6,0.6-1.6,0.7-2.3,0.2c-0.7-0.4-0.3-1.1-0.1-1.7s0.4-0.9-0.2-1.3
	c-0.5-0.4-1.2-0.4-1.7,0c-0.8,0.7-2,1.2-1.4,2.7s-1.2,3.8-3.2,3.8c-1.8,0-3.5,0.6-4.8,1.8c-0.4,0.6-1.3,0.9-2,0.6
	c-1.2-0.6-1.6-0.3-2.2,0.7s-2,1.7-3,0.8s0.5-1.4,1.1-2c0.3-0.2,0.5-0.5,0.7-0.8c0.4-0.9,1.8-2.3,1-2.7c-1.4-0.7-1.5-2.6-3.5-2.6
	c-2.3,0-1.8-0.9-0.8-2.1c0.5-0.6,1.7-1.1,0.8-2c-0.9-1.1-2.1-1.9-3.4-2.2c-0.2,0-0.4,0.1-0.5,0.2c-0.2,1.7-3.3,2.2-2.3,4.4
	c-0.1,0.2-0.2,0.5-0.5,0.6c-1.7,2.2-5.4,3.4-4.1,7c0,0.1-0.1,0.2-0.3,0.3c-0.8,0.4-1.2,1.3-0.9,2.1l0,0l0,0l0.1,0.1
	c0.2,0.5,0,1.1-0.5,1.3l0,0h-0.1c-0.6,0.1-1,0.7-0.9,1.3c0,0.1,0.1,0.2,0.1,0.4c0.3,0.6,0.1,1.4-0.4,1.8c-0.3,0.3-0.5,0.7,0,1
	c1.4,0.9,0.1,1.2-0.4,1.5c-0.8,0.5-5.8-0.2-6.5-0.7c-0.3-0.3-0.5-0.7-0.5-1.1c0.3-3.4-0.6-6.8-1.2-10.1c-0.3-2.1-0.4-4.2-0.4-6.2
	c0.1-0.7-0.3-1.3-1-1.4l0,0l0,0c-0.4-0.1-0.7,0.1-0.8,0.5c0.5,1.2-1,2.3-0.2,3.4c0.5,0.7,0,1.2-0.7,1.4s-1.4,0.5-2.1,0.8
	c-1.1,0.4-2.5,1.6-3.2,0.6s1.4-1.2,2-2c0.3-0.4,1.1-0.8,0.7-1.3c-0.4-0.4-1-0.4-1.5-0.1c-3.4,1.8-7,0.5-10.4,0.4
	c-1.8-0.1-3.6,0.3-5.2,1.2c-0.7-0.5-0.7-1.4-1.6-1.7c-0.5-0.2-1.4,0-1.3-0.8c0.1-0.6,0.9-0.6,1.4-0.9c0.7-0.3,1.9-0.6,0.8-1.5
	c-1.3-1.2,0.2-2.4-0.1-3.6c0-0.2,0.8-0.4,0.6-0.9s-0.9-0.2-1.4-0.2s-1,0.7-1.7,0.2c0.2-1,2.3-2.2-0.5-2.8c-0.4-0.1-0.5-0.6-0.4-0.9
	l0,0l0,0v-0.1c0.4-0.8-0.1-1.7,0.4-2.6c0.3-0.5,0.1-1.2-0.4-1.5l0,0l0,0l-0.2-0.1c-0.6-0.3-0.9,0.2-1.2,0.6s-0.9,0.8-1.3,1.1
	c-0.4,0.5-1.2,0.7-1.8,0.4c-0.7-0.4,0-0.8,0-1.2c0.2-1.2-1.3-2.2-2.1-1.3c-2,2.2-2.7-0.4-3.8-0.8s-0.4-3,1-3.5c0,0.7-1.2,1.6,0,2.1
	s1.9-0.1,2.7-0.9c1.3-1.2,1.9-2.9,1.7-4.6c0-0.5-0.1-1.3-0.9-1.2c-1.5,0.3-3.4-0.6-4.4,1.3c-0.2,0.5-0.8,0.8-1.3,0.6
	c-0.3-0.1-0.5-0.3-0.6-0.6c-0.5-1.1-1.2-1.1-2.3-0.8c-0.9,0.3-1.9,0.4-2.9,0.1c-0.4-0.1-0.7,0-1,0.2c-0.2,0.3-0.1,0.6,0.1,0.8
	l0.1,0.1c2,1.4,1,2-0.7,2.4c-0.5,0.1-0.8,0.3-0.8,0.8c1.2,0.7,2.7,0.7,4,1.2c0.6,0,1.1,0.4,1.3,1c0,0.7-0.5,0.8-1.1,1.1
	c-0.8,0.3-1.6,0.8-2.4,1.1s-2.2,1-1.6,1.9s0.8,2.3,2.5,2.5c3.2,0.3,4.6,3,3,5.6c-0.2,0.5-0.7,0.8-1.3,0.7c-0.8-0.2-0.2-0.6-0.2-0.9
	c0.1-1-0.7-0.7-1.1-0.5c-1.3,0.7-2.5,1.4-3.7,2.3c-3.9,2.2-8.9,2.1-12.9,4.2c-0.3,0.1-0.6,0.1-0.9,0c-2.1-0.8-4.2-0.2-6.2-0.1
	c-1,0.1-2.1,0.2-3.1,0.2c-0.9,0.2-1.7-0.4-1.9-1.3c0-0.1,0-0.2,0-0.3c0.1-3.1-1-4.4,3.4-5.6c0.6-0.2,1.1-0.4,1.6-0.7
	c0.4-0.2,1.2-0.3,1-0.9c-0.2-0.6-0.8-0.9-1.4-0.7c-1.1,0.2-1.8,0.1-2-1c-0.1-0.5-0.7-0.8-1.2-0.7c-1.8,0.3-1.7-0.6-1.4-1.7
	c0.1-0.5,0.2-0.9,0.2-1.4c0.1-0.6-0.4-1.2-1-1.3c-0.1,0-0.2,0-0.3,0c-1.1,0-1.1,0.5-1.2,1.3c-0.2,1.2-0.6,2.3-1.2,3.3
	c-0.2,0.3-1.4-0.1-1.7,0.6c-0.3,0.7,1.4,0.6,1,1.5h-1.4c-0.9,0.1-2.1-0.3-2.1,1.2c0,1.1,0,2.2,1.9,2c0.6,0,1.2,0,1.8,0.2
	c0.8,0.2,2-0.3,2.1,1c0.2,1.1-0.8,1.3-1.6,1.6c-0.4,0.2-1,0.2-1,0.7c0.1,0.7,0.8,0.5,1.3,0.4c0.4-0.2,1-0.1,1.2,0.4
	c0.2,0.4,0.1,1-0.4,1.2l0,0c-0.3,0.3-1,0.4-1,1.1c0.2,0.1,0.3,0.2,0.5,0.3c0.5,0.2,1.3,0.5,1,1.2c-0.3,0.8-1,0.2-1.5,0
	c-1.6-0.4-3.3-0.2-4.8,0.5c-2.1,1-2.8,0.7-3.7-1.2c-0.3-0.8-0.4-1.7-0.3-2.6v-6.8c-0.6,0.7-0.9,1.6-1,2.5s-0.4,1.7-0.6,2.6
	c-0.8,2.3-3.2,4-5.2,3.8c-0.6,0.1-1.2-0.1-1.6-0.5c-0.3-0.5,0.4-0.9,0.8-1.3c0.8-0.6,1.1-1.6,0.8-2.6c-0.6-0.9-1.3-1.8-2.1-2.6
	c-0.5-0.6-1.2,0.1-1.5,0.7s-0.5,1.5-1.4,1.4c-2.3-0.2-4.4,0.8-6.6,1c-0.5,0.1-1.1-0.1-1-0.5c0.7-1.7-0.3-4,2.1-5.2
	c0.6-0.3,1.7-0.5,1.1-1.4c-0.5-0.7-1.3-0.2-2,0c-0.3,0.1-0.6,0.1-0.9,0.2c-0.3-1.9,1.9-2.5,2.4-3.9c-1.1-0.5-1.8,0.9-3.1,0
	c1.6-0.3,2.7-0.9,0.8-2c-0.1-0.1-0.1-0.3,0-0.4c1.8-2.9-0.4-2-2-1.6c-3.6,0.7-3.6,0.8-1.6,3.5c1.2,1.6,0.1,3.2,0.3,4.7
	c0.1,1-1.4,0.3-2,0.8c-1,0.8-1.7,1.8-2.2,3c-0.3,0.9,1.2,0.7,1.9,1.3c-0.6,0.3-1.8-0.1-1.6,1s1.1,1,2,1c0.1,0,0.3,0,0.5,0
	c0.8-0.2,1.6-0.3,1.8,0.7s-0.7,0.9-1.2,1.2c-2,1.3-4-0.3-5.9,0c-1.2,0.2-1.5-0.3-1.5-1.4c0.1-2.2-1-4.3-1.2-6.8
	c-1.1,1.1-1,2-1.5,2.8c-0.6,1.2-0.6,2.7-2.2,3.4c-1,0.5-1.5,1-0.9,2.1c0.3,0.5-0.2,1-0.3,1.5c-0.1,1.2-1.7,1.8-1.5,3.1
	c0.1,0.4,0.5,10.5-0.1,10.5s-0.1-9.4-0.1-9.9c-0.3-1.4-0.8-2.8-0.2-4.2s-0.2-1.8-1.5-1.5s-1.4-0.1-1.8-1.3c-0.6-2-0.1-4-0.4-6
	c-0.1-0.7,0.3-1.5-0.8-1.6c-0.7,0-1.3,0.6-1.2,1.3c0,0.1,0,0.2,0,0.3c0.1,1.9-0.5,3.7-1.6,5.2c-0.6,1-0.3,1.4,0.8,1.9
	c-1.4,0.1-3.7,0.8-3.4-0.5c0.4-2.2-0.6-1.5-1.8-1.4c-1,0-2-0.1-3-0.2c-0.2-0.3-0.1-0.6,0.2-0.8c0.8-1.4,1.8-2.7-1.1-3.2
	c-0.8-0.2-1.4-0.9-1.6-1.7l0.6-0.1c0.8-0.2,2.1,0.5,2.4-0.5c0.3-1.3-1.1-1.5-2.1-1.7c-1.7-0.4-2.7-1.3-2.9-2.9
	c-0.1-0.4-0.4-0.7-0.7-1c-1.8-2.3-1.1-4,1.8-4.4c0.2,0,0.4-0.1,0.7-0.1c0.6,0,1-0.4,1-1c0-0.1,0-0.1,0-0.2c-0.1-0.5-0.7-0.9-1.2-0.7
	l-0.2,0.1c-0.8,0.3-1.7,0.3-2.4-0.2c1.2-1,2.6-1.7,3.4-2.9c0.4-0.6,0.8-1.3-0.6-1.3s-1.8-0.3-0.8-1.4c0.3-0.3,0.7-0.6,0.3-1
	c-0.4-0.2-0.9-0.2-1.2,0.1c-0.8,0.5-1.6,1-2.8,1.8c0.2-0.6,0.4-1.1,0.8-1.6c2-1.4,0.3-2.7-0.2-4c-0.2-0.7-1-1.1-1.7-0.9
	c-0.1,0-0.2,0.1-0.3,0.1c-0.6,0.4-1.2,1.3-0.2,2.1s0.1,1.5-0.3,2.2s-0.8,1.4-1.9,0.4c-0.5-0.4-1.1,0.2-1.5,0.6
	c-0.4,0.2-0.5,0.7-0.3,1.1c0.1,0.1,0.2,0.2,0.3,0.3c1,1,0.5,1.7-0.5,2.4c-0.8,0.5-0.8,0.9-0.3,1.8c0.6,1.3,0.7,2.8,0.5,4.2
	c-0.2,1.2-1.8-0.3-2.4,0.5c2.2,1.7,2.2,3.8,0.2,3.6c-3.3-0.3-3.7,1.8-5,3.2c-0.2,0.3-0.6,0.5-1,0.4c0-0.3,0-0.6-0.1-0.9
	c-0.7-0.8-1.8-1.6-0.1-2.5c0.3-0.2-2.2-3.7-2.7-3.6c-0.6,0-1.1,0.4-1.2,1c-0.1,1-1,1.5-1.7,2c-2.7,1.7-6.1,1.8-9,3.1
	c-0.4,0.2-0.9-0.1-1.1-0.5l0,0l0,0c-0.2-0.8,0.6-0.6,1-0.6c2,0.2,3.8-1.1,4.3-3.1c-0.6-0.7-1.8,0.1-2.3-0.9c0.7-0.9,3.3-0.1,2.7-2.2
	c-0.3-1.1,0.4-2.8-1.9-2.9c0.3-0.9,1.6-0.9,1.3-1.9c-1-0.2-1.9,0.4-2.8,0.5c-1.1,0.2-2.4,1.3-3.3,0.2s0-2.2,0.5-3.3
	c0.5-1.1,1.5-1.8,2.6-2.1c0.6-0.2,1.1-0.4,1.7-0.5c0.4-0.1,0.8-0.3,0.6-0.7c-0.2-0.3-0.6-0.5-0.9-0.3h-0.1c-1.5,1.6-3.1-1.7-4.5,0.1
	c-0.2-0.2-0.4-0.5-0.5-0.8c0.3-1.9-0.4-4,1.2-5.6c0.3-0.3,1-1.2,0.3-1.3c-2.2-0.3-1.5-1.8-1.7-2.9c-0.2-0.8-0.5-1.1-1.1-0.4
	c-1.6,1.7-3.9,3-4.2,5.5c0,0.3-0.2,0.6-0.5,0.6c-0.2,0-0.3,0-0.4-0.1c-1.3-0.6-1.5,0.1-1.8,1c-0.4,1.2-2,2.2-1,3.8
	c0.1,0.5-0.2,0.9-0.7,1l0,0h-0.1c-1.7-0.2-3,0.9-4.3,1.1c-1.6,0.2-2.2,1.5-3.7,1.5c-2.7,0.1-4,1.5-4,4c0.1,0.3,0.1,0.7,0,1
	c-0.2,0.8-1.1,1.2-1.8,0.9l0,0l0,0l-0.2-0.1c-0.9-0.4-1-1-0.1-1.5c0.3-0.2,0.6-0.5,0.2-0.8c-1.7-1.6,0-2.1,1-3
	c0.6-0.4,1.6-0.5,1.6-1.5c-1.1-0.6-1.9,0.8-3.1,0.3c0.9-1.5,1.1-2.6-1.4-1.8c-0.4,0.1-0.9,0-1.3-0.2c-1.1-0.9-2.6-1-3.7-0.2
	c-0.7,1-0.7,2.3-0.2,3.3c1,1.8-0.1,2.6-1.5,3.1c-1.6,0.6-0.9,1.1,0,1.6c0.3,0.2,0.7,0.3,1,0.5c0.4,0.1,0.7,0.6,0.6,1
	c-0.3,0.4-0.8,0.5-1.2,0.3c-0.7-0.3-1.5-0.3-2.2,0.1c-0.7,0.5-1.1,0.1-1.5-0.6c-1.2-1.9-2.7-2-4.5-0.5c-0.2,0.2-0.5,0.3-0.8,0.4
	c-1.7,0.1-2.5,0.8-2.4,2.5c-0.5-1.2-0.8-2.4-1-3.6c-0.1-1.2,0.8-2.7-0.7-3.3s-2.1,1.3-3.5,1.5c-0.3,0-0.6,0.2-0.7,0.5
	c0,0.2,0,0.4,0.2,0.5c1.3,1.5-0.4,1.4-1,1.2c-2.1-0.5-3.1,1-3.6,2.1c-0.8,1.7-2.2,1.9-3.8,1.9c-0.7,0-1.6-0.3-1.6,0.6
	c-0.2,1.6-0.6,3.2-1.2,4.8c-0.2,0.8,0.2,1.7,1,2.1c0.2,0.2,0.9,0.2,0.4,0.6c-0.2,0.3-0.6,0.5-0.9,0.5c-0.9,0-2.3-2.8-1.6-3.3
	c1.2-0.9,0.4-1.5-0.4-1.9c-3.2-1.3-5.9-4.1-10.1-2.3c0.1-0.9,1.5-1.7-0.1-2.1c-0.4,0-0.8-0.4-0.8-0.8l0,0l0,0l0,0
	c0.2-0.5,0.7-0.8,1.2-0.8c0.7-0.2,1.5-0.2,2.2,0.1c1.5,0.5,2.4-0.3,3.5-1c0.3-0.2,0.5-0.6,0.3-0.9c-0.2-0.5-0.7-0.3-1.1-0.2
	c-1,0.3-2,0.6-3,0.8c-2.1,0.4-3.5-0.7-2.8-2.4c0.6-1.4,0.3-3,1.5-4.1c0.3-0.2,0.4-0.7,0.2-1l0,0c-0.5-0.5-0.9,0-1.4,0.2
	c-2.6,0.9-2.4,2.8-2.4,4.7c0,0.9,0.3,2.2-0.8,2.5c-1.5,0.5-1.4,1.2-1.4,2.3s-0.5,1.8-2,1c-0.5-0.3-1-0.4-1.5-0.4
	c-2.8,0.1-3.5-2.5-5.5-3.4c0.4-3.6-2.7-2.7-4.8-3c-0.5-0.1-1.1-0.1-1.9-0.2c1.7-0.9,1.3-2.6,2.2-3.6c1.4-1.5,0.3-1.8-1.1-1.9
	c-0.8-0.1-1.6-0.2-1.5-1.1c0.3-1.9-0.5-3.6-0.8-5.4c-0.1-0.6,0.1-1.5-0.9-1.4s-1,0.9-0.9,1.6c0.2,1.6,0.3,3.3-1.3,4.5
	c-0.6,0.5-0.3,1.1,0,1.7c1,2-1.8,3.3-1.1,5.2c0,0.1-0.5,0.2-0.7,0.5c-0.6,0.7-1.6,1.1-2.6,0.9c-0.7-0.2-1.5,0.1-1.9,0.8
	c-0.4,0.9,0.5,1.1,1.1,1.5s1.6,0.5,1.3,1.6c-0.9,0-1.8-0.4-2.4-1c-0.4-0.4-0.7-1.5-1.6-0.8c-0.6,0.5-0.8,1.3-0.4,2l0.1,0.1
	c1.6,1.6,0.5,3.9,2.3,5.4c-1.8-0.1-3.1-1.3-4.9-0.2c0.2-1.6-0.2-3,1.4-3.9c0.3-0.3,0.5-0.7,0.4-1.1c0-1.8-1.2-3.1-2.1-4.5
	c-0.6-0.7-1.5-0.8-2.2-0.5c-4.4,1.5-5.1,2.5-4.5,6.7c0,0.1,0,0.3,0.1,0.4c0.2,0.7-0.1,1.4-0.6,1.9c-1,0.6-0.8-0.7-1.4-0.8
	c-1.1-0.2-0.8-0.4-0.3-1c0.6-0.8,0.9-1.8,1.1-2.8c0.3-0.8-0.2-1.7-1-1.9c-0.2-0.1-0.4-0.1-0.6-0.1c-1.5-0.1-2-0.6-1.6-2
	c0.3-1,0.1-2-1.4-2c-1.3,0-1.7,1-1.7,2c0.1,0.4,0.1,0.8,0.2,1.2c0.2,1.6-0.2,2.8-2.5,2.8c-1.7,0-2.2,0.8-1.6,2.3
	c-0.9-0.1-1.8-0.1-2.7,0c-0.8,0.2-2.1,0.4-2.3-0.2c-0.3-0.8-0.3-2.3,0.3-2.8c2-1.4,3.4-3.8,6.5-3.7c0.5,0.2,1.1-0.1,1.2-0.6
	c-0.1-0.4-0.4-0.8-0.8-0.9c-1.6-1.2-3.5-1.2-5.3-1.1c-1.6,0.2-3.1-0.6-3.7-2.1c-0.2-0.5-0.2-1.1-1-1.1c-0.6,0-1.1,0.4-1.2,1
	c-0.3,0.8-0.7,1.6,0,2.5c0.4,0.4,0.8,1.2,0.2,1.4c-2.7,1.1-1.1,2.7-0.8,4.1c0.2,0.7,0.8,1.4,0.1,2.1s-1.8,0.2-2.5-0.2
	c-0.9-0.6-2.2-0.5-3,0.2c2.1-3.8,2-4-0.8-4c0.5-0.8,0.4-1.9-0.1-2.7c-0.4-0.7-1.3-1.8-0.2-2.6s1.4,0.7,2.2,0.8
	c0.3,0.1,0.5,0.3,0.8,0.4c0.6,0.2,1.2,0.1,1.6-0.4c0.4-0.6-0.3-0.8-0.6-1.1c-1.8-1.3-3.7-2.3-5.7-3.2c-1.1-0.6-4,0.8-4.2,1.9
	c-0.2,0.9,0,2.3,1.1,2c2.3-0.7,1.4,1,1.8,1.6s-0.2,1.3-0.6,1.9c-0.4,0.3-1,0.3-1.4-0.1c-0.6-0.3-0.9-1-0.7-1.7l0,0
	c0.3-0.7,0-1.5-0.7-1.8c-0.4-0.2-0.8-0.2-1.1,0c-1.4,0.4-1.5-0.2-1.9-1c-0.3-0.9-1.3-1.4-2.2-1.1c-0.3,0.1-0.5,0.2-0.7,0.4
	c-1.4,1-2.5,2.2-4.6,1.8c-0.5-0.1-0.5,0.4-0.6,0.7c-1,2.6-0.4,3.4,2.7,3.2c0.2,0,0.4,0.1,0.7,0.1c-1.6,1.4-3.1,2.9-2.2,4.9
	s-0.5,2.2-1.7,2.5s-1.8,0.4-1.5,1.7c0.2,0.9-1.9,2.6-2.9,2.8c-1.6,0.2-2.7-0.7-3.9-1.3c-0.8-0.4-2.8-0.2-2.4-1.3s1.7,0.1,2.7,0.2
	s2.3,0.6,2.7-0.6c0.3-1.1-0.7-1.7-1.8-1.8c-0.8-0.1-1.6-0.2-1.8-1s0.7-0.8,1.1-1.2c1.6-1.4,1.6-1.7-0.5-2.7
	c-1.1-0.3-1.8-1.4-1.7-2.5c0.1-2.2-0.5-4.4,0-6.6c0.1-0.5-0.2-1-0.7-1.2s-1.1,0-1.4,0.5c-0.8,0.7-1.2,1.7-1.3,2.7
	c-0.5,3.3-0.5,6.7-1.7,10c-0.2,0.5-0.1,1,0.2,1.4c1.5,1.6,0.2,1.6-1.1,1.6c-0.1-1.1,0.4-2.5-1.1-3.1c-1.1-0.5-1.8,0.5-2.6,1.1
	c0-1.2-0.3-2.2-1.7-2c-0.9,0-1.7,0.8-1.7,1.8c0,0.2,0,0.4,0.1,0.5c0.4,1.1,0.2,1.5-1.1,1.6c-0.4,0-0.7,0.3-0.8,0.6
	c-0.3,0.5-0.7,1.2-1.3,0.7s0.2-0.9,0.7-1.2c0.6-0.3,0.9-1,0.7-1.6l0,0c-0.2-0.5-0.8-0.7-1.3-0.5l0,0l0,0c-1.7,0.7-2.5,0-3-1.3
	c-0.2-0.2-0.6-0.4-0.9-0.5c1.2-0.6,2.5-1.1,3.8-1.8c0.6-0.3,0.9-1,0.7-1.6c-0.3-0.5-0.9-0.8-1.5-0.6c-1.6,0.1-2.5-1.1-3.7-1.3
	c1.3-1.8,2.3-3.7,4.4-4.8c0.3-0.3,0.4-0.7,0.4-1.1c0.2-0.5,0-1.1-0.5-1.5c-0.5-0.3-1.2-0.1-1.5,0.4c-0.6,0.7-1.5,1-2.4,0.8
	c-0.5-0.1-1.5,1.1-1.4-0.1c0-0.7-0.1-2.1,1.5-2.2c0.4,0,1,0.6,1.2-0.2c0.2-0.5,0.1-1-0.2-1.3c-1.1-1-2.6-1.5-3.5-2.7
	c-0.3-0.4-0.8,0-1.2,0.2c-1.4,1-2.7,2.1-1.3,3.9c0.6,0.9,0.8,1.9,0.6,2.9c-0.7,0-1.3-0.3-1.8-0.8c-1-0.7-2.1-1.9-3.1-1.9
	c-2.8,0.1-5.8-0.5-8.5,0.8c-0.5,0-0.8,0.4-0.8,0.8c0,0.5,0.4,0.8,0.8,0.8c0.1,0,0.3,0,0.4-0.1c1.2,0,2.4,0,3.6-0.1
	c1-0.1,1.8,0.1,2,0.9c0.8,3.3,1.9,6.7-0.1,10.1c-0.6,1-1.5,2.2-1.6,3.2c-0.2,2,2,4-0.1,6c0,0.2,0,0.4,0.1,0.6
	c0.2,2.2-0.1,2.5-2.8,2.5c0.2-0.6,0.4-1.3,0.7-1.9c0.6-1,1-1.7-0.9-1.9c-1-0.2-1.8-1-2-2c-0.1-0.5,0.1-0.9-0.5-1.1
	c-0.6-0.4-1.4-0.3-1.9,0.2c-1.2,1.6-2.9,3.1-4.5,3c-1.9-0.1-3.5-1.3-5.6-0.7c0.5-0.9,1.5-0.5,2.1-0.8c0.9-0.5,1.4-1,0.5-1.9
	c-1.4-1.2-2.8-2.5-3-4.3c0-0.5-0.4-0.9-0.9-0.9l0,0h-0.1c-0.5-0.1-1,0.2-1.2,0.7c0,0.8-0.7,1.4-1.4,1.4h-0.1c-0.8,0.1-0.3,1-0.6,1.5
	c-0.2-0.6-0.7-1-1.2-1.3c-1.8-1.2-2.3-1.1-2.8,0.9c-0.3,0.8-0.3,1.6-0.2,2.4c0.2,1.1-0.8,1.3-1.6,1.3c-1.2,0-0.6-0.8-0.6-1.3v-3.8
	c-0.1-0.9-0.8-1.6-1.7-1.7c-0.7-0.2-3,3.3-2.6,3.9c0.4,0.5,0.8,1,1.3,1.4c-2.5-0.5-3.9,0.5-2.8,2.2c0.9,1.5-0.2,2.4-0.2,3.6
	c0.1,0.6-0.2,1.2-0.8,1.3c-0.1,0-0.3,0-0.4,0c-1,0-1.8,1-1.2,1.4c1.7,1.3-0.3,1.4-0.5,2.1s-2,6.4-2.8,6.4c-0.5,0,0-3.2,0.3-3.7
	s0-3.8,1.4-4s1.2-1.2,1.1-2.1s-0.8-1-1.6-1c-0.5,0.1-1-0.1-1.3-0.5c1.3-0.9,1.2-1.6-0.2-2.6c-1.1-0.8-0.5-2.3-1.1-3.3
	c-0.5-0.8,0.7-0.7,1-1.1c0.6-0.8,0.4-1.3-0.6-1.4s-2.1,0.1-3.1-0.4c-0.8-0.4-1.8-0.8-2.5,0s0.2,1.4,0.7,2c1.6,2.3,1.6,3.3-0.1,4.8
	c0.2,0.4,0.3,0.7,0.1,0.6c-0.5-0.1-1,0.1-1.1,0.6c0,0.1,0,0.3,0,0.4c-0.2,2.3-2.7,3.5-3.1,5.7c-0.1,0.4,0.7,4.5,0.2,4.5
	c-1.8-0.2-2,1-2.5,2.2s0.4,2.7-0.7,3.7c-2.6,2.5-2.5,5.6-2.7,8.7c-0.1,1.7,1.6,5.8-2.1,1.2c3.6-1.4,0.3-2.8,0-4.2s-1.6-0.2-3,0.1
	c0.9-0.6,1.6-1.5,2.1-2.5c0.4-0.8,1-1.7,0.2-2.2c-1.5-1-0.9-2.1-0.7-3.3c0.3-2-0.4-3.2-2.3-3.6c-0.2,0.5-0.3,1.1-0.2,1.7
	c0.4,1.1-0.3,1.6-0.9,2.2c-1.1-1.2-0.4-2.7-1.4-3.9s0.3-2.8,0.1-4.1s-0.4-3.1-2.6-3.5c-0.8,0-1.5-0.6-1.5-1.4c0-0.1,0-0.3,0-0.4
	c0.1-0.8-0.3-1.2-1.1-1.5c-1.7-0.7-3.2-0.9-4.5,0.7c-0.6,0.5-1.4,0.9-2.2,1c-0.9,0.3-1.5,0-1.1-0.8c0.6-1.6,0-2.9-0.6-4.3
	c-0.5-1-0.1-2.2,0.9-2.7l0,0l0,0c1-0.7,1.4,0.3,2,1c0.7,0.7,1.9,0.8,2.7,0.2c0.8-0.5-0.2-1-0.5-1.5c-1.2-1.5-5.1-2.9-7-2.5
	s-3.2,1.9-2.6,3.6c0.4,1.2,0.6,1.9-1.3,1.4c-1-0.2-1,0.4-0.5,0.9c0.5,0.6,1.2,1.1,1.9,1.4c0.3,0.2,1.1,0.2,0.7,0.8
	c-0.8,1.2-0.1,2.4-0.4,3.5c-0.8,0.3-3-1.5-2.2,1c0.7,2-0.6,2.6-2,3c-1.1,0.4-2.3,0.4-2.5,1.8s0.5,2.1,2,2.8
	c-1.8-0.3-2.4,0.3-2.7,1.6c-0.1,0.6-0.9,0.6-1.4,0.9c-1.5,0.8-3.2,1.2-2.7,3.5c0.3,1.5,0,4.1-1,4.5c0.4-0.2-1.6,4.8-2.4,6.1
	c0.2,1,0.9,1.5,2.2,1.6c-1.5,0.4-2.1-1.2-2.8-1.4c-0.4-0.2-0.9-0.2-1.4-0.2c-0.2,0.6-0.6,0.1,0,0V62c0.5-1.6-0.2-2.1-1.8-2.3
	c0.9-0.4,1.9-0.6,2.9-0.5c0.9-0.1,1.6-3.5,1.8-4.3v-0.1c-0.1,0.4-0.6,1.9-1.2,1.7c-1-0.3-1.5-1.3-2.5-1.6c0.6-0.3,1.3-0.1,1.8,0.3
	c0.6,0.7,1.5-2,2.1-2.6c1-0.8,1.4-2.1,1.1-3.3c-0.3-1-1.6,2.3-2.4,2.5c-1.3,0.2-2.8,1-3.2-0.9c-0.3-1.5-2.7-3.2,0.6-4.5
	c1.2-0.4,2-1.5,2-2.8c-0.2-1.7-1.8,0-2.6-0.6c-0.1-0.1-0.3-0.1-0.4-0.2c-1.1-0.2-1.9-0.1-2.2,1.1c-0.2,1.2-0.5,2.5-0.9,3.6
	c-0.2,0.5-0.8,0.8-1.3,0.6c-0.2-0.1-0.3-0.1-0.4-0.3c-0.6-0.5-2.2,0.2-1.9-1.2c0.2-0.9,0.2-3.7-0.7-4.4c-0.4-0.1-0.6-0.2-0.5-0.2
	c0.2,0,0.3,0.1,0.5,0.2c0.7,0.2,1.4,0.3,2.1,0.3c2.2-2.6,0-2.2-1.8-2.1c-0.4-0.1-0.7-0.3-0.9-0.5c1,1.1,6.6-3-3.3-0.6
	c-0.8,0.2-1.4,0.8-2.4,0.2c0.1-0.1,0.2-0.2,0.3-0.3c-0.6,0.1-1.2,0.1-1.8,0c-1.2-0.2,5.5-0.7,6.6-1.6c2-1.6-2.3-6.3-4.7-7.5
	c-1.5-0.8-1.4-1.7-1.5-2.9c0-0.6,0.5-1.5-0.6-1.6s-1.1,0.7-1.3,1.4c-0.4,1.2-0.6,2.6-2.2,3c0,0.9-0.3,1.8-0.6,2.6c0,0,0,0.1,0,0.2
	c0.6,0.7,1.1,1.6,0.6,2.1c0.2-0.9-0.8-1.4-0.6-2.1c-0.4-0.3-0.6-0.8-0.7-1.3c0.1-0.6,0-1.3,0.9-1.4c0.2,0,0.3-0.1,0.5-0.1
	c0.1-0.9,0-1.8,0-2.6c0.1-1.3-0.8-2.5-2.1-2.6c-1-0.3-2.4-0.1-2.7,0.7c0,0.1-0.5,0.1-0.5,0.2v4.1c1,1.3,1.1,4.2,0.5,4.9l0.1,0.1
	l0.5,3.5l1.3,10.4l-1.8,0.2l-4.1,4.4l-0.5,0.1l0.7,5.3l-2.2-0.7l-0.2,3.2l1.5,4.7l-4.8,1.9l2.2,2.1l-8.3,117.6l879.1-17.4l3.4-141.6
	H1313.4z M640.5,34.2c-0.7-0.8-2.3-0.6-2.4-1.9s1.3-1,2.1-1.3c0.5-0.1,0.8-0.6,0.8-1.1c-0.1-0.5-0.5-0.9-1-0.9
	c-0.7-0.1-1.3-0.1-2-0.1c-0.7,0.1-1.3-0.2-1.6-0.9c-0.2-0.5,0-1,0.4-1.3c0.6-0.3,1.3-0.2,1.8,0.3C641.8,29.2,642,30,640.5,34.2z
	 M647.1,32.9c-0.2,0.3-0.3,0.7-0.2,1.1c0,0.5,0.2,1.2-0.6,1.3c-0.5,0.1-1.1-0.2-1.2-0.8c0-0.1,0-0.3,0-0.4c-0.1-1.7-0.4-3.3-0.9-4.9
	c-0.2-0.8-0.1-1.2,0.8-1.3s1.8-0.2,2.9-0.4c0.4,0,1,0.1,0.8,0.8C648.1,29.9,650.2,32.1,647.1,32.9z M877.6,49.8
	c-0.2,0.9,0.1,1.9-1.3,2.3c-2.8,0.7-5.7,0.7-8.5,1.4c-0.8,0.2-0.9,0-1-0.6c-0.5-2.2,0.9-4.4,3.1-4.9c0.3-0.1,0.6-0.1,0.9-0.1
	c2,0.2,3.6,0.2,5.1,0.4C876.8,48.5,877.8,48.7,877.6,49.8z M882.8,48.8c-0.8,1.6,0.8,3.5-0.8,4.9c-0.3,0.3,0.1,1.1-0.7,1
	c-0.7,0-1.3-0.5-1.3-1.2c0-1,0.1-2,0.2-3h-0.1c-0.1-0.6-0.1-1.2,0-1.8c0.2-0.7,0.9-1,1.5-0.9C882.3,47.9,883.1,48.3,882.8,48.8
	L882.8,48.8L882.8,48.8L882.8,48.8z M903.9,51.3c-0.5,2.9-1.1,3.4-4.5,3.8c-1.1,0.1-2,0.3-1.5-1.2c0.3-0.9-0.5-1.3-1.6-1.5
	c2.1-0.8,4.3-0.8,6.3-1.6C903.2,50.7,904.1,50.5,903.9,51.3z M910.1,49.2c-1.7-0.2-3.3,1.4-4.5,0.4c-1.9-1.6-3.5-1-5.4-0.4
	c-1.7,0.5-3.5,0.7-5.3,0.6c0.9-0.4,1.7-1.2,2-2.2c0.4-1.5,1.2-2.3,3.1-2.4c2.1-0.1,4.5-0.2,4.8-2.9c0.3-0.5,0.8-0.9,1.3-1
	c1.4-0.4,2.9-0.8,4.3-1.1c0.4-0.2,0.9-0.1,1.2,0.3c0.2,0.5-0.5,0.6-0.8,0.8c-1.4,0.7-2.9,1.2-4.3,1.7c-1.2,0.3-1.8,0.9-1.7,2
	s1.3,0.7,2,0.7c1.8,0,3.7,0.3,5.4,0.7C908.6,47.7,908.6,47.7,910.1,49.2L910.1,49.2L910.1,49.2z M1001.4,48.1
	c-0.5-0.2-1-0.3-1.4-0.6c-2-1-3.2-0.5-3.8,1.5c-0.3,1-0.8,1.8-1.9,1.7c-1.6-0.2-2.9,0.6-4.3,0.7c-1,0.1-2.2,0.4-1.6,1.8
	c0.2,0.5,0,0.8-0.6,0.8c-0.5,0.1-1.1,0.1-1.5-0.2c-0.4-0.4-0.1-0.8,0.2-1.1c1.2-1.1,1-2-1-2.7c1.3-0.5,2.6-0.6,4-0.5
	c0.8,0.3,1.7-0.2,1.9-1c0-0.1,0-0.2,0.1-0.2c0.8-2.5,2.2-3,4.9-2.3c0.5,0.2,1,0.3,1.5,0.3c2.7-1.1,3.1,1.8,4.9,2
	C1002.3,48.5,1001.9,48.4,1001.4,48.1L1001.4,48.1z M1054.6,52.9c-2.5,1.6-5.4,0.6-5.8-2.1c-0.1-0.4-0.8-0.5-0.5-1.2
	c0.4-0.1,0.8-0.1,1.2,0c1.8,0.5,3.2,1.8,5.3,1.9C1055.7,51.4,1055.5,52.4,1054.6,52.9L1054.6,52.9L1054.6,52.9z M1176.9,35.3
	c-0.4,1.2-3.2,1.9-1,3.8c-0.1,0.1-0.2,0.2-0.3,0.3c-1.1,0.4-1.8,1.6-3.2,1.6c-0.4-1.2,1.8-1,0.9-2.3c-0.9-1.5-0.4-3.4,1.1-4.3
	c0.2-0.1,0.5-0.3,0.7-0.3c0.5-0.2,1.1-0.1,1.5,0.2C1176.9,34.4,1177.1,34.9,1176.9,35.3L1176.9,35.3L1176.9,35.3z M1224.2,62.7
	c-0.2,0.7-0.8,1.1-1.5,1c-1-0.3-0.5-1-0.2-1.5s0.6-0.7,0.3-1.1c-0.4-0.4-1-0.4-1.4-0.2c-0.8,0.3-1.8,0.3-1.8-0.5
	c0-1.6,0.2-3.2,0.6-4.7c0.3-0.7,1.2-1,1.9-0.7c0.4,0.1,1,0.4,1.2-0.1s-0.4-0.8-0.8-1.1c-1.2-0.7-2.6-1.1-3-2.6
	c1-0.1,1.4,0.6,2.1,0.8c3.3,1.2,2.9,3.5,1.5,5.9c-0.5,0.9-0.7,1.3,0.2,2S1224.7,61.5,1224.2,62.7L1224.2,62.7L1224.2,62.7z"/>
<path class="st1" d="M1310.3,170.1l3.1-128.7c-0.8-0.4-1.7-0.1-2,0.7c0,0.1-0.1,0.2-0.1,0.2c-0.5,1.4-2.1,1.2-3.2,2
	c-0.8,0.6-1.1-0.6-1.8-0.8c-1.7-0.4-2.6-1.8-4.1-2.5c-1-0.5-1.4-0.5-2,0.3c-0.8,1-1.9,2-2.1,3.1c-0.4,1.7-3.1,3.4-0.2,5.4
	c-2.6-0.7-5.8,1.2-7.3-2.1c-0.2-0.4-0.6-0.6-1-0.5c-0.2,0.1-0.3,0.2-0.4,0.3c-1.2,1.4-1.7,3.3-3.5,4.4c-0.6,0.4,0.1,0.7,0.6,1
	c1.5,0.7,1.4,2.4-0.1,3.2c-0.5,0.3-1.7-0.1-1.5,0.8c0.3,0.7,1,1.1,1.7,1.1c1.3,0,1.4,0.9,1.4,1.7s-0.6,1.4-1.4,1.4l0,0h-0.2
	c-0.7,0-1.6-0.1-2,0.7c0.2,0.9,1.7,0.5,1.9,1.7c-0.5,0.1-0.9,0.3-1.4,0.4c-1.4,0.4-2.6,1.4-2.7,2.4s1.7,0.5,2.6,0.9
	c0.1,0.1,0.2,0.3,0.2,0.4c-1.2-0.1-2.3-0.1-3.4-0.2c-0.4-0.1-0.7,0.2-0.8,0.5c0,0.4,0.3,0.7,0.7,0.7c1.3,0.1,2.2,1,3.3,1.3
	c-2,1.2-4.4,1.6-6.6,1c-0.7,0-1.3-0.4-1.5-1c-0.9-3,0.1-6-0.4-8.9c0-0.3,0.2-0.5,0.4-0.7c1.4-0.7,1.8-1.3,0.2-2.2
	c-0.2-0.3-0.3-0.7-0.3-1.1c-0.1-0.6-0.1-1.2-0.8-1.2s-0.7,0.7-0.9,1.2c-0.2,0.6-0.2,1.2-0.2,1.8c0.3,2.3-1.4,5-3.8,6.1
	c-0.3,0.2-0.6,0.3-0.9,0.5c-0.5,0.3-0.4,1.5-1.3,1.2c-1.1-0.4,0.2-1.1,0.1-1.8c0-0.4,0.1-0.8,0.3-1.2c0.4-0.7,0.8-1.4-0.1-2
	c-0.7-0.4-1.6-0.4-2.4,0c-0.9,0.3-1.6,0.9-2,1.8c-0.1,0.5-0.6,0.9-1.1,0.9c-0.9-0.1-0.8-0.8-0.8-1.3c0.1-2-0.8-4.4,2.3-5.4
	c0.7-0.3,1.1-0.9,1.2-1.5c-2.9,0.4-1.6-1.2-1.2-2.2c-0.9-0.6-1.9,0.7-2.6-0.3s-0.2-1.9,0.5-2.6c1.3-1.3,0.1-2.2-0.4-3.3
	c0-0.5-0.5-1-1-1s-1,0.3-1.2,0.8c-0.8,1.3-1.2,2.9-3.1,3.5c-0.6,0.2-0.5,0.7,0,1.2s1.2,0.4,1.1,1.4c-1.8-0.9-1.1,1.3-2.1,1.3
	c-2.3-0.1-1.2,1.7-1.6,2.5s1.3,0.9,2.1,1.1c0.5,0,1,0,1.6-0.1c1.4-0.1,2,1,1.4,1.7c-1.4,1.5-1.2,3-0.7,4.6c0.1,0.7,0,1.4-0.1,2.1
	c-0.5-2-0.9-2.2-2.6-2.5c-1.9-0.2-2.6,1.2-3.1,2.1s1.1,1.1,2,1.4c0.8,0.1,1.6,0.5,2.3,1c-0.5,0.1-1,0.2-1.4,0.4
	c-1.5,1.4-2.2,0.7-3.6-0.4s0.6-3.6-2.4-3.4c0-0.2,0-0.5,0.1-0.7c1-1,0.2-1.8-0.7-2c-1.3-0.2-1.2-1.9-2.2-1.7
	c-1.4,0.3-1.9,1.8-2.8,2.7c-0.7,0.7,0.1,1,0.7,1.3s-0.2,0.4-0.3,0.5c-0.4,0.4-0.5,1,0,1.2s0.7,0.3,0,0.9c-0.7,0.7-1.6,1.2-2.6,1.1
	c-0.7-0.1-1.4,0.3-1.5,1c0,0.1,0,0.2,0,0.3c-0.4,3.3-2.6,4.8-6.3,4.5c-0.7,0-1.4-0.4-1.8-1c-0.4-0.8,0.5-0.9,0.9-1.2
	c1.4-0.9,0.4-2,0.1-2.9s-1.1-1.1-2.2-0.7c-1.1,0.3-2.3,0.4-3.5,0.2c0.9-1.1,2.1-2,3.5-2.4c0.5-0.1,0.8-0.5,0.7-1c0-0.1,0-0.1,0-0.2
	c-0.3-0.6-0.9-0.3-1.4-0.2c-0.8,0.2-1.4,0.8-2.6,0.4c0.5-0.2,0.9-0.4,1.3-0.6s1.3-0.3,1.2-1s-0.9-0.6-1.5-0.7s-1.5,0.2-2.1-0.4
	c0.9-0.8,2.7,0.4,2.9-1.4c0.2-1.6-1.5-1.2-2.1-1.9c0.5-0.9,1.4-1,2.2-1.3c0.8-0.2,1.5-0.7,2-1.3c0.7-0.9,0.8-1.5-0.7-1.5
	c-1.9,0-3-1.2-4-2.3c-1.6-1.7-3.7-2.2-5.9-2.7c-0.4-0.1-1,0.7-1.3,0s0.4-1,0.9-1.2c1.1-0.6,3.2-0.4,3.2-1.8s-2-1.6-3.1-2.3
	s-1.1-1.3-0.2-1.9c1.2-0.9,2.3-1.7,0.6-3.1c-0.6-0.5,0.5-0.4,0.6-0.7c0.6-1.1,1.4-2.2,0.2-3.3c-2.2-1.9-3.1-1.9-4.3-0.3
	c-1.7,2-2.6,2-3.9-0.1c-0.4-0.8-1.3-1.2-2.2-1c-2,0.4-4.1,0.5-6.2,0.2c-0.7-0.1-1.1,0.2-1,0.8c0.2,1.3-0.4,1.6-1.6,1.2
	c-0.4-0.2-0.9-0.1-1.1,0.3s-0.1,0.9,0.3,1.1c0.1,0,0.2,0.1,0.3,0.1c1.6,0.9,3,2,5.5,1.3c-0.9,1-0.4,1.8-0.4,2.8l-4.1-1.5
	c-0.6-0.3-1.4-0.1-1.9,0.4c-0.4,0.5,0.1,0.8,0.4,1.2c0.7,0.7,0.2,1.1-0.4,1.5s-1.5,0.8-2.3,1.2c1.3,1.2,2.1,2.8,4.2,2.8
	c0.4,0,0.8,0.4,0.8,0.8l0,0l0,0l0,0c0,0.4-0.4,0.8-0.8,0.8c-0.5,0-0.9,0.1-1.3,0.2c-1.1,0.3-3.1,0.2-1,1.9c0.3,0.1,0.4,0.5,0.3,0.8
	v0.1c-0.8,1.1-0.1,1.4,0.9,1.6c0.4,0,0.7,0.3,0.8,0.7c-0.1,0.4-0.4,0.6-0.8,0.6c-0.4,0.1-0.9,0.2-1.3,0.3c-0.4,0-0.9,0.3-0.9,0.7
	s0.4,0.8,0.8,0.8l0,0l0,0c1,0.2,1.1,0.8,0.5,1.3c-1.1,0.8-0.8,1.5-0.6,2.5c0.6,2-0.3,2.9-2.6,2.4c-0.7-0.2-1.5,0-1.9,0.6
	c-1.2,1.3-1.8,2.7-1.3,4.5c0.3,1.1,0.4,2.4-1.3,3c-1.2,0.4-1.6,1.2-0.6,2.2c-0.8,0.2-1.6-0.9-2.2,0s1.2,1.2,1.1,2.2
	c-0.3,0.1-0.6,0.2-0.9,0.2c-1.6,0-3.2,1.2-3.3,1.8c-0.2,1.1,1.6,1.5,2.8,1.9c0.2,0.1,0.5,0.2,0.7,0.3c-0.3,0.1-0.7,0.2-1,0.3
	c-2.4-0.4-4.1,0.2-5.1,2.3c-0.5,0.8-1.5,1.2-2.4,0.9c0-0.4,0.2-0.9,0.4-1.2c2.4-1.9,0.9-3.8,0-5.6c-0.2-0.3-0.3-0.6-0.4-0.9
	c-0.7-2.5-0.7-2.5-3-1.1c-0.3,0.2-0.6,0.4-1,0.7c0.1-0.9-0.1-1.8-0.5-2.6c-0.2-0.4-0.4-0.7-1-0.4c-1.9,1.2-3.2,2.5-2.4,4.8
	c0.2,0.5,0.5,1.1-0.5,1.3c-1.8,0.4-1.3,1.1-0.4,2.1s0.2,1.9-0.7,2.6s-1.6,0.3-2.1-0.6c-0.2-0.6-0.8-1-1.4-0.8
	c-0.1,0-0.2,0.1-0.3,0.2c-1,0.5-1.8,3.4-1.3,4.4c0.5,1.2,1.2,2.5,0.4,3.7c-0.8,1.1-1.2,2.4-1,3.8c-0.6-0.9-2.2-1.2-2.2-2.5
	c0-1.6-1.4-2.3-3.2-1.8c-0.6,0.2-1,0.1-1-0.3c0-2.5-1.8-4.5-2.5-6.8c-0.6-1.9-0.2-4.9-3.6-5.7c-0.5-0.1-0.3-0.6-0.1-0.8
	c1.9-2.3-1-3.5-1.6-5.2c-0.2-0.6-0.3-2.8-2.7-1.6c0.9-1.5,0.6-2.3-1.3-2.9c-1.5-0.5-1.6,0.9-2.1,1.6c-0.3,0.4,0.4,1.2-0.4,1.4
	c-2.5,0.5-2.8,2.5-3.8,4.1c-0.2,0.3-0.2,1.1-0.6,1c-1.8-0.3-3.3,0.7-5.4,0.9c1.4-1.4,2.9-1.5,4.1-2.2c0.8-0.4,1.3-1.3,1.2-2.2
	c-0.1-1-1.2-0.4-1.8-0.3c-0.9,0-1.7-0.5-2-1.4c-0.6-1,0.8-0.7,1.1-1c0.6-0.6,1.3-1,2.1-1.7c-1.2-0.2-2.2-0.3-3.2-0.5
	s-1.4-0.8-0.6-1.4c2.2-1.9-0.2-2.9-1-4.2c-0.2-0.3-1.1-0.2-0.9-0.8c0.6-0.7,3,0.2,1.8-1.5c-2-2.6-2.7-6-2-9.2
	c0.2-0.3,0.1-0.6-0.2-0.8c-0.3-0.2-0.6-0.1-0.8,0.2l0,0c-0.9,1.4-2.5,2.9-2.4,4.3c0.1,1.3-0.4,2.6-1.4,3.5c-0.3,0.4-1.2,0.9-0.4,1.3
	c1.7,0.8,0,2.4,1.1,3.3c-1.1,0.8-1.9,1.7-1.2,3c-0.3,0-0.6,0.1-0.8,0.2c-1.9,1.1-4.4,0.8-6.4,1.9c-0.4,0.2-1,0.6-1.4,0.2
	c-0.6-0.6,0.2-0.9,0.5-1.4c0.1-0.2,0.4-0.4,0.6-0.6c0.3-0.5,0.7-1,0.1-1.5c-0.5-0.3-1.2-0.2-1.5,0.3l0,0l0,0
	c-0.7,0.8-1.6,1.3-2.7,1.4c0.4-1.3-1.1-2.5-0.2-3.7c1.3-1.5,1.2-3.3,1.8-4.9c0.1-0.4,0.5-1-0.2-1.2c-0.5-0.2-1.1,0.1-1.3,0.5
	c-1.4,2.7-4,3.8-7,4.5c-0.5,0.3-1.1,0.3-1.7,0.1c-0.3-0.2-0.4-0.5-0.2-0.8l0,0l0,0l0.1-0.1c0.3-0.5,1-0.7,1.6-0.6
	c1.4,0.3,2.4-0.3,3.5-0.8c3.1-1.5,1.8-4.2,2.5-6.3c0.1-0.3-0.2-0.6-0.5-0.7h-0.1c-0.5,0-0.9,0.2-1.1,0.5c-0.9,1.3-2.2,2.2-3.6,2.8
	c0.5-1,1.1-2,1.8-3c0.9-1.1,2.5-1.7,0.3-3.4c-1.3-1-1.5-0.7-2.3-0.1c-0.4,0.2-0.5,0.9-1.4,0.7c0-1.3,1.1-2,1.9-2.8
	c1.1-1.1,0.2-2-0.2-3c-0.5-1.3-1.3,0.2-2.1-0.2c2.1-1.7,0.3-2.9-0.8-3.7c-1.6-1.2-1.9,0.3-2.7,1.4c-2.2,2.9-3.3,5.8-1.8,9.2
	c-0.1,0.1-0.2,0.2-0.3,0.2c-1.1-0.5-0.8-1.9-1.9-2.4c-0.3-0.2-0.7-0.2-1-0.2c-0.4,0.1-0.3,0.5-0.2,0.9c0.3,0.8,1.4,2-0.9,1.5
	c-0.4,0-0.7,0.2-0.8,0.6c0,0.1,0,0.3,0.1,0.4c0.7,2.2-0.2,4.8,1.7,6.8c-1.6,0.5-1.7-1.3-3.2-1.2c0.3,1.1-0.3,2.4,1.1,3.2
	c0.7,0.4,0,0.7,0.1,1c0.2,1.3-1.7,1.4-1.6,2.8c0.2,2.1,1.1,3.2,3.5,3.6c-1.3,0.8-2.2,1-3,0c-0.3-0.5-0.8-0.9-1.4-0.8
	c-1,0.3-0.2,1-0.3,1.6s-0.1,1.8-1,1.4c-1.7-0.7-3.4-0.1-5.1-0.3c-0.6-0.1-1.3-0.6-1.8,0.2c-0.5,0.7-0.3,1.6,0.3,2.1
	c0.4,0.3,1.2,0.7,0.7,1.3c-1.8,1.8-0.8,3.3,0.2,5c0.3,0.5,0.5,1.1-0.4,1.3c-0.6,0.1-1.5,0-1.5,0.6s0.8,1.2,1.4,1.7
	c0.4,0.2,0.8,0.3,1.2,0.4c0.4,0.1,0.6,0.4,0.5,0.8l0,0c-0.2,0.3-0.6,0.5-0.9,0.3l0,0c-1.6-0.6-3.2-1.3-3.8-2.9
	c-0.6-1.8-1.7-3.3-3.3-4.3c-0.8-0.5-2.2-1.3-0.7-2.6c0.6-0.4,0.3-1-0.1-1.4s-0.8-0.7-0.4-1.2c1-1.3,0.4-2.6,0-3.9
	c-0.3-1-0.7-1.5-1.8-0.6c-1.3,1.1-1.4,0.1-1.5-0.8c0-0.9-0.1-1.9-0.2-2.8c-0.2-0.9-0.7-2.2-1.7-2.1s-1.7,1.2-1.9,2.2
	c-0.1,1.2-0.5,2.4-1.2,3.4c-0.6,0.8,0.2,3.3,1.1,3.5c2.3,0.4,1.6,1.3,0.5,2.3c-1.5,1.3-2.5,3-2.9,4.9c-0.5,2.7-1,5.2-3.7,6.9
	c-0.2,0.1-0.4,0.3-0.5,0.6c0.4,1.5-0.9,2-1.8,2.8c-1.2,1-2.5,1.9-2.2,3.7c0,0.8-0.5,1.5-1.3,1.8c-0.7,0.3-1.2,1-1.3,1.7
	c-0.2,1.1-0.9,2.1-1.9,2.6c-2,1.3-2,1.7-0.2,3.2c0.4,0.3,1.1,0.5,1.1,1.2c-0.5,0.6-1.4,0-1.8,0.7c0,0.6,1.3,1.3,0.6,1.7
	c-1.7,0.7-1.7,3-4.1,3c-1.4,0-2.2,0.8-0.7,1.8c1.7,1.2,0,1.6-0.7,2.2c-0.5,0.4-1.3-0.3-1.9,0.4c1.3,1.6,3.3,2.5,5.4,2.4
	c-1.3,1-2.4,1.2-3.6,0.7c-0.9-0.4-1.7-0.8-2.5-1.3c-0.5-0.4-1.2-0.4-1.6-0.1c-0.6,0.6,0.1,1,0.6,1.3c0.8,0.5,1.7,0.8,2.6,1.1
	c1,0.3,1.6,0.9,0.7,1.6c-1.2,1-2.8,1.5-2.6,3.5c0.1,0.5-0.8,1.6-1.1,2.5c-0.3,0.6,0.7,4.5-2.1,1c-0.1-0.1-0.1-0.1-0.2-0.1
	c-2.5,0.3-3.1-1.8-5-2.8l1.1-0.3c0.6-0.2,1.6-0.1,1.5-0.9c0-0.6-0.8-0.7-1.4-0.9c-0.9-0.4-1.8-0.7-2.9-1.1c1.5-0.5,1.5-1.5,1.4-2.6
	c-0.2-1.7-1-3.4-0.9-5.2c0-1-0.8-1.2-1.6-1.4c-3.1-0.8-3.5-1.5-2.6-4.1c0.4-1-0.3-1.7-0.9-2.3c-0.2-0.3-0.7-0.4-1-0.2
	c-0.6,0.6-1.4,1.5-1.1,2.1c1,1.6,0.1,3.2,0.6,4.8c0.4,1.2,0,2.6-1,3.3c-0.9,0.7-1.2,1.8,0.3,2.5c0.6,0.3,1.1,0.9,0.7,1.3
	c-1,1.1-2.1,1.9-1.6,3.6c0.2,0.5-0.8,0.5-1.3,0.4c-1.7-0.1-3.3-0.3-4.9-0.5c-0.7,0-1.3-0.5-1.4-1.2c0.4,0.1,0.7,0.1,1.1,0.2
	c1.3,0,2.6-0.4,2.8-1.6s-1.3-0.8-2-1.1c-0.5-0.2-0.9-0.4-1.4-0.6c-1.1-0.4-0.9-1.3-0.2-1.5c1.7-0.4,2-1.4,2.8-2.7
	c1.3-2.2,1.6-2.1-0.9-2.9c0.5-0.1,1-0.3,1.3-0.7c0.5-0.9,2.6-1.1,2-2.1c-0.4-0.9-2.2-0.3-3.4-0.6c-0.7-0.2-2.3,0.6-2-0.6
	c0.3-1-0.9-3.2,2-3.1c1.4,0,2.5-0.9,3.7-1.5c0.4-0.2,1-0.6,0.6-1.1c-0.3-0.4-0.8-0.4-1.2-0.2c-1.1,0.3-2.1,0.4-2.8-0.5
	c0.6-0.8,2.2-1.4,1.8-2.3c-0.5-1-1.8,0.1-2.8,0s-3.3,0.7-1.7-1.7c0.1-0.2,0.1-0.4-0.1-0.6c-0.1,0-0.1-0.1-0.2-0.1
	c-1.6-0.2-2.3-1.4-3.3-2.5c2.4,0.4,1.1-2.3,2.9-2.6c0.6-0.2,0.9-0.7,0.8-1.3c-0.2-0.5-0.9-0.3-1.4-0.5c-0.8-0.2-1.6-0.2-2.4,0
	c-1.6,0.2-3.1,0.3-4.5-1.1c1,0.4,2.2,0,2.8-0.9s1.5-1.4,2.6-1.5c1.2-0.2,2.4-0.6,3.5-1.3c0.6-0.2,1.2-0.5,0.9-1.2s-1-0.2-1.4,0
	c-1.9,0.5-3.8,0.9-5.7,1c-2.2,0.3-3.7-1.1-3-2.8c0.4-1,1-1.8-0.3-2.6c-0.1-0.2-0.1-0.4-0.1-0.5c1.7-1.4,0.1-1.9-0.9-2.5
	s-1.4-1.4-0.7-2.4c0.6-0.8,1.9,0,2.4-0.8s-1.9-0.9-0.6-2c0.5-0.4,0-1-0.6-1c-2.2,0.3-1.7-1.1-1.7-2c0-1.7,0.2-3.4,0.3-5.1
	c0-0.6,0.4-1.5-0.4-1.6c-0.6,0-1.2,0.5-1.2,1.1c0,0.1,0,0.2,0,0.3c0.1,2.5-0.7,4.9-0.7,7.4c0,2.5,0.3,4.7-2.5,6.2
	c-0.9,0.5-0.5,1,0.4,1.2c0.5,0.1,1-0.2,1.5,0.2c-0.2,0.9-1.8,1.1-1.7,2s0.2,1.8-0.9,1.8s-0.7-1.3-0.8-2c-0.3-6.5-0.7-13.1-1-19.6
	c0.1-0.8-0.4-1.6-1.1-1.9c-0.3,3.6,0.2,7,0.2,10.5c0.2,6.6,0.1,13.1-0.3,19.7c0.1,0.5-0.2,0.9-0.7,1c-0.1,0-0.2,0-0.3,0
	c-1,0.1-2,0-2.9-0.4c-2.5-1.7-5.3-1.8-8.3-1.7c-0.8,0-3,1.2-2-1.3c0.1-0.3-0.5-0.6-1-0.6s-1.2-0.2-0.8-0.8c0.5-0.9-0.2-1.4-0.7-1.9
	c-1-1-0.8-2.4-1.1-3.6c-0.1-0.3,1.6-0.3,0.9-1.2c-0.6-0.8-1.6-1.1-2.6-0.8c-1.2,0.4-2.5,0.5-3.7,0.3c0.5-0.3,1.1-0.5,1.7-0.6
	c1.8-0.2,2.1-0.7,1.1-2.2c-0.6-0.9-1.8-1-2.1-2c-0.3-1.3,0-2.7,1-3.6c0.8-0.5,1-1.6,0.4-2.4c-0.2-0.3-0.5-0.5-0.8-0.6
	c-1.2-0.7-2.4-0.8-3.3,0.6c-0.3,0.4-0.7,0.7-1.2,0.9c-1.3,0.5-1.2,1.2-0.4,2.1c1.4,1.5,1.1,2.6-0.9,3.3c-1.6,0.5-3.7,0.3-4.3,2.3
	c-0.3,0.3-0.6,0.4-1,0.3c-1.2-0.4-2.1,0.3-3.1,1c-0.6-1.9,0.5-3.3,0.9-4.7c0.3-1.3,0.2-2.1-1.2-2.6c-1-0.4-0.9-1.1-1-2
	c-0.1-1.9-0.4-3.7-0.8-5.6c0-0.5-0.5-0.8-0.9-0.7c-0.4,0-0.8,0.3-0.8,0.7c0,0.1,0,0.2,0,0.3c0.4,0.9-0.5,1.5-0.7,2.2
	c-0.3,1.3-2.2,2.5-1.2,3.8c1.2,1.7,0.1,2.4-1,3c-3.5,1.9-3.5,1.9-1.2,4.5c0,0.1,0,0.1,0,0.2c-2.6,0.5-4.7-0.2-4.4-1.4
	c0.2-1.1-0.1-2.3-0.8-3.2c-0.3-0.6-0.3-1.6-1.5-1.6c-0.9,0-1.7,0.5-2.3,1.2c-0.5,0.7-0.7,1.5-0.8,2.3c-0.2,0.9-0.4,1.8-1.5,2.1
	c-1.5,0.3-1.5,1.1-1.1,2.1c0.4,1.2,1.1,2.5-1,3.2c-0.7,0.2-0.5,0.9-0.2,1.4c0.9,1.4,0.1,2-1.4,2.2c-0.4,0-0.9,0.2-1.2,0.4
	c-0.6,0.6-1.6,0.7-2.3,0.2c-0.7-0.4-0.3-1.1-0.1-1.7s0.5-0.9-0.2-1.3c-0.5-0.4-1.2-0.4-1.7,0c-0.8,0.7-2,1.2-1.4,2.7s-0.6,3-2.5,3
	c-1.8,0-3.5,0.6-4.8,1.8c-0.4,0.6-1.3,0.9-2,0.6c-1.2-0.6-1.6-0.3-2.2,0.7s-2,1.7-3,0.8s0.5-1.4,1.1-2c0.3-0.2,0.5-0.5,0.7-0.8
	c0.4-0.9,1.8-2.3,1-2.7c-1.4-0.7-1.5-2.6-3.5-2.6c-2.3,0-1.8-0.9-0.8-2.1c0.5-0.6,1.7-1.1,0.8-2c-0.9-1.1-2.1-1.9-3.4-2.2
	c-0.2,0-0.4,0.1-0.5,0.2c-0.2,1.7-3.3,2.2-2.3,4.4c-0.1,0.2-0.2,0.5-0.5,0.6c-1.7,2.2-5.4,3.4-4.1,7c0,0.1-0.1,0.2-0.3,0.3
	c-0.8,0.4-1.2,1.3-0.9,2.1l0,0l0,0l0.1,0.1c0.2,0.5,0,1.1-0.5,1.3l0,0h-0.1c-0.6,0.1-1,0.7-0.9,1.3c0,0.1,0.1,0.2,0.1,0.4
	c0.3,0.6,0.1,1.4-0.4,1.8c-0.3,0.3-0.5,0.7,0,1c1.4,0.9,0.1,1.2-0.4,1.5c-0.8,0.4-5.8-0.2-6.5-0.7c-0.3-0.3-0.5-0.7-0.5-1.1
	c0.3-3.4-0.6-6.8-1.2-10.1c-0.3-2.1-0.4-4.2-0.4-6.2c0.1-0.7-0.3-1.3-1-1.4l0,0l0,0c-0.4-0.1-0.7,0.1-0.8,0.5c0.5,1.2-1,2.3-0.2,3.4
	c0.5,0.7,0,1.2-0.7,1.4s-1.4,0.5-2.1,0.8c-1.1,0.4-2.5,1.6-3.2,0.6s1.4-1.2,2-2c0.3-0.4,1.1-0.8,0.7-1.3c-0.4-0.4-1-0.4-1.5-0.1
	c-3.4,1.8-7,0.5-10.4,0.4c-1.8-0.1-3.6,0.3-5.2,1.2c-0.7-0.4-0.7-1.4-1.6-1.7c-0.5-0.2-1.4,0-1.3-0.8c0.1-0.6,0.9-0.6,1.4-0.9
	c0.7-0.3,1.9-0.6,0.8-1.5c-1.3-1.2,0.2-2.4-0.1-3.6c0-0.2,0.8-0.4,0.6-0.9s-0.9-0.2-1.4-0.2s-1,0.7-1.7,0.2c0.2-1,2.3-2.2-0.5-2.8
	c-0.4-0.1-0.5-0.6-0.4-0.9l0,0l0,0v-0.1c0.4-0.8-0.1-1.7,0.4-2.6c0.3-0.5,0.1-1.2-0.4-1.5l0,0l0,0l-0.2-0.1
	c-0.6-0.3-0.9,0.2-1.2,0.6s-0.9,0.8-1.3,1.1c-0.4,0.5-1.2,0.7-1.8,0.4c-0.7-0.4,0-0.8,0-1.2c0.2-1.2-1.3-2.2-2.1-1.3
	c-2,2.2-2.7-0.4-3.8-0.8s-0.4-3,1-3.5c0,0.7-1.2,1.6,0,2.2s1.9-0.1,2.7-0.9c1.3-1.2,1.9-2.9,1.7-4.7c0-0.5-0.1-1.3-0.9-1.2
	c-1.5,0.3-3.4-0.6-4.4,1.3c-0.2,0.5-0.8,0.7-1.3,0.5c-0.2-0.1-0.4-0.3-0.5-0.5c-0.5-1.1-1.2-1.2-2.3-0.8c-0.9,0.3-1.9,0.4-2.9,0.1
	c-0.4-0.1-0.7,0-1,0.2c-0.2,0.3-0.1,0.6,0.1,0.8l0.1,0.1c2,1.4,1,2-0.7,2.4c-0.5,0.1-0.8,0.3-0.8,0.8c1.2,0.7,2.7,0.7,4,1.2
	c0.6,0,1.1,0.4,1.3,1c0,0.7-0.5,0.8-1.1,1.1c-0.8,0.3-1.6,0.8-2.4,1.1s-2.2,1-1.6,1.8s0.8,2.3,2.5,2.5c3.2,0.3,4.6,3,3,5.6
	c-0.2,0.5-0.7,0.8-1.3,0.7c-0.8-0.2-0.2-0.6-0.2-0.9c0.1-1-0.7-0.7-1.1-0.5c-1.3,0.7-2.5,1.5-3.7,2.3c-3.9,2.2-8.9,2.1-12.9,4.2
	c-0.3,0.1-0.6,0.1-0.9,0c-2.1-0.8-4.2-0.2-6.2-0.1c-1,0.1-2.1,0.2-3.1,0.2c-0.9,0.1-1.7-0.5-1.9-1.4c0-0.1,0-0.2,0-0.2
	c0.1-3.1-1-4.4,3.4-5.6c0.6-0.2,1.1-0.4,1.6-0.7c0.4-0.2,1.2-0.3,1-0.9s-0.8-0.9-1.4-0.7c-1.1,0.2-1.8,0.1-2-1
	c-0.1-0.5-0.7-0.8-1.2-0.7c-1.8,0.3-1.7-0.6-1.4-1.7c0.1-0.5,0.2-0.9,0.2-1.4c0.1-0.6-0.3-1.2-1-1.3c-0.1,0-0.2,0-0.3,0
	c-1.1,0-1.1,0.5-1.2,1.3c-0.2,1.2-0.6,2.3-1.2,3.3c-0.2,0.3-1.4-0.1-1.7,0.6s1.4,0.6,1,1.6h-1.5c-0.9,0.1-2.1-0.3-2.1,1.2
	c0,1.1,0,2.2,1.9,2c0.6,0,1.2,0,1.8,0.2c0.8,0.2,2-0.3,2.1,1c0.2,1.1-0.8,1.3-1.6,1.6c-0.4,0.2-1,0.2-1,0.7c0.1,0.7,0.8,0.5,1.3,0.4
	c0.4-0.2,1-0.1,1.2,0.4c0.2,0.4,0.1,1-0.4,1.2c-0.3,0.3-1,0.4-1,1.1c0.2,0.1,0.3,0.2,0.5,0.3c0.5,0.2,1.3,0.5,1,1.2
	c-0.3,0.8-1,0.2-1.5,0c-1.6-0.4-3.3-0.2-4.8,0.5c-2.1,1-2.8,0.7-3.7-1.2c-0.3-0.8-0.4-1.7-0.3-2.6v-6.7c-0.6,0.7-0.9,1.6-1,2.5
	s-0.4,1.7-0.6,2.6c-0.8,2.3-3.2,4-5.2,3.8c-0.6,0.1-1.2-0.1-1.6-0.5c-0.3-0.5,0.4-0.9,0.8-1.3c0.8-0.6,1.2-1.6,1-2.5
	c-0.6-0.9-1.3-1.8-2.1-2.6c-0.5-0.6-1.2,0.1-1.5,0.7s-0.5,1.5-1.4,1.4c-2.3-0.2-4.4,0.8-6.6,1c-0.5,0.1-1.1-0.1-1-0.5
	c0.7-1.7-0.3-4,2.1-5.2c0.6-0.3,1.7-0.5,1.1-1.4c-0.5-0.7-1.3-0.2-2,0c-0.3,0.1-0.6,0.1-0.9,0.2c-0.3-1.9,1.9-2.5,2.4-3.9
	c-1.1-0.5-1.8,0.9-3.1,0c1.6-0.3,2.7-0.9,0.8-2c-0.1-0.1-0.1-0.3,0-0.4c1.8-2.9-0.4-2-2-1.6c-3.6,0.7-3.6,0.8-1.6,3.5
	c1.2,1.6,0.1,3.1,0.3,4.7c0.1,1-1.4,0.3-2,0.8c-1,0.8-1.7,1.8-2.2,3c-0.3,0.9,1.2,0.7,1.9,1.3c-0.6,0.3-1.8-0.1-1.6,1s1.1,1,2,1
	c0.1,0,0.3,0,0.5,0c0.8-0.2,1.6-0.3,1.8,0.7s-0.7,0.9-1.2,1.2c-2,1.3-4-0.3-5.9,0c-1.2,0.2-1.5-0.3-1.5-1.4c0.1-2.2-1-4.3-1.2-6.8
	c-1.1,1.1-1,2-1.5,2.8c-0.6,1.2-0.6,2.7-2.2,3.4c-1,0.4-1.5,1-0.9,2.1c0.3,0.5-0.2,1-0.3,1.5c-0.1,1.2-1.7,1.8-1.5,3.1
	c0.1,0.4,0.5,10.5-0.1,10.5s-1.3-9.9-1.4-10.4c-0.3-1.4-0.8-2.8-0.2-4.2s-0.2-1.8-1.5-1.6s-1.4-0.1-1.8-1.3c-0.6-2-0.1-4-0.4-6
	c-0.1-0.7,0.3-1.6-0.8-1.6c-0.7,0-1.2,0.7-1.2,1.4c0,0.1,0,0.1,0,0.2c0.1,1.9-0.5,3.7-1.6,5.2c-0.6,1-0.3,1.4,0.8,1.9
	c-1.4,0.1-3.7,0.8-3.4-0.5c0.4-2.2-0.6-1.5-1.8-1.4c-1,0-2-0.1-3-0.2c-0.2-0.3-0.1-0.6,0.2-0.8c0.8-1.4,1.8-2.7-1.1-3.2
	c-0.8-0.2-1.4-0.9-1.6-1.7l0.6-0.1c0.8-0.2,2.1,0.5,2.4-0.6c0.3-1.3-1.1-1.5-2.1-1.7c-1.7-0.4-2.7-1.3-2.9-2.9
	c-0.1-0.4-0.4-0.7-0.7-1c-1.8-2.3-1.1-4,1.8-4.4c0.2,0,0.4-0.1,0.7-0.1c0.6,0,1-0.4,1-1c0-0.1,0-0.1,0-0.2c-0.1-0.5-0.7-0.9-1.2-0.7
	l-0.2,0.1c-0.8,0.3-1.7,0.3-2.4-0.2c1.2-1,2.6-1.7,3.4-2.9c0.4-0.6,0.8-1.3-0.6-1.3S760,51,761,49.9c0.3-0.3,0.7-0.6,0.3-1
	c-0.4-0.2-0.9-0.2-1.2,0.1c-0.8,0.5-1.6,1-2.8,1.8c0.2-0.6,0.4-1.1,0.8-1.6c2-1.4,0.3-2.7-0.2-4c-0.2-0.7-1-1.1-1.7-0.9
	c-0.1,0-0.2,0.1-0.3,0.1c-0.6,0.5-1.2,1.3-0.2,2.1s0.1,1.5-0.3,2.2s-0.8,1.3-1.9,0.4c-0.5-0.4-1.1,0.2-1.5,0.5
	c-0.4,0.2-0.5,0.7-0.3,1.1c0.1,0.1,0.2,0.2,0.3,0.3c1,1,0.5,1.7-0.5,2.4c-0.8,0.5-0.8,0.9-0.3,1.8c0.6,1.3,0.7,2.8,0.5,4.2
	c-0.2,1.2-1.8-0.3-2.4,0.5c2.2,1.7,2.2,3.8,0.2,3.6c-3.3-0.3-3.7,1.8-5,3.2c-0.2,0.3-0.6,0.5-1,0.4c0-0.3,0-0.6-0.1-0.9
	c-0.7-0.8-1.8-1.6-0.1-2.5c0.3-0.2-2.2-3.7-2.7-3.6c-0.6,0-1.1,0.4-1.2,1c-0.1,1-1,1.5-1.7,2c-2.7,1.7-6.1,1.8-9,3.2
	c-0.4,0.2-0.9-0.1-1.1-0.5l0,0l0,0c-0.2-0.8,0.6-0.6,1-0.7c2,0.2,3.8-1.1,4.3-3.1c-0.6-0.7-1.8,0.1-2.3-0.9c0.7-0.9,3.3-0.1,2.7-2.2
	c-0.3-1.1,0.4-2.8-1.9-2.9c0.3-0.9,1.6-0.9,1.3-1.9c-1-0.2-1.9,0.4-2.8,0.5c-1.1,0.2-2.4,1.3-3.3,0.2s0-2.2,0.5-3.3s1.5-1.8,2.6-2.1
	c0.6-0.2,1.1-0.3,1.7-0.5c0.4-0.1,0.8-0.3,0.6-0.7c-0.2-0.3-0.6-0.5-0.9-0.3H731c-1.5,1.6-3.1-1.7-4.5,0.1c-0.2-0.2-0.4-0.5-0.5-0.8
	c0.3-1.9-0.4-4,1.2-5.6c0.3-0.3,1-1.2,0.3-1.3c-2.2-0.3-1.5-1.8-1.7-2.9c-0.2-0.8-0.5-1.1-1.1-0.4c-1.6,1.7-3.9,3-4.2,5.5
	c0,0.3-0.2,0.6-0.5,0.6c-0.2,0-0.3,0-0.4-0.1c-1.3-0.6-1.5,0.1-1.8,1c-0.4,1.2-2,2.2-1,3.8c0.1,0.5-0.2,0.9-0.7,1l0,0H716
	c-1.7-0.2-3,0.9-4.3,1.1c-1.6,0.2-2.2,1.5-3.7,1.5c-2.7,0.1-4,1.5-4,4c0.1,0.3,0.1,0.7,0,1c-0.2,0.8-1.1,1.2-1.8,0.9l0,0l0,0
	l-0.2-0.1c-0.9-0.3-1-1-0.1-1.5c0.3-0.2,0.6-0.5,0.2-0.8c-1.7-1.6,0-2.1,1-3c0.6-0.4,1.6-0.5,1.6-1.5c-1.1-0.7-1.9,0.8-3.1,0.3
	c0.9-1.5,1.1-2.5-1.4-1.8c-0.4,0.1-0.9,0-1.3-0.2c-1.1-0.9-2.6-1-3.7-0.2c-0.7,1-0.7,2.3-0.2,3.3c1,1.8-0.1,2.6-1.5,3.1
	c-1.6,0.7-0.9,1.1,0,1.6c0.3,0.2,0.7,0.3,1,0.5c0.4,0.1,0.7,0.6,0.6,1c-0.3,0.4-0.8,0.5-1.2,0.3c-0.7-0.3-1.5-0.3-2.2,0.1
	c-0.7,0.5-1.1,0.1-1.5-0.6c-1.2-1.8-2.7-2-4.5-0.5c-0.2,0.2-0.5,0.3-0.8,0.4c-1.7,0.1-2.5,0.8-2.4,2.5c-0.5-1.2-0.8-2.4-1-3.6
	c-0.1-1.2,0.8-2.7-0.7-3.3s-2.1,1.3-3.5,1.5c-0.3,0-0.6,0.2-0.7,0.5c0,0.2,0,0.4,0.2,0.5c1.3,1.5-0.4,1.4-1,1.2
	c-2.1-0.5-3.1,1-3.6,2.1c-0.8,1.8-2.1,1.9-3.8,1.9c-0.7,0-1.6-0.3-1.6,0.6c-0.2,1.6-0.6,3.2-1.2,4.7c-0.2,0.8,0.2,1.7,1,2.1
	c0.2,0.2,0.9,0.2,0.4,0.6c-0.2,0.3-0.6,0.5-0.9,0.5c-0.9,0-2.3-2.8-1.6-3.3c1.2-0.9,0.4-1.5-0.4-1.8c-3.2-1.3-5.9-4.1-10.1-2.3
	c0.1-0.9,1.5-1.7-0.1-2.1c-0.4,0-0.8-0.4-0.8-0.8l0,0l0,0l0,0c0.2-0.7,0.9-1,1.6-0.9c0.7-0.2,1.5-0.2,2.2,0.1c1.5,0.5,2.4-0.3,3.5-1
	c0.3-0.2,0.5-0.6,0.3-0.9c-0.2-0.5-0.7-0.3-1.1-0.2c-1,0.3-2,0.6-3,0.8c-2.1,0.4-3.5-0.7-2.8-2.4c0.6-1.4,0.3-3,1.5-4.2
	c0.3-0.2,0.4-0.7,0.2-1l0,0c-0.5-0.5-0.9,0-1.4,0.2c-2.6,0.9-2.4,2.8-2.4,4.7c0,0.9,0.3,2.2-0.8,2.5c-1.5,0.5-1.4,1.2-1.4,2.3
	s-0.5,1.8-2,1c-0.5-0.3-1-0.4-1.5-0.4c-2.8,0.1-3.5-2.5-5.5-3.4c0.4-3.6-2.7-2.7-4.8-3c-0.5-0.1-1.1-0.1-1.9-0.2
	c1.7-0.9,1.3-2.6,2.2-3.6c1.4-1.5,0.3-1.8-1.1-1.9c-0.8-0.1-1.6-0.2-1.5-1.1c0.3-1.9-0.5-3.6-0.8-5.4c-0.1-0.6,0.1-1.5-0.9-1.4
	s-1,0.9-0.9,1.6c0.2,1.6,0.3,3.3-1.3,4.5c-0.6,0.5-0.3,1.1,0,1.7c1,2-1.8,3.3-1.1,5.2c0,0.1-0.5,0.2-0.7,0.5
	c-0.6,0.7-1.6,1.1-2.6,0.9c-0.7-0.2-1.5,0.1-1.9,0.8c-0.4,0.9,0.5,1.1,1.1,1.5s1.6,0.5,1.3,1.6c-0.9,0-1.8-0.4-2.4-1
	c-0.4-0.4-0.7-1.5-1.6-0.8c-0.6,0.5-0.8,1.3-0.4,2l0.1,0.2c1.6,1.6,0.5,3.9,2.3,5.4c-1.8-0.1-3.1-1.3-4.9-0.2c0.2-1.6-0.2-3,1.4-3.9
	c0.3-0.3,0.5-0.7,0.4-1.1c0-1.8-1.2-3.1-2.1-4.5c-0.6-0.7-1.5-0.8-2.2-0.5c-4.4,1.5-5.1,2.5-4.5,6.7c0,0.1,0,0.3,0.1,0.4
	c0.2,0.7-0.1,1.4-0.6,1.9c-1,0.6-0.8-0.7-1.4-0.8c-1.1-0.2-0.8-0.4-0.3-1c0.6-0.8,0.9-1.8,1.1-2.8c0.3-0.8-0.2-1.7-1-1.9
	c-0.2-0.1-0.4-0.1-0.6-0.1c-1.5-0.1-2-0.6-1.6-2c0.3-1,0.1-2-1.4-2c-1.3,0-1.7,1-1.7,2c0.1,0.4,0.1,0.8,0.2,1.2
	c0.2,1.6-0.2,2.8-2.5,2.8c-1.7,0-2.2,0.8-1.6,2.3c-0.9-0.1-1.8-0.1-2.7,0c-0.8,0.2-2.1,0.4-2.3-0.2c-0.3-0.8-0.3-2.3,0.3-2.8
	c2-1.4,3.4-3.8,6.5-3.7c0.5,0.2,1.1-0.1,1.2-0.6c-0.1-0.4-0.4-0.8-0.8-0.9c-1.6-1.2-3.5-1.2-5.3-1.1c-1.6,0.2-3.1-0.6-3.7-2.1
	c-0.2-0.5-0.2-1.1-1-1.1c-0.6,0-1.1,0.4-1.2,1c-0.3,0.8-0.7,1.7,0,2.5c0.4,0.4,0.8,1.2,0.2,1.4c-2.7,1.1-1.1,2.7-0.8,4.1
	c0.2,0.7,0.8,1.4,0.1,2.1s-1.8,0.2-2.5-0.2c-0.9-0.6-2.2-0.5-3,0.2c2.1-3.8,2-4-0.8-4c0.5-0.8,0.4-1.9-0.1-2.7
	c-0.4-0.7-1.3-1.8-0.2-2.6s1.4,0.7,2.2,0.8c0.3,0.1,0.5,0.3,0.8,0.4c0.6,0.2,1.2,0.1,1.6-0.4c0.4-0.6-0.3-0.8-0.6-1.1
	c-1.8-1.3-3.7-2.4-5.7-3.2c-1.1-0.6-4,0.8-4.2,1.9c-0.2,0.9,0,2.3,1.1,2c2.3-0.7,1.4,1,1.8,1.6s-0.2,1.3-0.6,1.8
	c-0.4,0.3-1,0.3-1.4-0.1c-0.6-0.3-0.9-1-0.7-1.7l0,0c0.3-0.7,0-1.5-0.7-1.8c-0.4-0.2-0.8-0.2-1.1,0c-1.4,0.4-1.5-0.2-1.9-1
	c-0.3-0.9-1.3-1.4-2.2-1.1c-0.3,0.1-0.5,0.2-0.7,0.4c-1.4,1-2.5,2.2-4.6,1.8c-0.5-0.1-0.5,0.4-0.6,0.7c-1,2.6-0.4,3.4,2.7,3.2
	c0.2,0,0.4,0.1,0.7,0.1c-1.6,1.4-3.1,2.9-2.2,4.9s-0.5,2.2-1.7,2.5s-1.8,0.4-1.5,1.7c0.2,0.9-1.9,2.6-2.9,2.8
	c-1.6,0.2-2.7-0.7-3.9-1.3c-0.8-0.4-2.8-0.2-2.4-1.3s1.7,0.1,2.7,0.2s2.3,0.6,2.7-0.6c0.3-1.1-0.7-1.7-1.8-1.8
	c-0.8-0.1-1.6-0.2-1.8-1s0.7-0.8,1.1-1.2c1.6-1.4,1.6-1.7-0.5-2.7c-1.1-0.3-1.8-1.4-1.7-2.5c0.1-2.2-0.5-4.4,0-6.6
	c0.1-0.5-0.2-1-0.7-1.2s-1.1,0-1.4,0.5c-0.8,0.7-1.2,1.7-1.3,2.7c-0.5,3.3-0.5,6.7-1.7,10c-0.2,0.5-0.1,1.1,0.3,1.5
	c1.5,1.6,0.2,1.6-1.1,1.6c-0.1-1.1,0.4-2.5-1.1-3.1c-1.1-0.5-1.8,0.5-2.6,1.1c0-1.2-0.3-2.2-1.7-2c-0.9,0-1.7,0.8-1.7,1.8
	c0,0.2,0,0.4,0.1,0.5c0.4,1.1,0.2,1.5-1.1,1.6c-0.4,0-0.7,0.3-0.8,0.6c-0.3,0.5-0.7,1.2-1.3,0.7s0.2-0.9,0.7-1.2
	c0.6-0.3,0.9-1,0.6-1.6c-0.2-0.5-0.8-0.7-1.3-0.5l0,0l0,0c-1.7,0.7-2.5,0-3-1.3c-0.2-0.2-0.6-0.4-0.9-0.5c1.2-0.6,2.5-1.1,3.8-1.8
	c0.6-0.3,0.9-1,0.7-1.6c-0.3-0.5-0.9-0.8-1.5-0.6c-1.6,0.1-2.5-1.1-3.7-1.3c1.3-1.8,2.3-3.7,4.4-4.8c0.3-0.3,0.4-0.7,0.4-1.1
	c0.2-0.5,0-1.1-0.5-1.5c-0.5-0.3-1.2-0.1-1.5,0.4c-0.6,0.7-1.5,1-2.4,0.8c-0.5-0.1-1.5,1.1-1.4-0.1c0-0.7-0.1-2.1,1.5-2.2
	c0.4,0,1,0.7,1.2-0.2c0.2-0.5,0.1-1-0.2-1.3c-1.1-1-2.6-1.5-3.5-2.7c-0.3-0.4-0.8,0-1.2,0.2c-1.3,1.1-2.7,2.1-1.2,3.9
	c0.6,0.9,0.8,1.9,0.6,2.9c-0.7,0-1.3-0.3-1.8-0.8c-1-0.7-2.1-1.9-3.1-1.9c-2.8,0.1-5.8-0.5-8.5,0.8c-0.5,0-0.8,0.4-0.8,0.8
	c0,0.5,0.4,0.8,0.8,0.8c0.1,0,0.3,0,0.4-0.1c1.2,0,2.4,0,3.6-0.1c1-0.1,1.8,0.1,2,0.9c0.8,3.3,1.9,6.7-0.1,10.1
	c-0.6,1.1-1.6,2.3-1.7,3.4c-0.2,2,2,4-0.1,6c0,0.2,0,0.4,0.1,0.6c0.2,2.2-0.1,2.5-2.8,2.5c0.2-0.6,0.4-1.3,0.7-1.9
	c0.6-1,1-1.7-0.9-1.9c-1-0.2-1.8-1-2-2c-0.1-0.4,0.1-0.9-0.5-1.1c-0.6-0.4-1.4-0.3-1.9,0.2c-1.2,1.6-2.9,1.1-4.5,1
	c-1.9-0.2-3.5-1.3-5.6-0.7c0.5-0.9,1.5-0.5,2.1-0.8c0.9-0.5,1.4-1,0.5-1.9c-1.4-1.2-2.8-2.5-3-4.3c0-0.5-0.4-0.9-0.9-0.9l0,0h-0.1
	c-0.5-0.1-1,0.2-1.2,0.7c-0.1,0.7-0.7,1.3-1.4,1.3H501c-0.8,0.1-0.3,1-0.6,1.5c-0.2-0.6-0.7-1-1.2-1.3c-1.8-1.2-2.3-1.1-2.8,0.9
	c-0.3,0.8-0.3,1.6-0.2,2.4c0.2,1.1-0.8,1.3-1.6,1.3c-1.2,0-0.6-0.8-0.6-1.3v-3.8c-0.1-0.9-0.8-1.6-1.7-1.7c-0.7-0.2-3,3.3-2.6,3.9
	c0.4,0.5,0.8,1,1.3,1.4c-2.5-0.5-3.9,0.5-2.8,2.2c0.9,1.5-0.2,2.4-0.2,3.6c0.1,0.6-0.2,1.2-0.8,1.3c-0.1,0-0.3,0-0.4,0
	c-1,0-1.8,1-1.2,1.4c1.7,1.3-0.3,1.4-0.5,2.1s-2,6.4-2.8,6.4c-0.5,0,0-3.2,0.3-3.7s0-3.8,1.4-4s1.2-1.2,1.1-2.1s-0.8-1-1.6-1
	c-0.5,0.1-1-0.1-1.3-0.5c1.3-0.9,1.2-1.6-0.2-2.6c-1.1-0.8-0.5-2.3-1.1-3.3c-0.5-0.8,0.7-0.7,1-1.1c0.6-0.8,0.4-1.3-0.6-1.4
	s-2.1,0.1-3.1-0.4c-0.8-0.4-1.8-0.8-2.5,0s0.2,1.4,0.7,2c1.8,2.5,1.6,3.5-0.8,5.4c-1.4,1-1.6,0.4-1.8-0.7c-0.2-1.3-0.3-2.7-0.4-4
	c0-0.6-0.3-1.1-0.9-1.2c-0.5-0.1-1,0.1-1.1,0.6c0,0.1,0,0.3,0,0.4c-0.2,2.3-2.7,3.5-3.1,5.7c0,0.3-0.3,0.6-0.7,0.5h-0.1
	c-1.8-0.2-2,1-2.5,2.2s0.4,2.7-0.6,3.7c-2.6,2.5-2.5,5.6-2.7,8.7c-0.1,1.7,1.6,5.8-2.1,1.2c3.6-1.4,0.4-2.8,0-4.2
	c-0.4-1.4-1.6-0.2-3,0.1c0.9-0.6,1.6-1.5,2.1-2.5c0.4-0.8,1-1.7,0.2-2.2c-1.5-1-0.9-2.1-0.7-3.3c0.4-2.3-0.5-3.5-3.1-3.7
	c-0.7,0.1-1.5-0.3-1.9-0.9c-0.2-0.7-0.8-1.1-1.5-1c-0.8,0.2-0.6,1-0.8,1.6c-0.3,0.7-0.4,1.4-0.3,2.2c0.4,1.1-0.3,1.6-0.9,2.2
	c-1.1-1.2-0.4-2.7-1.4-3.9s0.3-2.8,0.1-4.1c-0.2-1.3-0.4-3.1-2.6-3.5c-0.8,0-1.5-0.6-1.5-1.4c0-0.1,0-0.3,0-0.4
	c0.1-0.8-0.3-1.2-1.1-1.5c-1.7-0.7-3.2-0.9-4.5,0.7c-0.6,0.5-1.4,0.9-2.2,1c-0.9,0.3-1.5,0-1.1-0.8c0.6-1.6,0-2.9-0.6-4.3
	c-0.5-1-0.1-2.2,0.9-2.7l0,0l0,0c1-0.7,1.4,0.3,2,1c0.7,0.7,1.9,0.8,2.7,0.2c0.8-0.5-0.2-1-0.5-1.5c-1.2-1.5-5.1-2.9-7-2.5
	s-3.2,1.9-2.6,3.6c0.4,1.2,0.6,1.9-1.3,1.4c-1-0.2-1,0.4-0.5,0.9s1.2,1,1.9,1.2c0.3,0.2,1.1,0.2,0.7,0.8c-0.8,1.2-0.1,2.4-0.4,3.5
	c-0.8,0.3-3-1.5-2.2,1c0.6,2-0.6,2.6-2,3c-1.1,0.4-2.3,0.4-2.5,1.8c-0.2,1.4,0.5,2.1,2,2.8c-1.8-0.3-2.4,0.3-2.7,1.6
	c-0.1,0.6-0.9,0.6-1.4,0.9c-1.5,0.8-3.2,1.2-2.7,3.5c0.3,1.5,0,4.1-1,4.5c-2,0.9-1.8,2.3-2.1,3.6c-0.8,2.8-0.2,3.8,2,4.1
	c-1.5,0.4-2.1-1.2-2.8-1.4c-2.4-0.7-1.7-2.2-1.4-3.2c0.5-1.6-0.2-2.1-1.8-2.3C413,78.2,414,78,415,78c0.8,0,1.6-0.5,1.8-1.3
	c0.2-0.9-0.4-1.1-1.2-1.4c-1-0.3-1.5-1.3-2.5-1.6c0.6-0.3,1.3-0.1,1.8,0.3c0.4,0.7,1.3,0.9,2,0.5l0.1-0.1c1-0.8,1.4-2.1,1.1-3.3
	c-0.3-1-1.6-0.7-2.4-0.5c-1.3,0.2-2.8,1-3.2-0.9c-0.3-1.5-2.7-3.2,0.6-4.5c1.2-0.4,2-1.5,2-2.8c-0.2-1.7-1.8,0-2.6-0.6
	c-0.1-0.1-0.3-0.1-0.4-0.2c-1.1-0.2-1.9-0.1-2.2,1.1c-0.2,0.6-0.5,1.1-0.9,1.6c-0.2,0.5-0.8,0.8-1.3,0.6c-0.2-0.1-0.3-0.1-0.4-0.3
	c-0.6-0.6-2.2,0.2-1.9-1.2c0.2-1,0.2-1.6-1.2-1.6c-0.4,0-0.6-0.3-0.4-0.5c2.2-2.6,0-2.2-1.8-2.1c-0.4-0.1-0.7-0.3-0.9-0.5
	c-1-1-2.1-0.9-3.3-0.6c-0.8,0.2-1.4,0.8-2.4,0.2c1-1,1.9-1.9-0.5-2.2c-1.2-0.2-1.5-0.7-0.4-1.6c2-1.6,1.7-6.3-0.7-7.5
	c-1.5-0.8-1.4-1.7-1.5-2.8c0-0.6,0.5-1.5-0.6-1.7s-1.1,0.7-1.3,1.4c-0.4,1.3-0.6,2.8-2.7,3c-0.9,0.1-0.9,0.8-0.9,1.4
	s0.3,1.5-0.7,2.3c0.2-1-0.9-1.5-0.5-2.2c0.9-1.7,0.6-3.5,0.7-5.3c0.1-1.3-0.8-2.5-2.1-2.7c-0.8-0.4-1.8-0.1-2.3,0.7
	c-0.5,1.2-1.6,2.4-0.4,3.7c0.8,0.8,1.1,4.6,0.4,5.4c-0.2,0.3-0.6,0.4-1,0.3c-0.9-0.2-2.2-0.8-2.5,0.4s1,1.9,1.8,2.7
	c0.3,0.3,1.1-0.1,1.3,0.5c-1.7,0.8-4,0.1-5.2,1.9c-0.4,0.3-0.6,0.8-0.5,1.3c0.3,0.4,0.9,0.6,1.4,0.4c1.6-0.1,3.2,0,4.7-1.3
	c-0.3,1.7-0.3,1.7-1.5,2c-2,0.5-2.3,1-1,3c-2.6-0.8-4.8,1.2-7.4,0.4c-0.8-0.1-1.5,0.5-1.5,1.3c0,0.1,0,0.1,0,0.2c-0.1,1,0.8,1,1.6,1
	c0.6,0,1.3-0.3,1.8,0.5c-2.7-0.2-4.1,0.7-3.3,2.2c0.8,1.5,0.6,2.3-0.8,3.1c-0.5,0.3-0.5,1.4-1.3,1.1s-1.3-1.1-1.1-2
	c0.2-1.2-0.6-1.7-1.9-1.7h-3.2c1.5-0.4,2.5-1.9,2.2-3.4c-0.1-1.1-1.4-2-3.1-1.8c-0.5,0-1-0.1-1.5-0.3c-1-0.2-1.8-0.2-2.2,0.8
	s-1.2,1.2-2.3,0.8c0.5-1.1,1.4-2,2.6-2.2c0.5-0.2,1.3-0.3,1.1-1.1c-0.2-0.8-0.9-0.8-1.6-0.9c-1,0-1.9,0.2-2.8,0.6
	c-0.6,0.3-1.2,0.1-1.6-0.3c-0.5-0.4-0.6-1.1-0.4-1.7c0.3-0.9,0.9-0.2,1.4-0.2c1.3-0.1,1.9-1,0.9-1.8c-1.4-1.3-3-2.3-4.8-2.9
	c1.4-0.1,1.9-0.7,1.8-1.9s-0.8-1.2-1.8-1.2c-1.8,0.1-2.8,0.9-2.6,2.7c-0.2-1.5-1-2.1-2.7-2.5c-1.9-0.5-4.1-0.7-5.5-2.4
	c-0.8-1-1.5-0.9-2.3,0.1c-0.6,0.8-1,1.8-2.5,1.2c-0.6-0.2-1,0.3-1.4,0.8c-0.8,1.1-1.6,2.1-3.4,0.9c-0.8-0.4-1.7-0.1-2.1,0.7
	c-0.4,0.7-1.4,1.4-0.5,2.1c0.7,0.3,0.9,1.2,0.6,1.9c-0.2,0.3-0.4,0.5-0.7,0.7c-1,0.7-2.1,1.9-3.8,1c-0.5-0.3-1.1-1.1-1.7-0.4
	c-0.6,0.7,0.3,1.2,0.8,1.7c1,0.9,0.7,2.1-0.7,2.2s-3.2,0.3-3.7-1.6c0.8-0.2,1.4,1.1,2.2,0.1c0.5-0.6,0.6-1.4,0.3-2.1
	c-0.3-0.9-1.3-1.3-2.2-1l0,0l0,0c-0.9,0.3-1.6-0.2-2.6-0.2c1-0.1,1.8-0.9,1.8-2c0-0.1,0-0.2,0-0.3c-0.2-1.4-1.5-0.1-2.1-0.6
	c0.7-0.6,1.5-0.9,2.5-0.9c0.8,0,1.1-0.4,0.7-1.1c-0.9-1.3,0.1-2.3,1.1-2.8c1.7-0.9,1-1.3-0.1-1.9c-1.3-0.6-2.8-0.7-4-1.5
	c1.2-0.4,2.8,0.3,3.7-1c0.5-0.9,1.3-1.7,2.2-2.1c1.1-0.5,0.4-1.1-0.5-1.3c-1.3-0.1-2.4-1.1-2.6-2.4c-0.3-1.4-1.5-1.7-3-1.6
	c-0.5-0.1-1,0.1-1.3,0.6c-0.2,0.5,0.2,0.7,0.6,0.9c1.2,0.6,0.6,2.1,1.6,2.8c-0.5,0.4-1.5,0.1-1.8,0.9c-0.1,0-0.2,0-0.3,0
	c0-0.7,1.2-1.6,0-2.2c-0.9-0.6-2.2-0.3-2.8,0.7l-0.1,0.2c-0.6,1.3-1.2,1-2,0.1s-1.9-0.9-2.2,0.2c-0.3,1.1-0.6,1-1.5,0.7
	c-0.6-0.2-1.5-0.3-1.7,0.5c-0.2,0.7,0.2,1.3,0.9,1.5h0.2c2.3,0.2,4.1,2.1,6.7,1c-0.2,1.2-0.3,2.1-1.8,1.9c-0.5-0.1-1,0.2-1.2,0.7
	s0,1.1,0.5,1.4l1.9,1.1c-0.5,0.9-1.6,1.2-2.6,0.7c-0.2-0.1-0.3-0.2-0.4-0.3c-0.8-0.8-2-0.8-2.8,0l0,0l0,0l-0.2,0.2
	c-0.8,1-1.3,0.8-2-0.1c-0.5-0.5-0.9-0.9-1.5-1.2c-0.5-0.5-0.8-1.1-1.6-0.8c-0.8,0.3-0.8,1-0.9,1.5s-0.1,0.9,0,1.4
	c0.4,1.2,0,1.4-1.2,1c-0.5-0.1-1-0.3-1.5-0.3c-0.5-0.1-1.1,0.3-1.2-0.5c-0.2-0.6,0.1-1.3,0.6-1.6c0.3-0.2,0.8-0.1,1.1-0.3
	c1.2-0.7,2.2-1.8,1.6-3s-1.9-0.5-3.1-0.2c-1.5,0.5-2.3,1.7-3.7,2.3c-0.9,0.4-2.3,0.3-2.1,1.7c0.1,1.2,1.4,1.3,2.3,1.7
	c0.2,0.1,0.6,0,0.5,0.5c-0.5,0.2-1,0.1-1.5-0.1c-0.6-0.3-1.3,0-1.6,0.6c0,0.1-0.1,0.2-0.1,0.3c-0.2,0.8,0.4,1.1,1.1,1.2
	c0.4,0.1,0.7,0.2,1.1,0.3c0.6,0,1.1,0.4,1.3,1c0.1,0.7-0.5,0.9-1,1.2s-1,0.6-1.6,0.8c-1.3,0.5-1.3,1.2-0.5,2
	c0.2,0.2,0.4,0.3,0.6,0.5c-1.9,1.9,0.5,1.6,1.7,2.2c-1.8,0.3-3.2,0.6-4.7,0.8c-2.7,0.4,0,2.2-1.1,3.3c-1.1,1.1,1.9,0.9,2.4,2.1
	c-1,0-2.1-0.6-2.8,0.3c-0.7,0.9,0.6,1.1,1.2,2c-2-0.6-2.8-1.5-2.2-2.8c0.8-1.5-0.1-2.7-0.6-4c-0.3-0.6-0.9-1-1.6-0.9
	c-0.5-0.1-1.1,0.2-1.2,0.8c0,0.1,0,0.3,0,0.4c0.5,1.6-1.7,3-0.2,4.5c-0.1,0.2-0.2,0.5-0.4,0.7c-0.7,1.7-2.4,0.4-3.5,0.9
	c0.5-0.5,0.9-1.1,0.3-1.4c-1.9-1-0.9-2.1-0.5-3.3c0.7-1.7,1.4-3.5-0.5-5c-0.6-0.5-0.4-1.3-0.4-1.9c-0.1-3.2,0.3-6.5-0.4-9.7
	c-0.2-1.1,0.1-2,1.7-2.1c1.2-0.1,1.8-1.1,2.7-1.7c1.4-1,0.5-1.6-0.6-1.9c-2.4-0.7-5.8,1.5-5.8,3.7c-0.1,1.9,0,3.8,0,5.7
	c0,0.6,0.2,1.4-0.8,1.5c-1.7,0.1-3.4,0-5.1,0V54c1.1,0.3,2.5,0.8,2.7-0.6c0.2-1.3-1.2-1.4-2.3-1.7c-1.8-0.5-3.7-0.6-5.5-0.3
	c-0.8,0.1-1.6-0.2-2.2-0.7c-1.5-1-2.4-0.6-2.5,1c0,1.1-0.4,1.3-1.5,1.1s-2.4-0.7-3.7-0.9c-0.7-0.1-1.6-0.3-2,0.6s0.5,1,1,1.4
	c0.8,0.4,1.6,1,2.2,1.7c1,1.2,0.8,1.8-0.9,2c-0.7,0.1-1.6,0.1-1.6,1s0.9,1.1,1.8,1.2h4.5c-1,0.3-2.3,0.2-2.3,1.6
	c0,1.2,1.4,1.7,1.7,2.6c-0.4,0.3-1,0.3-1.4,0c-1.7-0.5-2.9-0.4-3.7,1.4c-0.3,1-1.3,1.7-2.4,1.5c2-1.7,2.9-3.3,2.7-4.8
	c0.1-0.5-0.2-1.1-0.8-1.2h-0.1c-0.5,0-1,0.3-1.2,0.8c-0.4,0.7-0.5,1.5-1.4,2c-1-1.2-0.5-2.2,0.3-3.2c0.6-0.7,0.6-1.7,0.1-2.5
	c-0.8-0.9-1.3,0.3-1.9,0.4c-0.5-1.2,1.2-2.6-0.4-3.6c-1.9-1.1-1.7-2.9-1.9-4.5c-0.1-0.9,0.1-2.1-0.9-2.3c-1.4-0.3-2.8-0.3-4.2,0.1
	c-1.3,0.4,0.4,1.5-0.1,2.3c-0.6-0.5-1-1.6-1.9-1.2s-0.4,1.3-0.4,2c-0.1,1.3,0.8,2.5,1.3,3.6c0.1,0.3,0.8,0.8,0.3,1
	c-1.6,0.7-0.7,1.7-0.4,2.6s-0.6,1.3-1.1,1.8s-0.6,0-0.8-0.2c-0.2-0.6-0.9-0.9-1.5-0.7c-0.7,0.3-0.4,1-0.4,1.5
	c-0.1,1.7,1,2.7,2.4,3.6c0.5,0.3,1.9,0.2,1.2,1.1s-1.4,0.3-2-0.3c-0.2-0.1-0.4-0.2-0.6-0.3c-0.9-0.3-1.6-1.2-2.7-0.7
	c-1,0.5-0.2,1.5-0.2,2.2c0.1,1.3,0.1,2.2-1.9,2c-1,0-3.1-0.4-3,0.4c0.1,1.9-0.9,3.4-1.1,5.1c-0.2,1.5-0.9,2.9-2,4
	c-0.7,1.1-1.8,1.8-3,2.3c-0.6,0.2-0.3,1.3,0.5,1.9c0.4,0.3,1.2,0,1.5,0.7c-4-0.6-3.4,0.1-3.4-3.1c0-0.3,0-0.7-0.1-1
	c0-0.7-0.5-1.2-1.1-1.2l0,0l0,0c-0.6,0-1.2,0.5-1.2,1.2l0,0v0.1c-0.1,1-0.1,2-0.1,3c0,0.4-0.3,0.8-0.7,0.9c-0.5,0.1-1-0.2-1.2-0.7
	c-0.4-0.5,0-0.7,0.5-0.9c0.8-0.3,1.1-1,0.5-1.5c-1.6-1.3-0.5-2,0.6-2.8c0.5-0.3,1.1-0.6,0.7-1.3c-0.4-0.6-1.1-0.8-1.8-0.6
	c-0.5,0.1-1,0.4-1.4,0.6c-1.3,0.9-1.7,0.2-2.2-0.8s0.6-2.1,0.6-3.3c0.2-2,0.6-4,1.4-5.8c0.4-0.7,0.2-1.6-0.5-2
	c-0.9-0.5-1.4,0.2-1.9,0.7c-0.2,0.2-0.4,0.4-0.7,0.5c-0.6,0.3-1.2,0.9-1.9,0.5s-0.4-1.2-0.1-1.8s0.8-1.4,0.1-1.6
	c-2.5-0.8-1.9-2.1-1.1-3.6c0.2-0.3,0-0.7-0.3-0.9c-0.5-0.2-0.7-0.8-0.5-1.3c0-0.1,0.1-0.2,0.2-0.3c0.4-0.7,1-0.3,1.6-0.1
	c0.9,0.2,1.7,0.4,1.9-0.7c0.1-0.4,0.5-0.7,1-0.7c1.3-0.1,3-0.4,2.8-1.7c-0.4-1.6-2.1-0.5-3.3-0.5c-0.4,0-0.7,0.1-1.1,0.3
	c-0.9,0.6-2,0.6-2.9,0s-2.1,0-3,0.3s0,1.2,0,1.8c0,1.1-0.1,2.3-0.2,3.4c-0.5,2.6-0.9,5.2-1.4,7.9c-1.4-1-3-1.6-4.7-1.7
	c2.3-0.2,0.9-2.3,2.2-3c0.6-0.3,1.2-0.7,1-1.4s-1.2-0.7-1.9-0.7c-2.1-0.1-3.9-1.1-6-1.3c-2.8-0.3-0.3-3.2-1.6-4.6c0-0.1,0-0.3,0-0.4
	c0.8,0.2,1.8,0.7,2.5,0s-0.1-1.7-0.4-2.9c1.9,0.5,3.6,0.5,5,1.7c0.6,0.6,1.4,1.1,2.1,0.4c0.6-0.9,0.9-1.9,0.8-3c0-1-1.2-0.9-1.9-1.3
	c-2.1-1.2-5.6,0.3-6.8-2.8c-0.2-0.5-1.6-0.5-0.9-1.5s1.5-0.6,2.4-0.4c0.4,0.1,0.8,0.1,1.1,0.1c0.5,0.1,1-0.2,1.2-0.7
	c0.1-0.5-0.1-1-0.6-1.2s-0.9-0.5-1.3-0.7c-0.5-0.3-1.6-0.6-1.2-1.3c0.4-0.7,1.4-1,2.1-0.6c1.1,0.5,2.4-0.2,2.1-1
	c-0.7-1.7,0.6-1.8,1.7-2.2s2-0.6,2.2-1.7c0.1-0.4-0.1-0.8-0.5-1c-1.2-0.4-2,0.4-2.9,0.9c-0.4,0.3-0.8,0.6-1.2,1
	c-0.8,0.7-1.7,1.2-2.7,1.4c-1.2,0.3-2.4-0.3-3.5-0.4c0-0.9,0.2-1.7,0.6-2.5c0.1-0.5,0.3-1,0.6-1.5c1.2-1.3-0.1-1.2-1.1-1.4
	c0.1-0.1,0.3-0.2,0.4-0.3c0.8-0.3,2.5-0.5,1.6-1.6s-1.6-2.8-3.6-3c-0.4,0-0.8,0.4-0.9,0.8c-1,2.3-2.6,4.2-4.7,5.5
	c-1.1,0.7-0.6,1.1,0.1,1.4c1,0.5,2.1,0.8,3.2,1.2c-1.2,0.3-2.4,0.4-3.7,0.3c-0.5-0.1-1,0.3-1.1,0.8c0,0.5,0.3,0.9,0.8,0.9h0.2
	c1.5-0.1,2.9,0.8,3.3,2.2c0.4,0.8,2.1,1.2,1.3,2.3c-0.5,0.8-1.6-0.2-2.5-0.2c-1.2,0-2.9,0-3.2,0.8c-0.3,1,1.4,1.3,2.5,1.7
	c-0.4,0.5-0.6,0.9-0.9,1.2c-0.2,0.2-0.3,0.3-0.5,0.4c-0.6,0.4-0.8,1.2-0.4,1.8c0,0.1,0.1,0.1,0.2,0.2c0.5,0.6,1.1,0.3,1.8,0.2
	c1.2-0.3,2.4-1.1,3.7-0.2c-1.3,0.1-2.7-0.5-3.4,1.3c-0.1,0.4-0.8,0.3-1.2,0.4c-0.7,0.1-1.5,0.3-2.2,0.5c-1.4,0.3-2.4,1.6-2.5,3
	c0.1,1.2,1.9,0.6,2.9,0.7c1.3,0.1,2.8-0.1,4.2,1.2c-1.5-0.5-3.1-0.7-4.6-0.6c-0.8,0-2-0.3-2.1,0.9s0.9,1.2,2.1,1.5
	c-3.7-0.1-6.9-0.1-10.2,0.1c1-0.2,2-0.3,3-0.4c0.8-0.1,1.9-0.7,1-1.2c-1.6-1-1.2-3-2.9-3.7c0.6-0.7,1.9-0.7,1.8-1.6
	c-0.1-1.1-1.3-1-2.1-1.3c-1.6-0.6-3.6-0.6-5-1.7c-0.3-0.2-0.7-0.2-1-0.1c-2,1.3-3.1-0.4-4.2-1.2c-1.4-1,0.8-1.5,0.8-2
	c0.3-3,2.4-1.5,3.4-1c1.7,0.8,3,0.3,4.5-0.2c0.7-0.3,1.5-0.5,1.3-1.4s-1.1-0.8-1.8-0.8c-3.3,0-6.5-0.5-9.6-1.5
	c-1.7-0.7-1.9-1.6-1.3-2.6c0.6-0.7,0.6-1.8,0-2.6c-0.3-0.3-0.3-0.8,0-1.2c0.1-0.1,0.1-0.1,0.2-0.1c0.6,0.5,1.3,0.9,2,1.3
	c2.2,1.1,4.4,2.5,7.1,0.9c1.2-0.7,1-1.2-0.1-1.7c-1.3-0.4-2.6-0.6-4-0.6c-2.1-0.1-2.8-1.4-1.6-3c0.3-0.4,1-1,0.7-1.4
	c-1.2-1.7,0.6-3.8-1.2-5.6c-0.8-0.8-0.6-2.3-0.8-3.5c-0.1-0.4-0.1-1-0.9-0.9c-0.5,0-0.8,0.4-0.9,0.8c0.1,2.5-1.6,4.6-1.4,7.2
	c0.3,2.2-0.6,4.5-2.5,5.8c-0.7,0.4-1.1,1-0.1,1.6c1.3,0.8,0.2,1.8,0,2.6s-1.4,0.4-2.2,0.2c-0.7-0.2-1.3-0.4-2-0.5
	c-0.5-0.2-1.1-0.1-1.4,0.3c-0.1,0.4,0.1,0.8,0.4,1.1c0.4,0.5,0.8,1,1.2,1.5s0.4,0.9-0.3,1.1c-1.7,0.5-3.2,1.5-5.1,1.7
	c-5.1,0.6-10.3,1.3-15.4,2c-5.5,0.8-10.9,2.1-16.5,2.6c-1.4,1-3.3,0.8-4.8,1.4c-2.6,1.1-3.6,0-4.8-1.7c3.2-0.4,6.4-0.3,9.5,0.3
	c1-1,1.3-2.5,0.7-3.8c-0.4-0.6-0.3-1.3,0.3-1.7c0.1-0.1,0.2-0.1,0.3-0.1c0.7-0.4,1-1.3,0.6-2c-0.1-0.1-0.2-0.2-0.2-0.3
	c-0.6-0.9-1.5-0.3-2.2,0.1c-1.6,0.9-3.3,1.7-5.1,2.2c-0.1-2.3,2-2.5,3.6-2.7c2.3-0.2,1.9-1.8,2.1-3c0.1-0.6-0.8-1.1-1.4-1.4
	c-0.9-0.4-1.1,0.3-1.6,0.7c-0.9,0.9-2.2,1.3-3.2,2.1c-0.8,0.6-2,0.4-2.6-0.4l0,0l0,0l-0.1-0.2c-0.6-1,0.5-1.3,1.4-1.6
	c0.6-0.2,1.3-0.4,1.9-0.7c0.6-0.3,1.3-0.6,1.1-1.4s-0.9-0.7-1.6-0.7c-0.6,0-1.2,0-1.7-0.2c-1.5-0.5-1.8-1.4-0.6-2.4
	c0.6-0.5,1.4-0.9,1.3-1.7s-1.2-0.6-2-1.4c1.5,0.3,2.3,0.2,2.8-0.8c0.6-0.9,1.5-1.6,2.5-2c2-0.9,4.1-1.5,6.2-2.5c0.6-0.3,3-1.5,3.2,1
	c0.1,0.2,0.2,0.4,0.4,0.4c1.2,0.3,2.4-0.1,3.3-1c0.8-0.6,1.9-1.3,1.4-2.3s-1.8-0.8-2.8-0.8c-5.5-0.1-10.9,1.7-15.3,5.1
	c-0.9,0.7-1.7,1.6-3.2,0.8c-0.5-0.3-0.8,0.2-1.1,0.5c-0.6,0.7-1.4,1.2-2.2,1.3c-2.9,0.5-5.5,2-7.5,4.2c-0.5,0.6-2,0.9-1.5,1.7
	s1.8,0.3,2.7,0.3c0.4-0.1,0.9-0.2,1.3-0.4l4.8-1.2c-1.8,1-0.8,1.6,0.2,2.2c1.5,1,1.4,2.3,0.7,3.6c-0.5,0.9-0.3,2.3-2.3,2.1
	c-0.9,0.1-1.7,0.7-1.9,1.5c-0.3,0.8,0.6,1,1,1.4c0.3,0.3,0.8,0.4,0.5,1c-2.7-0.5-2.7-0.5-3.4,1.2c-0.8-0.4-1.6-1.3-2.4-0.7
	c-2,1.4-2.1-0.1-2.6-1.2c-0.2-0.6-0.4-1.1-0.8-1.7c-0.2-0.4-0.7-0.5-1.1-0.3c-0.2,0.1-0.3,0.2-0.4,0.4c-0.6,1,0.7,5,1.8,5.5
	c2,0.9,3.5,2.4,5.6,3.1c-2.2-0.2-4.3-1-6.2-2.1c-0.9-0.6-2-1.4-3-0.5c-0.8,0.6-1.7,1.1-2.7,1.3c-2,0.8-3.8,2-5.3,3.6
	c-1.2,1.4-0.6,1.9,1.1,2c1.4-0.8,2.8-1.7,4-2.8c1.4-1.5,4.4-1.6,5.5-0.4c1.8,2,4.4,2.2,6.6,3.2c-0.9,0-1.9-0.1-2.8-0.3
	c-1.4-0.6-3-0.9-4.5-1c-3,0-5.9,1-8.8,1.3c-0.8,0.5-1.7,0.9-1.3,1.9s1.4,0.6,2.2,0.6c0.3,0,0.6,0,0.9,0c3.2-0.3,5.1,2,7.7,2.9
	c0.3,0.2,0.4,0.6,0.2,1l0,0l0,0c-3.4-0.5-6.6-1.7-9.9-2.6c-0.8-0.2-1.7-1.1-2.4-0.2c-0.6,0.8,0.2,1.5,0.6,2.3
	c0.7,1.5,3.1,0.9,3.5,2.6c0.3,1.4,1.5,1.6,2.9,1.7s3.2,0,4.5,0.9c0.2,0.2,1.1,0,0.5,0.9c-1.2,1.6,0,2.7,1.4,3.7
	c0.4,0.3,1.4,0.4,0.9,1.1c-0.4,0.6-1,0.9-1.7,0.8s-1.3-0.4-1.8-0.8c-0.8-0.7-2-0.9-3-0.7c-0.5,0-1,0.3-1.2,0.8
	c-0.1,0.5,0.2,0.9,0.7,1h0.1c1.7,0.3,1.8,1,0.9,2.2c-0.4,0.5,0.1,1.2,0.3,1.8c-0.8-0.5-1.4-0.9-2.1-1.2c-0.5-0.4-1.2-0.4-1.7,0
	c-0.3,0.4-0.2,1,0.2,1.3c0.5,0.7,0.4,1.7,1.1,2.4c0.5,0.4,0,0.9-0.3,1.3s-0.6,0.2-1,0c-0.5-0.4-1.2-0.4-1.7,0
	c-0.6,0.5-0.2,1.1,0.1,1.7c0.6,0.9-0.1,1.5-0.8,1.8c-0.9,0.4-2,0.2-2.7-0.5c-0.6-0.6,0.5-1.1,0.9-1.6c0.3-0.2,0.6-0.4,0.9-0.6
	c0.5-0.5,0.3-1-0.3-1.1c-1.9-0.1-3.8-0.4-5.7-0.7c-2.5-0.4-2.8-0.2-3-2.4c-0.1-1.6,0-2.8,2.1-3.2c0.7,0,1.2-0.6,1.3-1.2
	c0-0.5-0.5-0.9-1-0.9c-2,0.5-3-0.3-3.5-1.9c-0.1-0.1-0.2-0.2-0.4-0.2c-2.7,0.5-3-2.8-5.6-2.8c-0.6,0-1.9-1.3-3.3-1.4
	c-0.3,0.1-0.6-0.1-0.6-0.5c0-0.1,0-0.1,0-0.2c0.1-1.5-0.6-2.3-2.1-3c-0.9-0.4-0.8-1.7-0.6-2.6c0.1-0.5,0.6-0.9,1.2-0.8l0,0l0,0h0.2
	c1.1,0.8,2.3,0.3,3.4,0.7s2.1,0.7,2.3-0.6c0.3-1.4-1.2-1-2-1.3c0.2-1.2,0.7-1.7,2.3-2c2.2-0.3,4.3-1.8,6.4-2.7
	c0.4-0.1,0.6-0.6,0.4-0.9c0,0,0,0,0-0.1l0,0L71,47.1c-0.2-0.3-0.6-0.5-1-0.4c-1.3,0.1-2.5,0.3-3.7,0.7c-2.3,1.1-5,1-7.5,1.4
	c-0.5,0.1-1.1,0-1.4-0.4c-0.4-0.6,0.3-0.7,0.6-1c0.9-0.8,1.2-4.3,0.5-5.4c0.1-0.1,0.3-0.1,0.4-0.1c0.9,0.1,2,0.6,2.4-0.4
	c0.5-1.2-1.1-1-1.7-1.4c-1.5-0.7-3.1-1.4-3.2-3.1c-0.2-2.1-0.3-4.2-0.4-6.2c0-0.7,0.5-1.4,1.2-1.6c5.7-2.4,11.2-5.2,17.7-5.7
	c1.8-0.2,3.5-0.7,5.2-1.4c0.6-0.1,1-0.6,1.1-1.2c-0.1-0.7-1-0.5-1.5-0.5c-4.6,0-9.1,1.2-13.2,3.5c-2.9,1.6-6.2,2.3-9.4,2.3
	c-1.5-0.1-3.1,0.3-4.4,1c-6.2,2.8-12.8,4.6-19.4,6.3c-2.8,0.7-5.7,0.7-8.3,1.8c-1.1,0.5-2,1.1-3.3,0.3c-0.7-0.4-1.5-0.2-1.9,0.5l0,0
	l0,0v0.1c-1,2.2-2.9,1.5-4.6,1.4c0.7-0.2,1.5-0.3,2.3-0.3c0.7,0,1.5-0.1,1.5-0.9s-0.8-0.8-1.4-1c-1-0.4-2,0.6-3-0.1
	c0.4-0.8,3.9,0.2,1.4-2.2c-0.5-0.5,0.3-0.7,0.6-0.8c0.7-0.1,1.5-0.1,2.2-0.2s1.8,0.2,1.6-0.9c-0.1-0.9-1-0.9-1.8-0.8
	c-1.5,0.4-3.1-0.2-4-1.5c-0.9-1.2-2.5-1.6-3.9-1c-0.5,0.2-1,0.3-1.5,0.3c-0.5,0.2-1.1-0.1-1.2-0.6c-0.1-0.5-0.1-1.1,0.1-1.6
	c0.4-0.4,1.2-0.5,1.6,0c1.4,0.8,2.9,0.5,4.4,0.5c0.9,0,2,0.2,2.2-0.9s0.6-2.1-0.8-2.9c-1-0.6-1.8-1.4-2.2-2.4
	c-0.7-1.8-1.8-2-3.6-1.8c-1.2,0.2-2.9,0.3-1.7-1.7c0.8-1.4-0.7-1.5-1.6-1.9c-0.6-0.3-1.4-0.1-1.7,0.5c-0.1,0.2-0.2,0.5-0.1,0.7
	C4.5,16.9,5,18,3.5,18.2C1.8,18.4-0.1,19-1.4,18c-1.1-0.9-2.3-1.6-3.5-2.5c-0.5-0.4-1.2-1.1-1.7-0.6c-0.7,0.6,0,1.4,0.6,1.9
	c2.1,1.8,3.7,4.3,7.3,4.1c0.8,0.1,1.6,0.3,2.3,0.7c1,0.4,1,1.1,0.3,1.8c-1.4,1.3-3.5,1.5-5.2,0.5c-0.7-0.4-1.4-0.9-2-1.3
	c-0.3-0.3-0.8-0.3-1.1,0l0,0C-4.9,22.9-5,23.5-4.7,24l0.1,0.1c0.4,0.5,1.1,0.8,1.8,0.8c0.9,0,1.7,0.6,1.8,1.5
	c-2.6-0.6-4.8-1.2-6.2-3.2c-0.3-0.7-1.1-1.1-1.9-0.8c-0.6,0.3-0.9,0.9-0.8,1.6c0,0.5,1,1.2-0.1,1.5c-0.8,0.2-1.2-0.7-1.5-1.3
	c0-0.4-0.3-0.7-0.6-0.8c-0.4,2.3-0.3,4.7-2.4,6.5c-0.5,0.4,0.1,0.7,0.3,1c1.4,2.7,1.4,2.7-1.4,4.4c-0.8,0.5-1.5,3.8-0.7,4.1
	c1.3,0.6,1.4,2,3,2.6c-0.9,0.2-1.6,0.3-1.7,0.9c-0.4,2.2-1.5,1.7-3,0.8s-1.8-0.1-1.4,1c0.4,1.3-0.3,2.1-1.3,3s-2.5,1.5-3.2,2.8
	c-0.3,0.4-0.9,0.6-1.3,0.3l0,0l0,0l-0.2-0.2c-1.1-1.2-2.3-0.5-3.5-0.2s-2.4,0.7-3.6,1.1c-0.6,0.2-1.3,0.2-1.4-0.5
	c0-0.6,0.4-1.1,1-1.1c0.1,0,0.2,0,0.3,0c3.2,1.3,5-1.2,7.3-2.1c1.1-0.5,1.8-1.5,1-2.7s-2.4-0.8-3.4-2.2c-0.6-0.8-2.8-0.8-4.3-0.5
	c-0.7,0.1-1.3,0.4-2.1,0.6c0.4-1,1.3-0.7,1.8-1c1-0.5,1.5-1.5,1.5-2.6c-0.1-1.2-1.3-0.1-2-0.3c-1.1-0.3-2.8,0.1-1.5-1.9
	c0.9-1.7,1.6-3.4,2.1-5.2c0.2-0.2,0.2-0.5,0-0.7c-2-1.4-4.1-2.7-6.9-2.1c-0.6,0.2-1.2,0.6-1.4,1.2c-0.4,0.7,0.2,1,0.8,1.2
	c1,0.3,1.4,0.9,1,1.7s-1.2,0.7-2,0.5c-2-0.5-3-0.2-2.4,1.8c0.2,0.5,0.1,1-0.3,1.3c-1.2,1.2-0.1,1.6,0.9,2.1c1.3,0.7,2.7,0.4,4.2,0.4
	c-1.1,0.8-2.5,1.1-3.9,0.8c-0.8-0.2-1.8-0.9-2.5-0.1c-0.5,0.6,0.3,1.4,0.5,2.1c0.1,0.5,1,1,0.4,1.4c0.2,0.4-0.5,0.2-0.9-0.4
	c-1.7-1.7-3.4-3.4-4.4-5.6c0.8-0.6,2.5-0.8,2.4-1.9c-0.2-1.4-2-1.5-3.3-1.9c0.7-0.6,1.9,0,2-1c0.1-1.2,1-1.6,2-1.9
	c0.6-0.2,1.5-0.4,1.1-1.2c-0.4-0.8-1.2-0.6-1.8-0.5c-1.8,0.5-3.5,0-5.5-0.4V262L0,258.5L1310.3,170.1z M-6.1,37.8
	c-1.9,0.3-2.4-1.1-4.2-1.8c4.7-0.8,7.9,0.3,10.3,3.1C-2,38.2-3.9,37.5-6.1,37.8z M43.8,72.3c-0.8,0-1.8-0.1-2,0.9
	c-0.3,1.2,1.2,1,2,1.6c-2.7,0.3-4.5-1.4-6.7-1.7c-1.5-0.2-2.4-0.6-2.8-1.9c-0.5-1.6-1.5-2-3.2-1.4c-0.6,0.3-1.2,0.2-1.6-0.3
	c1.2-0.7,2.8-1,2.5-2.7c-0.1-0.3,0.5-0.4,0.9-0.4c1.2,0,2.4,0,3.6,0.2c2.5,0.5,4,2.8,6.9,2.6c1.2-0.1,1.2,1.3,1.4,2.2
	C44.9,72,44.5,72.3,43.8,72.3L43.8,72.3L43.8,72.3z M45.1,65.7c-1.8-0.1-3.6-0.2-5.4-0.5c-3.5-0.6-7.1-1.2-9.2-4.2
	c0.3-0.3,0.8-0.5,1.2-0.3c2.4,0.8,3-0.9,2.8-2.2c-0.3-2.8,1.7-3,3.9-3.2c0.5,0,1-0.2,1.5-0.4c1.4-0.7,3.1-0.2,3.9,1.1
	c-2,0.5-2,0.5-2,2.1c-0.5-0.2-1.2-0.3-1.7-0.4c-0.8-0.2-1.8-0.6-2.2,0.3s0.5,1.3,1.3,1.7c0.9,0.3,1.8,0.7,2.5,1.2
	c0.6,0.9,1.8,1.2,2.8,0.9c2.4-0.5,1.6,1.6,2,2.6C46.9,65.4,45.9,65.7,45.1,65.7z M53.3,41.1c0.6,0.4,0.3,0.6,0,0.9
	c-0.9,1.2-2.8,1.3-3.5,0c-0.9-1.4-2-2.8-3.2-3.9c2.6-0.6,4.9,0.8,7.3,0.4C51.3,39.5,51.2,39.6,53.3,41.1z M54,34.7
	c-1.7,0-2.7,1.8-4.5,1.5c-1.9-0.2-3.8,0-5.5,0.6c-1.6,0.4-1.6,1-0.6,2c1.3,1.2,2.6,2.3,3.8,3.5c0.3,0.2,1.1,0.6,0.6,0.8
	c-1.6,0.7-0.8,1.6-0.5,2.5c0.2,0.6-0.1,1.2-0.6,1.5l0,0h-0.1c-2,0.6-1,1.2,0,1.8c0.6,0.3,1.3,0.6,2,1c0.5,0.2,0.8,0.7,0.3,0.9
	c-1.7,0.6-2.8,2.7-4.7,2.3c-3.5-0.8-6.5,0.7-9.6,1.2c-2.8,0.4-5.4,1.8-8.3,0.4c0.5-0.6,1.3-0.8,2-0.4c0.9,0.3,1.5,0,1.5-0.9
	c0-0.7,0.7-1.5-0.2-2.1s-1.5,0-2.2,0.4s-1.5,0.4-2.1,0c-0.4-0.2-0.9-0.7-0.6-1c1.1-0.9,0.8-2,1-3.1c0.2-0.7,0.8-1.1,1.5-1
	c1.2-0.1,2.6,0.1,3-1.2s-1.2-1.5-1.9-2.3c-0.1-0.1-0.2-0.2-0.3-0.3c-1.4-1.3-0.8-3,1-3.7c3-1.1,6.1-1.9,9-3.3
	c4.4-2,9.1-3.2,13.8-4.4c1-0.3,2.5-0.3,2.6,0.4C54.3,32.4,53.6,33.7,54,34.7L54,34.7z M132.2,82.9c-0.7-0.1-1.3,0.1-1.8,0.5
	c-0.4,0.4-1,1.1-1.6,0.5s-0.1-1.2,0.3-1.8c0.7-1,2.7-1.4,1.9-3.2c-0.1-0.2,0.4-0.5,0.7-0.4c1.2,0.5,2.7,0.8,2.5,2.5
	c0,1-0.8,1.8-1.8,1.9l0,0H132.2z M155.1,43c-0.6-0.3-1.4-0.1-1.7,0.5c-0.3,0.7,0.3,1.1,0.8,1.5s1.4,0.7,1,1.4s-1.2,0.5-1.8,0.5
	c-3.4,0.2-6.4,2.4-6.9,5.3c-0.1,1.1-0.9,2-2,2.3c-2.7,1-2.7,1.8-0.6,3.5c0.3,0.3,0.7,0.5,1,0.7c-2.3,1.6-3.7,3.3-3.4,6.9
	c0.1,0.8,0.2,2-0.9,2c-1.6,0.1-3.1-0.2-4.5-0.9c-0.7-0.4-0.9-0.9-0.1-1.6c1-0.9,0.2-1.4-0.9-1.5c-0.7-0.1-1.5,0-2.2,0.4
	c-4.1,2.6-9.2,3.1-13.7,5c-1.2,0.5-2.4,1-3.7,1.4c-0.6,0.2-1.4,0.6-1.8-0.2c-0.3-0.6-0.6-1.4,0-1.9s0.4-1.7,1.4-1.7
	c1.3-0.1,0.7,1.1,1.1,1.7c0.2,0.4,0.6,0.6,1.1,0.6c0.6,0,1.1-0.5,1.1-1.1l0,0l0,0c0-1,0.6-1.9,1.5-2.2c1.1-0.6,1.3-1.8,1.2-2.9
	c-0.1-2.2,0.3-2.6,2.8-2.3c0.8,0.2,1.6-0.3,1.9-1.1c0.2-0.5,0.9-0.9,0.4-1.4s-1.4-0.3-2.1-0.3c-0.5,0.2-1,0.3-1.5,0.1
	c0.7-0.2,1.2-0.3,1.8-0.5c1.9-0.7,4.3-0.3,5.4-2.3c0.3-0.5,0.9-0.8,0.6-1.4c-0.4-0.5-1.2-0.7-1.8-0.3c-0.8,0.4-1.8,0.3-2.4-0.3
	c-0.5-0.4-1.4-0.2-2.1,0.1c-1.1,0.5-2.2,0.8-3.4,0.8c1.1-0.6,2.1-1.2,3-2c0.6-0.6,1.8-1.2,1.3-2.2s-1.7-0.4-2.6-0.2
	c-0.2-0.1-0.4-0.2-0.6-0.3c1.7,0,3.2-1,3.8-2.5c0.4-0.7-0.4-1-0.8-1.2c2.9-1.6,6.4-1,9.7-1.6c6.8-1.3,13.4-3,20.1-4.5
	c0.6-0.1,1.7-0.6,2,0.2s-0.8,1-1.5,1.1s-1.4,0.3-1.3,1.1c0.2,0.7,0.8,1.1,1.5,1h0.1c1-0.1,2.1-0.3,3.1-0.4
	C157.4,42.6,156.4,43.4,155.1,43L155.1,43L155.1,43L155.1,43z M171.3,63.5c1,0,1.8-0.1,2.1-1.2c0-0.3,0.3-0.5,0.6-0.5
	c0.2,0,0.4,0.2,0.5,0.5c0.7,2.2,1.8,1.3,3.1,0.5c2.1-1.3,4.1-1.1,5.1,0.4C178.8,63.7,175.1,64.7,171.3,63.5L171.3,63.5L171.3,63.5z
	 M591.9,68.5c-0.7-0.8-2.3-0.6-2.4-1.9s1.3-1,2.1-1.3c0.5-0.1,0.8-0.6,0.8-1.1c-0.1-0.5-0.5-0.9-1-0.9c-0.7-0.1-1.3-0.1-2-0.1
	c-0.7,0.1-1.3-0.2-1.6-0.9c-0.2-0.5,0-1,0.4-1.3c0.6-0.3,1.3-0.2,1.8,0.3C593.2,63.5,593.4,64.2,591.9,68.5L591.9,68.5L591.9,68.5
	L591.9,68.5z M598.5,67.2c-0.2,0.3-0.3,0.7-0.2,1.1c0,0.5,0.2,1.2-0.6,1.3c-0.5,0.1-1.1-0.2-1.2-0.8c0-0.1,0-0.3,0-0.4
	c-0.1-1.7-0.4-3.3-0.9-4.9c-0.2-0.8-0.1-1.2,0.8-1.3s1.8-0.2,2.9-0.4c0.4,0,1,0.1,0.8,0.8C599.5,64.2,601.6,66.3,598.5,67.2
	L598.5,67.2L598.5,67.2z M828.9,84.2c-0.2,0.9,0.1,1.9-1.3,2.3c-2.8,0.7-5.7,0.7-8.5,1.4c-0.8,0.2-0.9,0-1-0.6
	c-0.5-2.2,0.9-4.4,3.1-4.9c0.3-0.1,0.6-0.1,0.9-0.1c2,0.2,3.6,0.2,5.1,0.4C828.2,82.7,829.2,83,828.9,84.2L828.9,84.2z M834.2,83.2
	c-0.8,1.6,0.8,3.4-0.8,4.9c-0.3,0.3,0.1,1.1-0.7,1c-0.7,0-1.3-0.5-1.3-1.2c0-1,0.1-2,0.2-3h-0.1c-0.1-0.6-0.1-1.2,0-1.8
	c0.2-0.7,0.9-1,1.5-0.9C833.7,82.3,834.4,82.6,834.2,83.2L834.2,83.2L834.2,83.2L834.2,83.2z M855.3,85.7c-0.5,2.9-1.1,3.4-4.5,3.8
	c-1.1,0.1-2,0.3-1.5-1.2c0.3-0.9-0.5-1.3-1.6-1.4c2.1-0.8,4.3-0.8,6.3-1.6C854.5,84.9,855.4,84.8,855.3,85.7L855.3,85.7L855.3,85.7
	L855.3,85.7z M861.5,83.6c-1.7-0.2-3.3,1.4-4.5,0.4c-1.9-1.6-3.5-1-5.4-0.4c-1.7,0.5-3.5,0.7-5.3,0.6c1-0.4,1.7-1.2,2-2.2
	c0.4-1.5,1.2-2.3,3.1-2.4c2.1-0.1,4.5-0.2,4.8-2.9c0.3-0.5,0.8-0.9,1.3-1c1.4-0.4,2.9-0.8,4.3-1.1c0.4-0.2,0.9-0.1,1.2,0.3
	c0.2,0.5-0.5,0.6-0.8,0.8c-1.4,0.6-2.8,1.2-4.3,1.6c-1.2,0.3-1.8,0.9-1.7,2s1.3,0.7,2,0.7c1.8,0,3.7,0.3,5.4,0.7
	C859.9,82,859.9,82,861.5,83.6L861.5,83.6L861.5,83.6z M952.8,82.5c-0.5-0.2-1-0.3-1.4-0.6c-2-1-3.2-0.5-3.8,1.5
	c-0.3,1-0.8,1.8-1.9,1.7c-1.6-0.2-2.9,0.6-4.3,0.7c-1,0.1-2.2,0.4-1.6,1.8c0.2,0.5,0,0.8-0.6,0.8c-0.5,0.1-1.1,0.1-1.5-0.2
	c-0.4-0.4-0.1-0.8,0.2-1.1c1.2-1.1,1-2-1-2.7c1.3-0.5,2.6-0.6,4-0.5c0.8,0.3,1.7-0.2,1.9-1c0-0.1,0-0.2,0.1-0.2
	c0.8-2.4,2.2-3,4.9-2.3c0.5,0.2,1,0.3,1.5,0.3c2.7-1.1,3.1,1.8,4.9,2C953.7,82.8,953.2,82.6,952.8,82.5
	C952.8,82.4,952.8,82.5,952.8,82.5z M1006,87.2c-2.5,1.6-5.4,0.6-5.8-2.1c-0.1-0.4-0.8-0.5-0.5-1.2c0.4-0.1,0.8-0.1,1.2,0
	c1.8,0.5,3.2,1.8,5.3,1.9C1007.1,85.7,1006.8,86.6,1006,87.2L1006,87.2L1006,87.2L1006,87.2z M1128.3,69.7c-0.4,1.2-3.2,1.9-1,3.8
	c-0.1,0.1-0.2,0.2-0.3,0.3c-1.1,0.4-1.8,1.6-3.2,1.6c-0.4-1.2,1.8-1,0.9-2.3c-0.9-1.5-0.4-3.4,1.1-4.3c0.2-0.1,0.5-0.3,0.7-0.3
	c0.5-0.2,1.1-0.1,1.5,0.2C1128.2,68.8,1128.4,69.2,1128.3,69.7L1128.3,69.7L1128.3,69.7L1128.3,69.7z M1175.6,97
	c-0.2,0.7-0.8,1.1-1.5,1c-1-0.3-0.5-1-0.2-1.5s0.6-0.7,0.3-1.1c-0.4-0.4-1-0.4-1.4-0.2c-0.8,0.3-1.8,0.3-1.8-0.5
	c0-1.6,0.2-3.2,0.6-4.7c0.3-0.7,1.2-1,1.9-0.7c0.4,0.1,1,0.4,1.2-0.1s-0.4-0.8-0.8-1.1c-1.2-0.7-2.6-1.1-3-2.6
	c1-0.1,1.4,0.6,2.1,0.8c3.3,1.2,2.9,3.5,1.5,5.9c-0.5,0.9-0.7,1.3,0.2,2S1176.1,95.8,1175.6,97L1175.6,97L1175.6,97L1175.6,97z"/>
<polygon class="st2" points="0,258.5 0,704 1313.7,704 1310.3,170.1 "/>
</svg>
